{
.appVersion = "3258";
.formatVersion = 3;
DisplayStrings = (
"Ʋʋ",
"Ƙ",
"Ľ",
L,
"̭Ḽ",
"̦Ļ,",
"Ļ",
"Ɲ",
"HŊB",
"/circumflexcomb_gravecomb Ồ",
"Ơ",
"Ƥ",
"Ƥ",
"Ɍ",
"TṰ",
"̣Ṭ",
"Ƭ",
"ƮH",
"Ʉ",
"Ʊ",
"Ʋ",
"Ⱳ",
"Ƴ",
"ɓ",
"ƈ",
"ď",
"ɗ",
"ʃ",
"ʔ",
"HʕHH",
"ɗɦ",
"ƙ",
"ɲ",
"ŋ",
"Ƥƥ",
"ƭ",
"ʊ",
"̃uũ",
"̋ű",
"ʋ",
"ⱳ",
"ⱳƴ",
"yỵ",
"YỴ",
"0689",
__,
"¶",
"₴",
"¥",
"₽",
A,
"Á",
"/circumflexcomb_tildecomb Ẫ",
"/circumflexcomb_hookabovecomb Ẩ",
"/circumflexcomb_gravecomb Ầ",
"/circumflexcomb_acutecomb Ấ",
"€",
$,
"¤",
"₡",
"¢",
x
);
customParameters = (
{
name = fsType;
value = (
);
},
{
name = blueFuzz;
value = 0;
},
{
name = blueScale;
value = 0.037;
},
{
name = blueShift;
value = 5;
},
{
name = "Use Extension Kerning";
value = 1;
},
{
name = "Use Line Breaks";
value = 1;
},
{
name = "Enforce Compatibility Check";
value = 1;
},
{
name = "Use Typo Metrics";
value = 1;
},
{
name = "Export TrueType Hints";
value = 1;
}
);
date = "2024-04-06 04:57:21 +0000";
familyName = GaMaamli;
featurePrefixes = (
{
automatic = 1;
code = "languagesystem DFLT dflt;
languagesystem DFLT NAV;

languagesystem latn dflt;
languagesystem latn AZE;
languagesystem latn CRT;
languagesystem latn KAZ;
languagesystem latn TAT;
languagesystem latn TRK;
languagesystem latn ROM;
languagesystem latn MOL;
languagesystem latn MAH;
languagesystem latn NAV;
languagesystem latn NSM;
languagesystem latn TOD0;
languagesystem latn CAT;
languagesystem latn NLD;
";
name = Languagesystems;
}
);
features = (
{
automatic = 1;
code = "feature locl;
feature subs;
feature sinf;
feature sups;
feature numr;
feature dnom;
feature frac;
feature ordn;
feature case;
feature ss01;
feature ss02;
";
tag = aalt;
},
{
code = "lookup ccmp_DFLT_1 {
	lookupflag 0;
	sub acutecomb macroncomb by acutecomb_macroncomb;
	sub brevecomb acutecomb by brevecomb_acutecomb;
	sub brevecomb gravecomb by brevecomb_gravecomb;
	sub brevecomb hookabovecomb by brevecomb_hookabovecomb;
	sub brevecomb tildecomb by brevecomb_tildecomb;

glyphs = (
{
glyphname = A;
kernLeft = KO_A;
kernRight = KO_A;
lastChange = "2024-04-12 00:46:34 +0000";
layers = (
{
anchors = (
{
name = bottom;
pos = (217,0);
},
{
name = ogonek;
pos = (360,0);
},
{
name = top;
pos = (330,726);
}
);
background = {
shapes = (
{
closed = 1;
nodes = (
(323,0,o),
(332,1,o),
(341,4,cs),
(371,13,o),
(465,110,o),
(465,129,cs),
(465,132,o),
(462,134,o),
(457,132,cs),
(450,130,o),
(443,129,o),
(438,129,cs),
(417,129,o),
(405,143,o),
(404,184,cs),
(403,214,l),
(403,238,l),
(427,238,ls),
(439,238,o),
(499,408,o),
(487,408,cs),
(410,408,l),
(413,483,o),
(417,559,o),
(417,617,cs),
(417,678,o),
(413,719,o),
(402,719,cs),
(390,719,o),
(352,696,o),
(319,672,cs),
(231,603,l),
(230,602,ls),
(200,577,o),
(161,536,o),
(158,521,cs),
(135,407,l),
(84,407,ls),
(71,407,o),
(14,237,o),
(24,237,cs),
(102,237,l),
(94,195,l),
(73,190,o),
(54,181,o),
(39,167,cs),
(20,150,o),
(-20,38,o),
(-20,7,cs),
(-20,0,o),
(-17,-3,o),
(-11,3,cs),
(7,19,o),
(38,29,o),
(67,29,cs),
(94,29,o),
(120,20,o),
(134,1,cs),
(147,-17,o),
(200,122,o),
(200,160,cs),
(200,164,o),
(199,167,o),
(198,169,c),
(190,179,o),
(179,187,o),
(166,192,c),
(178,243,l),
(274,242,l),
(273,149,l),
(274,62,ls),
(276,18,o),
(289,0,o),
(315,0,cs)
);
},
{
closed = 1;
nodes = (
(246,526,l),
(275,549,l),
(276,470,l),
(276,391,l),
(214,389,l)
);
}
);
};
layerId = m01;
shapes = (
{
closed = 1;
nodes = (
(323,0,o),
(332,1,o),
(341,4,cs),
(371,13,o),
(465,110,o),
(465,129,cs),
(465,132,o),
(462,134,o),
(457,132,cs),
(450,130,o),
(443,129,o),
(438,129,cs),
(417,129,o),
(405,143,o),
(404,184,cs),
(403,214,l),
(403,238,l),
(427,238,ls),
(439,238,o),
(499,408,o),
(487,408,cs),
(410,408,l),
(413,483,o),
(417,559,o),
(417,617,cs),
(417,678,o),
(413,719,o),
(402,719,cs),
(390,719,o),
(352,696,o),
(319,672,cs),
(231,603,l),
(230,602,ls),
(200,577,o),
(161,536,o),
(158,521,cs),
(135,407,l),
(84,407,ls),
(71,407,o),
(14,237,o),
(24,237,cs),
(102,237,l),
(94,195,l),
(73,190,o),
(54,181,o),
(39,167,cs),
(20,150,o),
(-20,38,o),
(-20,7,cs),
(-20,0,o),
(-17,-3,o),
(-11,3,cs),
(7,19,o),
(38,29,o),
(67,29,cs),
(94,29,o),
(120,20,o),
(134,1,cs),
(147,-17,o),
(200,122,o),
(200,160,cs),
(200,164,o),
(199,167,o),
(198,169,c),
(190,179,o),
(179,187,o),
(166,192,c),
(178,243,l),
(274,242,l),
(273,149,l),
(274,62,ls),
(276,18,o),
(289,0,o),
(315,0,cs)
);
},
{
closed = 1;
nodes = (
(246,526,l),
(275,549,l),
(276,470,l),
(276,391,l),
(214,389,l)
);
}
);
width = 529;
}
);
unicode = 65;
userData = {
KernOnName = A;
};
},
{
glyphname = "Alpha-latin";
lastChange = "2024-04-12 00:46:34 +0000";
layers = (
{
anchors = (
{
name = bottom;
pos = (175,10);
},
{
name = center;
pos = (246,350);
},
{
name = ogonek;
pos = (420,10);
},
{
name = top;
pos = (335,700);
},
{
name = topleft;
pos = (48,700);
},
{
name = topright;
pos = (354,700);
}
);
background = {
anchors = (
{
name = bottom;
pos = (175,10);
},
{
name = center;
pos = (246,350);
},
{
name = ogonek;
pos = (420,10);
},
{
name = top;
pos = (335,700);
},
{
name = topleft;
pos = (48,700);
},
{
name = topright;
pos = (354,700);
}
);
shapes = (
{
closed = 1;
nodes = (
(216,80,o),
(258,32,o),
(262,35,cs),
(319,75,o),
(440,169,o),
(433,321,cs),
(432,328,o),
(387,373,o),
(387,365,cs),
(394,217,o),
(275,123,o),
(220,83,cs)
);
},
{
closed = 1;
nodes = (
(299,574,o),
(336,654,o),
(336,686,cs),
(336,694,o),
(334,699,o),
(328,699,cs),
(322,699,o),
(312,693,o),
(298,680,cs),
(231,614,o),
(20,338,o),
(20,152,cs),
(20,70,o),
(61,5,o),
(175,-15,cs),
(208,-21,o),
(332,87,o),
(332,119,cs),
(332,123,o),
(330,126,o),
(325,127,cs),
(203,149,o),
(166,216,o),
(166,289,cs),
(166,403,o),
(255,532,o),
(256,532,c)
);
},
{
closed = 1;
nodes = (
(576,680,o),
(583,693,o),
(583,698,cs),
(583,715,o),
(522,673,o),
(473,613,cs),
(371,487,o),
(372,444,o),
(365,365,cs),
(356,277,o),
(352,191,o),
(345,106,cs),
(343,77,ls),
(343,34,o),
(353,-14,o),
(391,-14,cs),
(407,-14,o),
(426,-7,o),
(451,11,cs),
(503,47,o),
(574,134,o),
(556,134,cs),
(553,134,o),
(545,130,o),
(533,121,cs),
(524,115,o),
(517,112,o),
(511,112,cs),
(493,112,o),
(487,139,o),
(487,174,cs),
(487,188,o),
(488,202,o),
(489,218,cs),
(497,298,o),
(508,376,o),
(515,453,cs),
(522,524,o),
(527,621,o),
(559,659,cs)
);
},
{
closed = 1;
nodes = (
(466,558,o),
(612,709,o),
(581,707,cs),
(550,704,o),
(522,703,o),
(497,703,cs),
(439,703,o),
(394,708,o),
(363,708,cs),
(346,708,o),
(333,706,o),
(323,703,c),
(292,690,o),
(224,586,o),
(224,556,cs),
(224,549,o),
(228,546,o),
(237,549,c),
(293,549,ls),
(328,549,o),
(377,550,o),
(437,555,cs)
);
}
);
};
layerId = m01;
shapes = (
{
closed = 1;
nodes = (
(191,-18,o),
(231,7,o),
(266,38,c),
(287,53,o),
(317,75,o),
(345,105,c),
(343,77,ls),
(343,34,o),
(353,-14,o),
(391,-14,cs),
(407,-14,o),
(426,-7,o),
(451,11,cs),
(503,47,o),
(574,134,o),
(556,134,cs),
(553,134,o),
(545,130,o),
(533,121,cs),
(524,115,o),
(517,112,o),
(511,112,cs),
(493,112,o),
(487,139,o),
(487,174,cs),
(489,218,ls),
(497,298,o),
(508,376,o),
(515,453,cs),
(522,524,o),
(527,621,o),
(559,659,cs),
(574,677,o),
(581,690,o),
(583,696,cs),
(586,703,o),
(586,707,o),
(581,707,cs),
(550,704,o),
(522,703,o),
(497,703,cs),
(439,703,o),
(394,708,o),
(363,708,cs),
(346,708,o),
(333,706,o),
(323,703,cs),
(312,698,o),
(295,681,o),
(279,660,c),
(198,569,o),
(20,323,o),
(20,152,cs),
(20,70,o),
(61,5,o),
(175,-15,cs)
);
},
{
closed = 1;
nodes = (
(195,165,o),
(166,225,o),
(166,289,cs),
(166,403,o),
(255,532,o),
(256,532,c),
(271,549,l),
(293,549,ls),
(326,549,o),
(372,550,o),
(429,554,c),
(371,471,o),
(371,430,o),
(365,365,cs),
(360,318,o),
(357,271,o),
(354,225,c),
(334,190,o),
(309,160,o),
(285,137,c)
);
}
);
width = 585;
}
);
unicode = 11373;
},
{
color = 3;
glyphname = Aturned;
lastChange = "2024-04-12 00:46:34 +0000";
layers = (
{
anchors = (
{
name = bottom;
pos = (199,-36);
},
{
name = ogonek;
pos = (91,690);
},
{
name = top;
pos = (312,690);
}
);
layerId = m01;
shapes = (
{
closed = 1;
nodes = (
(153,-29,o),
(295,75,o),
(263,75,cs),
(255,75,o),
(253,136,o),
(253,220,cs),
(253,317,o),
(256,444,o),
(256,541,cs),
(255,628,ls),
(253,672,o),
(240,690,o),
(214,690,cs),
(206,690,o),
(197,689,o),
(188,686,cs),
(158,677,o),
(64,580,o),
(64,561,cs),
(64,558,o),
(67,556,o),
(72,558,cs),
(79,560,o),
(86,561,o),
(91,561,cs),
(112,561,o),
(124,547,o),
(125,506,cs),
(126,476,ls),
(126,370,o),
(112,187,o),
(112,73,cs),
(112,12,o),
(116,-29,o),
(127,-29,cs)
);
},
{
closed = 1;
nodes = (
(298,87,ls),
(304,92,o),
(308,127,o),
(308,153,cs),
(308,170,o),
(306,182,o),
(302,179,cs),
(214,110,ls),
(208,105,o),
(204,68,o),
(204,43,cs),
(204,26,o),
(206,15,o),
(210,18,cs)
);
},
{
closed = 1;
nodes = (
(149,282,l),
(160,285,o),
(169,296,o),
(180,298,c),
(341,301,l),
(348,298,o),
(350,286,o),
(358,283,c),
(445,283,ls),
(458,283,o),
(515,453,o),
(505,453,cs),
(418,453,l),
(415,454,o),
(408,447,o),
(404,447,cs),
(234,448,l),
(227,446,o),
(218,452,o),
(212,452,cs),
(209,452,l),
(102,452,ls),
(90,452,o),
(30,282,o),
(42,282,cs)
);
},
{
closed = 1;
nodes = (
(256,41,o),
(365,143,o),
(371,169,cs),
(404,321,o),
(429,473,o),
(462,625,cs),
(463,631,o),
(461,633,o),
(457,633,cs),
(439,633,o),
(383,588,o),
(378,565,cs),
(342,401,o),
(298,238,o),
(263,75,cs)
);
},
{
closed = 1;
nodes = (
(434,491,o),
(467,502,o),
(490,523,cs),
(509,540,o),
(549,652,o),
(549,683,cs),
(549,690,o),
(546,693,o),
(540,687,cs),
(522,671,o),
(491,661,o),
(462,661,cs),
(435,661,o),
(409,670,o),
(395,689,cs),
(382,707,o),
(329,568,o),
(329,530,cs),
(329,526,o),
(330,523,o),
(331,521,cs),
(346,501,o),
(373,491,o),
(403,491,cs)
);
}
);
width = 529;
}
);
metricLeft = "=|A";
metricRight = "=|A";
unicode = 11375;
},
{
glyphname = AE;
kernLeft = KO_AE;
kernRight = KO_AE;
lastChange = "2024-04-12 00:46:34 +0000";
layers = (
{
anchors = (
{
name = bottom;
pos = (378,0);
},
{
name = top;
pos = (485,729);
}
);
background = {
anchors = (
{
name = bottom;
pos = (454,1);
},
{
name = ogonek;
pos = (653,0);
},
{
name = top;
pos = (584,700);
},
{
name = topleft;
pos = (309,700);
}
);
};
layerId = m01;
shapes = (
{
closed = 1;
nodes = (
(99,57,o),
(153,99,o),
(161,123,cs),
(216,294,o),
(278,463,o),
(334,634,c),
(335,639,o),
(334,642,o),
(331,642,cs),
(314,642,o),
(236,573,o),
(226,542,cs),
(175,384,o),
(129,225,o),
(77,67,cs),
(75,60,o),
(77,57,o),
(82,57,cs)
);
},
{
closed = 1;
nodes = (
(157,-17,o),
(210,122,o),
(210,160,cs),
(210,164,o),
(209,167,o),
(208,169,cs),
(193,189,o),
(166,199,o),
(136,199,cs),
(105,199,o),
(72,188,o),
(49,167,cs),
(30,150,o),
(-10,38,o),
(-10,7,cs),
(-10,0,o),
(-7,-3,o),
(-1,3,cs),
(17,19,o),
(48,29,o),
(77,29,cs),
(104,29,o),
(130,20,o),
(144,1,cs)
);
},
{
closed = 1;
nodes = (
(132,238,l),
(133,236,o),
(133,247,o),
(136,243,c),
(325,242,ls),
(336,242,o),
(389,392,o),
(379,392,cs),
(198,389,l),
(195,393,o),
(197,402,o),
(193,407,c),
(193,408,o),
(193,408,o),
(192,408,cs),
(105,408,ls),
(92,408,o),
(35,238,o),
(45,238,cs)
);
},
{
closed = 1;
nodes = (
(526,-3,o),
(545,1,o),
(567,12,cs),
(596,26,o),
(674,129,o),
(674,150,cs),
(674,154,o),
(671,155,o),
(665,152,cs),
(650,145,o),
(636,142,o),
(622,142,cs),
(595,142,o),
(567,154,o),
(537,169,cs),
(509,183,o),
(483,191,o),
(456,191,cs),
(426,191,o),
(395,181,o),
(362,158,cs),
(330,136,o),
(293,54,o),
(293,19,cs),
(293,10,o),
(296,4,o),
(302,4,cs),
(305,4,o),
(310,6,o),
(316,10,cs),
(337,24,o),
(357,34,o),
(380,34,cs),
(394,34,o),
(410,30,o),
(427,21,cs),
(455,7,o),
(480,-3,o),
(508,-3,cs)
);
},
{
closed = 1;
nodes = (
(318,-2,o),
(367,75,o),
(373,137,cs),
(391,314,o),
(410,472,o),
(427,635,cs),
(428,640,o),
(425,642,o),
(421,642,cs),
(402,642,o),
(345,597,o),
(343,575,cs),
(324,390,o),
(307,200,o),
(289,29,cs),
(287,7,o),
(291,-2,o),
(298,-2,cs)
);
},
{
closed = 1;
nodes = (
(619,269,ls),
(636,269,o),
(683,392,o),
(683,429,cs),
(683,435,o),
(682,439,o),
(679,439,cs),
(386,438,ls),
(368,438,o),
(322,314,o),
(322,278,cs),
(322,272,o),
(323,268,o),
(326,268,cs)
);
},
{
closed = 1;
nodes = (
(407,604,ls),
(413,608,o),
(417,635,o),
(417,659,cs),
(417,681,o),
(414,700,o),
(407,696,cs),
(305,628,ls),
(299,624,o),
(295,588,o),
(295,562,cs),
(295,546,o),
(297,533,o),
(301,536,cs)
);
},
{
closed = 1;
nodes = (
(379,534,o),
(403,536,o),
(432,536,cs),
(480,536,o),
(540,529,o),
(592,529,cs),
(624,529,o),
(653,532,o),
(673,541,cs),
(691,548,o),
(725,662,o),
(725,701,cs),
(725,710,o),
(723,715,o),
(719,713,cs),
(700,705,o),
(674,702,o),
(644,702,cs),
(594,702,o),
(534,710,o),
(485,710,cs),
(453,710,o),
(426,707,o),
(408,697,cs),
(390,686,o),
(357,574,o),
(357,536,cs),
(357,527,o),
(359,522,o),
(364,525,cs)
);
}
);
width = 755;
}
);
unicode = 198;
},
{
color = 0;
glyphname = B;
kernLeft = KO_B;
kernRight = KO_B;
lastChange = "2024-04-12 00:46:34 +0000";
layers = (
{
anchors = (
{
name = bottom;
pos = (185,0);
},
{
name = center;
pos = (245,350);
},
{
name = left;
pos = (128,596);
},
{
name = top;
pos = (245,700);
}
);
background = {
anchors = (
{
name = bottom;
pos = (185,0);
},
{
name = center;
pos = (245,350);
},
{
name = left;
pos = (128,596);
},
{
name = top;
pos = (245,700);
}
);
shapes = (
{
closed = 1;
nodes = (
(290,-3,o),
(413,143,o),
(390,147,cs),
(258,172,o),
(173,184,o),
(118,184,cs),
(81,184,o),
(57,179,o),
(41,168,cs),
(22,155,o),
(-20,39,o),
(-20,7,cs),
(-20,0,o),
(-18,-3,o),
(-13,0,cs),
(-9,3,o),
(26,18,o),
(103,18,cs),
(145,18,o),
(200,14,o),
(270,1,cs)
);
},
{
closed = 1;
nodes = (
(165,602,o),
(161,606,o),
(154,606,cs),
(133,606,o),
(79,560,o),
(73,529,cs),
(55,425,o),
(28,118,o),
(26,106,c),
(26,98,o),
(29,94,o),
(35,94,cs),
(56,94,o),
(111,143,o),
(114,172,c),
(114,172,o),
(147,501,o),
(163,591,cs)
);
},
{
closed = 1;
nodes = (
(234,316,o),
(225,296,o),
(225,284,cs),
(225,275,o),
(230,270,o),
(238,270,cs),
(254,270,o),
(281,286,o),
(312,322,cs),
(396,421,o),
(429,497,o),
(429,555,cs),
(429,661,o),
(319,703,o),
(185,703,cs),
(155,703,o),
(125,699,o),
(103,684,cs),
(107,687,o),
(14,531,o),
(14,531,cs),
(49,547,o),
(83,551,o),
(144,551,cs),
(256,551,o),
(302,507,o),
(302,445,cs),
(302,414,o),
(288,379,o),
(256,342,cs)
);
},
{
closed = 1;
nodes = (
(109,484,o),
(60,356,o),
(60,319,cs),
(60,314,o),
(61,310,o),
(63,309,cs),
(284,240,o),
(338,203,o),
(338,173,cs),
(338,159,o),
(326,146,o),
(314,132,cs),
(285,98,o),
(273,70,o),
(273,54,cs),
(273,44,o),
(278,38,o),
(287,38,cs),
(302,38,o),
(328,54,o),
(360,92,cs),
(433,180,o),
(464,242,o),
(464,289,cs),
(464,395,o),
(307,421,o),
(125,479,cs)
);
}
);
};
layerId = m01;
shapes = (
{
closed = 1;
nodes = (
(-9,3,o),
(26,18,o),
(103,18,cs),
(145,18,o),
(200,14,o),
(270,1,cs),
(285,-2,o),
(356,78,o),
(383,121,c),
(440,194,o),
(464,247,o),
(464,289,cs),
(464,340,o),
(428,372,o),
(370,399,c),
(412,462,o),
(429,513,o),
(429,555,cs),
(429,661,o),
(319,703,o),
(185,703,cs),
(155,703,o),
(125,699,o),
(103,684,cs),
(107,687,o),
(14,531,o),
(14,531,c),
(35,541,o),
(55,546,o),
(81,549,c),
(77,542,o),
(74,535,o),
(73,529,cs),
(59,449,o),
(40,249,o),
(31,156,c),
(10,122,o),
(-20,34,o),
(-20,7,cs),
(-20,0,o),
(-18,-3,o),
(-13,0,cs)
);
},
{
closed = 1;
nodes = (
(233,175,o),
(165,184,o),
(118,184,cs),
(115,184,l),
(126,289,l),
(295,232,o),
(338,200,o),
(338,173,cs),
(338,168,o),
(336,163,o),
(333,157,c)
);
},
{
closed = 1;
nodes = (
(254,441,o),
(202,455,o),
(147,472,c),
(157,551,l),
(260,548,o),
(302,505,o),
(302,445,cs),
(302,439,o),
(301,432,o),
(300,425,c)
);
}
);
width = 493;
}
);
unicode = 66;
userData = {
KernOnName = B;
};
},
{
color = 0;
glyphname = Bhook;
kernRight = KO_Bhook;
lastChange = "2024-04-12 00:46:34 +0000";
layers = (
{
anchors = (
{
name = bottom;
pos = (435,0);
},
{
name = center;
pos = (435,350);
},
{
name = left;
pos = (318,596);
},
{
name = top;
pos = (435,700);
}
);
background = {
shapes = (
{
closed = 1;
nodes = (
(480,-3,o),
(603,143,o),
(580,147,cs),
(448,172,o),
(356,184,o),
(295,184,cs),
(254,184,o),
(227,179,o),
(211,168,cs),
(192,155,o),
(150,39,o),
(150,7,cs),
(150,0,o),
(152,-3,o),
(157,0,cs),
(161,3,o),
(204,18,o),
(287,18,cs),
(333,18,o),
(390,14,o),
(460,1,cs)
);
},
{
closed = 1;
nodes = (
(423,313,o),
(414,295,o),
(414,283,cs),
(414,275,o),
(419,270,o),
(428,270,cs),
(444,270,o),
(474,288,o),
(505,326,cs),
(598,440,o),
(633,525,o),
(633,585,cs),
(633,667,o),
(568,702,o),
(491,702,cs),
(458,702,o),
(423,695,o),
(390,683,cs),
(365,673,o),
(271,524,o),
(302,535,cs),
(347,552,o),
(386,560,o),
(416,560,cs),
(477,560,o),
(509,529,o),
(509,482,cs),
(509,443,o),
(487,392,o),
(443,338,cs)
);
},
{
closed = 1;
nodes = (
(299,484,o),
(250,356,o),
(250,319,cs),
(250,314,o),
(251,310,o),
(253,309,cs),
(474,240,o),
(528,203,o),
(528,173,cs),
(528,159,o),
(516,146,o),
(504,132,cs),
(475,98,o),
(463,70,o),
(463,54,cs),
(463,44,o),
(468,38,o),
(477,38,cs),
(492,38,o),
(518,54,o),
(550,92,cs),
(623,180,o),
(654,242,o),
(654,289,cs),
(654,395,o),
(497,421,o),
(315,479,cs)
);
},
{
closed = 1;
nodes = (
(206,47,o),
(209,44,o),
(214,44,cs),
(237,44,o),
(308,111,o),
(311,140,cs),
(335,373,o),
(373,657,o),
(371,661,c),
(364,670,o),
(265,593,o),
(271,583,c),
(273,581,o),
(231,287,o),
(207,54,cs)
);
},
{
closed = 1;
nodes = (
(289,544,o),
(408,666,o),
(379,666,cs),
(317,666,o),
(271,726,o),
(271,793,cs),
(271,799,o),
(271,804,o),
(272,810,cs),
(276,844,o),
(154,729,o),
(150,698,cs),
(149,691,o),
(149,685,o),
(149,678,cs),
(149,606,o),
(196,544,o),
(265,544,cs)
);
},
{
closed = 1;
nodes = (
(480,-3,o),
(603,143,o),
(580,147,cs),
(448,172,o),
(356,184,o),
(295,184,cs),
(254,184,o),
(227,179,o),
(211,168,cs),
(192,155,o),
(150,39,o),
(150,7,cs),
(150,0,o),
(152,-3,o),
(157,0,cs),
(161,3,o),
(204,18,o),
(287,18,cs),
(333,18,o),
(390,14,o),
(460,1,cs)
);
},
{
closed = 1;
nodes = (
(423,313,o),
(414,295,o),
(414,283,cs),
(414,275,o),
(419,270,o),
(428,270,cs),
(444,270,o),
(474,288,o),
(505,326,cs),
(598,440,o),
(633,525,o),
(633,585,cs),
(633,667,o),
(568,702,o),
(491,702,cs),
(458,702,o),
(377,690,o),
(344,678,cs),
(238,635,o),
(271,531,o),
(296,546,cs),
(336,571,o),
(386,560,o),
(416,560,cs),
(477,560,o),
(509,529,o),
(509,482,cs),
(509,443,o),
(487,392,o),
(443,338,cs)
);
},
{
closed = 1;
nodes = (
(299,484,o),
(250,356,o),
(250,319,cs),
(250,314,o),
(251,310,o),
(253,309,cs),
(474,240,o),
(528,203,o),
(528,173,cs),
(528,159,o),
(516,146,o),
(504,132,cs),
(475,98,o),
(463,70,o),
(463,54,cs),
(463,44,o),
(468,38,o),
(477,38,cs),
(492,38,o),
(518,54,o),
(550,92,cs),
(623,180,o),
(654,242,o),
(654,289,cs),
(654,395,o),
(497,421,o),
(315,479,cs)
);
},
{
closed = 1;
nodes = (
(206,47,o),
(209,44,o),
(214,44,cs),
(237,44,o),
(308,111,o),
(311,140,cs),
(335,373,o),
(337,652,o),
(335,656,c),
(328,665,o),
(271,605,o),
(271,583,c),
(268,560,o),
(231,287,o),
(207,54,cs)
);
},
{
closed = 1;
nodes = (
(362,702,o),
(274,678,o),
(255,672,cs),
(46,612,o),
(-41,507,o),
(-41,435,cs),
(-41,374,o),
(-12,323,o),
(31,323,cs),
(45,323,o),
(60,325,o),
(77,328,cs),
(96,331,o),
(251,413,o),
(195,440,cs),
(180,447,o),
(166,446,o),
(153,446,cs),
(134,446,o),
(104,452,o),
(104,496,cs),
(104,591,o),
(275,638,o),
(390,667,cs),
(455,683,o),
(502,702,o),
(491,702,cs)
);
}
);
};
layerId = m01;
shapes = (
{
closed = 1;
nodes = (
(510,38,o),
(536,54,o),
(568,92,cs),
(641,180,o),
(672,242,o),
(672,289,cs),
(672,395,o),
(515,421,o),
(333,479,cs),
(317,484,o),
(268,356,o),
(268,319,cs),
(268,314,o),
(269,310,o),
(271,309,cs),
(492,240,o),
(546,203,o),
(546,173,cs),
(546,159,o),
(534,146,o),
(522,132,cs),
(493,98,o),
(481,70,o),
(481,54,cs),
(481,44,o),
(486,38,o),
(495,38,cs)
);
},
{
closed = 1;
nodes = (
(199,3,o),
(234,18,o),
(311,18,cs),
(353,18,o),
(408,14,o),
(478,1,cs),
(498,-3,o),
(621,143,o),
(598,147,cs),
(466,172,o),
(381,184,o),
(326,184,cs),
(289,184,o),
(265,179,o),
(249,168,cs),
(230,155,o),
(188,39,o),
(188,7,cs),
(188,0,o),
(190,-3,o),
(195,0,cs)
);
},
{
closed = 1;
nodes = (
(112,351,o),
(233,443,o),
(233,511,cs),
(233,516,o),
(231,519,o),
(227,519,cs),
(222,519,o),
(213,514,o),
(203,504,cs),
(188,491,o),
(166,485,o),
(147,485,cs),
(114,485,o),
(85,502,o),
(85,547,cs),
(85,557,o),
(86,579,o),
(103,594,cs),
(108,598,o),
(111,612,o),
(111,615,cs),
(111,619,o),
(92,612,o),
(91,609,c),
(72,589,o),
(27,537,o),
(11,483,cs),
(4,459,o),
(0,438,o),
(0,419,cs),
(0,373,o),
(23,351,o),
(56,351,cs)
);
},
{
closed = 1;
nodes = (
(264,94,o),
(319,143,o),
(322,172,c),
(322,172,o),
(355,501,o),
(371,591,cs),
(373,602,o),
(369,606,o),
(362,606,cs),
(341,606,o),
(287,560,o),
(281,529,cs),
(263,425,o),
(236,118,o),
(234,106,c),
(234,98,o),
(237,94,o),
(243,94,cs)
);
},
{
closed = 1;
nodes = (
(350,568,o),
(416,703,o),
(393,703,cs),
(328,703,ls),
(253,703,o),
(180,698,o),
(91,609,cs),
(61,579,o),
(103,585,o),
(120,585,cs),
(214,585,o),
(299,568,o),
(326,568,cs)
);
},
{
closed = 1;
nodes = (
(462,270,o),
(489,286,o),
(520,322,cs),
(604,421,o),
(637,497,o),
(637,555,cs),
(637,661,o),
(527,703,o),
(393,703,cs),
(363,703,o),
(333,699,o),
(311,684,cs),
(315,687,o),
(255,585,o),
(255,585,c),
(290,601,o),
(294,563,o),
(355,563,cs),
(467,563,o),
(510,507,o),
(510,445,cs),
(510,414,o),
(496,379,o),
(464,342,cs),
(442,316,o),
(433,296,o),
(433,284,cs),
(433,275,o),
(438,270,o),
(446,270,cs)
);
}
);
width = 683;
}
);
unicode = 385;
},
{
color = 0;
glyphname = Bstroke;
kernRight = KO_B;
lastChange = "2024-04-12 00:46:34 +0000";
layers = (
{
anchors = (
{
name = bottom;
pos = (267,0);
},
{
name = center;
pos = (327,350);
},
{
name = left;
pos = (210,596);
},
{
name = top;
pos = (210,319);
}
);
layerId = m01;
shapes = (
{
closed = 1;
nodes = (
(384,38,o),
(410,54,o),
(442,92,cs),
(515,180,o),
(546,242,o),
(546,289,cs),
(546,395,o),
(389,421,o),
(207,479,cs),
(191,484,o),
(142,356,o),
(142,319,cs),
(142,314,o),
(143,310,o),
(145,309,cs),
(366,240,o),
(420,203,o),
(420,173,cs),
(420,159,o),
(408,146,o),
(396,132,cs),
(367,98,o),
(355,70,o),
(355,54,cs),
(355,44,o),
(360,38,o),
(369,38,cs)
);
},
{
closed = 1;
nodes = (
(143,151,ls),
(160,151,o),
(207,274,o),
(207,311,cs),
(207,317,o),
(206,321,o),
(203,321,cs),
(64,319,ls),
(46,319,o),
(0,195,o),
(0,159,cs),
(0,153,o),
(1,149,o),
(4,149,cs)
);
},
{
closed = 1;
nodes = (
(73,3,o),
(108,18,o),
(185,18,cs),
(227,18,o),
(282,14,o),
(352,1,cs),
(372,-3,o),
(495,143,o),
(472,147,cs),
(340,172,o),
(255,184,o),
(200,184,cs),
(163,184,o),
(139,179,o),
(123,168,cs),
(104,155,o),
(62,39,o),
(62,7,cs),
(62,0,o),
(64,-3,o),
(69,0,cs)
);
},
{
closed = 1;
nodes = (
(138,94,o),
(193,143,o),
(196,172,c),
(196,172,o),
(229,501,o),
(245,591,cs),
(247,602,o),
(243,606,o),
(236,606,cs),
(215,606,o),
(161,560,o),
(155,529,cs),
(137,425,o),
(110,118,o),
(108,106,c),
(108,98,o),
(111,94,o),
(117,94,cs)
);
},
{
closed = 1;
nodes = (
(336,270,o),
(363,286,o),
(394,322,cs),
(478,421,o),
(511,497,o),
(511,555,cs),
(511,661,o),
(401,703,o),
(267,703,cs),
(237,703,o),
(207,699,o),
(185,684,cs),
(189,687,o),
(96,531,o),
(96,531,c),
(131,547,o),
(165,551,o),
(226,551,cs),
(338,551,o),
(384,507,o),
(384,445,cs),
(384,414,o),
(370,379,o),
(338,342,cs),
(316,316,o),
(307,296,o),
(307,284,cs),
(307,275,o),
(312,270,o),
(320,270,cs)
);
}
);
width = 575;
}
);
unicode = 579;
},
{
color = 2;
glyphname = C;
kernLeft = KO_C;
kernRight = KO_C;
lastChange = "2024-04-12 00:46:34 +0000";
layers = (
{
anchors = (
{
name = bottom;
pos = (178,0);
},
{
name = top;
pos = (386,722);
}
);
background = {
anchors = (
{
name = bottom;
pos = (178,0);
},
{
name = top;
pos = (386,722);
}
);
shapes = (
{
closed = 1;
nodes = (
(361,666,o),
(364,672,o),
(364,675,cs),
(364,677,o),
(363,678,o),
(360,678,cs),
(341,678,o),
(261,632,o),
(224,593,cs),
(67,430,o),
(10,251,o),
(10,159,cs),
(10,43,o),
(99,-16,o),
(190,-16,cs),
(238,-16,o),
(287,1,o),
(323,35,cs),
(353,63,o),
(419,218,o),
(402,218,cs),
(401,218,o),
(398,216,o),
(395,213,cs),
(357,177,o),
(308,159,o),
(263,159,cs),
(202,159,o),
(150,193,o),
(150,266,cs),
(150,389,o),
(202,502,o),
(352,657,cs)
);
},
{
closed = 1;
nodes = (
(363,465,o),
(490,592,o),
(481,610,cs),
(468,635,o),
(439,697,o),
(381,697,cs),
(351,697,o),
(314,680,o),
(269,634,cs),
(217,582,o),
(183,514,o),
(200,514,cs),
(206,514,o),
(218,522,o),
(237,542,cs),
(245,549,o),
(254,553,o),
(265,553,cs),
(294,553,o),
(332,525,o),
(353,484,cs)
);
}
);
};
guides = (
{
pos = (683,541);
}
);
layerId = m01;
shapes = (
{
closed = 1;
nodes = (
(238,-16,o),
(287,1,o),
(323,35,cs),
(353,63,o),
(419,218,o),
(402,218,cs),
(401,218,o),
(398,216,o),
(395,213,cs),
(357,177,o),
(308,159,o),
(263,159,cs),
(202,159,o),
(150,193,o),
(150,266,cs),
(150,360,o),
(180,448,o),
(261,553,c),
(265,553,ls),
(294,553,o),
(332,525,o),
(353,484,cs),
(363,465,o),
(490,592,o),
(481,610,cs),
(468,635,o),
(439,697,o),
(381,697,cs),
(351,697,o),
(314,680,o),
(269,634,cs),
(258,623,l),
(245,613,o),
(233,603,o),
(224,593,cs),
(67,430,o),
(10,251,o),
(10,159,cs),
(10,43,o),
(99,-16,o),
(190,-16,cs)
);
}
);
width = 456;
}
);
unicode = 67;
userData = {
KernOnName = C;
};
},
{
color = 0;
glyphname = Chook;
lastChange = "2024-04-12 00:46:34 +0000";
layers = (
{
anchors = (
{
name = bottom;
pos = (178,0);
},
{
name = top;
pos = (350,711);
}
);
layerId = m01;
shapes = (
{
closed = 1;
nodes = (
(238,-16,o),
(287,1,o),
(323,35,cs),
(353,63,o),
(419,218,o),
(402,218,cs),
(401,218,o),
(398,216,o),
(395,213,cs),
(357,177,o),
(308,159,o),
(263,159,cs),
(202,159,o),
(150,193,o),
(150,266,cs),
(150,339,o),
(202,452,o),
(352,607,cs),
(361,616,o),
(364,622,o),
(364,625,cs),
(364,627,o),
(363,624,o),
(360,624,cs),
(341,624,o),
(261,582,o),
(224,543,cs),
(67,380,o),
(10,251,o),
(10,159,cs),
(10,43,o),
(99,-16,o),
(190,-16,cs)
);
},
{
closed = 1;
nodes = (
(358,393,o),
(485,520,o),
(476,538,cs),
(463,563,o),
(434,625,o),
(376,625,cs),
(346,625,o),
(309,608,o),
(264,562,cs),
(212,510,o),
(178,442,o),
(195,442,cs),
(201,442,o),
(213,450,o),
(232,470,cs),
(240,477,o),
(249,481,o),
(260,481,cs),
(289,481,o),
(327,453,o),
(348,412,cs)
);
},
{
closed = 1;
nodes = (
(307,575,l),
(296,637,o),
(316,699,o),
(384,759,cs),
(401,773,o),
(418,787,o),
(418,796,cs),
(418,803,o),
(413,807,o),
(404,807,cs),
(393,807,o),
(375,800,o),
(356,782,cs),
(220,662,o),
(255,587,o),
(253,535,c)
);
},
{
closed = 1;
nodes = (
(458,619,o),
(601,759,o),
(590,777,cs),
(575,802,o),
(545,860,o),
(486,860,cs),
(458,860,o),
(423,847,o),
(380,810,cs),
(331,769,o),
(264,663,o),
(284,663,cs),
(288,663,o),
(296,667,o),
(308,678,cs),
(330,696,o),
(349,704,o),
(366,704,cs),
(403,704,o),
(429,668,o),
(448,637,cs)
);
}
);
width = 425;
}
);
unicode = 391;
},
{
glyphname = D;
kernLeft = KO_D;
kernRight = KO_D;
lastChange = "2024-04-12 00:46:34 +0000";
layers = (
{
anchors = (
{
name = bottom;
pos = (178,0);
},
{
name = center;
pos = (113,330);
},
{
name = top;
pos = (269,710);
}
);
background = {
anchors = (
{
name = bottom;
pos = (178,0);
},
{
name = center;
pos = (113,330);
},
{
name = top;
pos = (269,710);
}
);
shapes = (
{
closed = 1;
nodes = (
(97,722,o),
(47,592,o),
(47,555,cs),
(47,549,o),
(48,546,o),
(51,545,cs),
(291,478,o),
(363,351,o),
(363,243,cs),
(363,194,o),
(348,149,o),
(328,115,cs),
(317,98,o),
(313,85,o),
(313,76,cs),
(313,65,o),
(319,60,o),
(327,60,cs),
(341,60,o),
(365,76,o),
(386,111,cs),
(434,189,o),
(458,269,o),
(458,344,cs),
(458,509,o),
(343,653,o),
(113,717,cs)
);
},
{
closed = 1;
nodes = (
(47,72,o),
(68,58,o),
(89,58,cs),
(108,58,o),
(127,70,o),
(128,95,cs),
(136,258,o),
(156,474,o),
(156,579,cs),
(156,612,o),
(154,634,o),
(150,641,c),
(141,651,o),
(131,656,o),
(120,656,cs),
(98,656,o),
(77,638,o),
(77,616,cs),
(77,608,o),
(80,600,o),
(86,591,c),
(87,591,o),
(61,358,o),
(48,99,cs)
);
},
{
closed = 1;
nodes = (
(299,-18,o),
(391,92,o),
(391,126,cs),
(391,131,o),
(389,135,o),
(383,135,c),
(236,151,o),
(164,169,o),
(119,169,cs),
(96,169,o),
(80,164,o),
(65,152,cs),
(46,137,o),
(5,23,o),
(5,-8,cs),
(5,-16,o),
(7,-19,o),
(13,-14,cs),
(21,-8,o),
(36,-2,o),
(85,-2,cs),
(123,-2,o),
(181,-6,o),
(271,-15,cs)
);
}
);
};
layerId = m01;
shapes = (
{
closed = 1;
nodes = (
(297,-18,o),
(377,75,o),
(389,116,c),
(435,193,o),
(458,271,o),
(458,344,cs),
(458,509,o),
(343,653,o),
(113,717,cs),
(97,722,o),
(47,592,o),
(47,555,cs),
(47,549,o),
(48,546,o),
(51,545,cs),
(81,536,l),
(73,457,o),
(59,300,o),
(50,129,c),
(30,90,o),
(5,16,o),
(5,-8,cs),
(5,-16,o),
(7,-19,o),
(13,-14,cs),
(21,-8,o),
(36,-2,o),
(85,-2,cs),
(123,-2,o),
(181,-6,o),
(271,-15,cs)
);
},
{
closed = 1;
nodes = (
(234,153,o),
(173,166,o),
(132,169,c),
(139,285,o),
(150,414,o),
(154,508,c),
(312,438,o),
(363,334,o),
(363,243,cs),
(363,205,o),
(354,170,o),
(341,140,c)
);
}
);
width = 502;
}
);
unicode = 68;
userData = {
KernOnName = D;
};
},
{
color = 0;
glyphname = Dhook;
lastChange = "2024-04-12 00:46:34 +0000";
layers = (
{
anchors = (
{
name = bottom;
pos = (289,0);
},
{
name = center;
pos = (164,330);
},
{
name = top;
pos = (289,700);
}
);
layerId = m01;
shapes = (
{
closed = 1;
nodes = (
(389,60,o),
(413,76,o),
(434,111,cs),
(486,195,o),
(513,291,o),
(513,380,cs),
(513,534,o),
(432,670,o),
(252,698,cs),
(234,701,o),
(137,558,o),
(158,555,cs),
(361,524,o),
(415,380,o),
(415,266,cs),
(415,207,o),
(398,152,o),
(376,115,cs),
(365,98,o),
(361,85,o),
(361,76,cs),
(361,65,o),
(367,60,o),
(375,60,cs)
);
},
{
closed = 1;
nodes = (
(347,-3,o),
(439,107,o),
(439,141,cs),
(439,146,o),
(437,150,o),
(431,150,c),
(284,166,o),
(212,184,o),
(167,184,cs),
(144,184,o),
(128,179,o),
(113,167,cs),
(94,152,o),
(53,38,o),
(53,7,cs),
(53,-1,o),
(55,-4,o),
(61,1,cs),
(69,7,o),
(84,13,o),
(133,13,cs),
(171,13,o),
(229,9,o),
(319,0,cs)
);
},
{
closed = 1;
nodes = (
(-37,327,o),
(84,419,o),
(84,487,cs),
(84,492,o),
(82,495,o),
(78,495,cs),
(73,495,o),
(64,490,o),
(54,480,cs),
(39,467,o),
(17,461,o),
(-2,461,cs),
(-35,461,o),
(-64,478,o),
(-64,523,cs),
(-64,533,o),
(-63,555,o),
(-46,570,cs),
(-41,574,o),
(-38,588,o),
(-38,591,cs),
(-38,595,o),
(-57,588,o),
(-58,585,c),
(-77,565,o),
(-122,513,o),
(-138,459,cs),
(-145,435,o),
(-149,414,o),
(-149,395,cs),
(-149,349,o),
(-126,327,o),
(-93,327,cs)
);
},
{
closed = 1;
nodes = (
(92,44,o),
(163,111,o),
(166,140,cs),
(190,373,o),
(228,657,o),
(226,661,c),
(219,670,o),
(120,593,o),
(126,583,c),
(128,581,o),
(86,287,o),
(62,54,cs),
(61,47,o),
(64,44,o),
(69,44,cs)
);
},
{
closed = 1;
nodes = (
(175,532,o),
(273,690,o),
(252,698,cs),
(228,707,o),
(192,704,o),
(173,704,cs),
(90,704,o),
(31,674,o),
(-58,585,cs),
(-88,555,o),
(-31,569,o),
(21,569,cs),
(126,569,o),
(138,553,o),
(157,542,cs)
);
}
);
width = 557;
}
);
unicode = 394;
},
{
glyphname = E;
kernLeft = KO_E;
kernRight = KO_E;
lastChange = "2024-04-12 00:46:34 +0000";
layers = (
{
anchors = (
{
name = bottom;
pos = (198,-6);
},
{
name = ogonek;
pos = (407,0);
},
{
name = top;
pos = (325,718);
},
{
name = topleft;
pos = (39,700);
}
);
background = {
anchors = (
{
name = bottom;
pos = (198,-6);
},
{
name = ogonek;
pos = (407,0);
},
{
name = top;
pos = (325,718);
},
{
name = topleft;
pos = (39,700);
}
);
shapes = (
{
closed = 1;
nodes = (
(195,640,o),
(192,642,o),
(188,642,cs),
(169,642,o),
(112,597,o),
(110,575,cs),
(91,386,o),
(59,197,o),
(40,6,cs),
(39,-6,o),
(45,-8,o),
(50,-8,cs),
(53,-8,o),
(57,-7,o),
(58,-7,c),
(87,5,o),
(105,15,o),
(129,15,cs),
(143,15,o),
(158,12,o),
(179,4,cs),
(199,-4,o),
(230,-13,o),
(265,-13,cs),
(281,-13,o),
(298,-11,o),
(315,-6,cs),
(344,2,o),
(451,146,o),
(417,136,cs),
(404,132,o),
(390,131,o),
(376,131,cs),
(341,131,o),
(306,140,o),
(285,148,cs),
(266,156,o),
(248,159,o),
(230,159,cs),
(200,159,o),
(171,150,o),
(138,137,c),
(156,124,l),
(173,293,o),
(177,464,o),
(194,635,cs)
);
},
{
closed = 1;
nodes = (
(88,438,o),
(42,314,o),
(42,278,cs),
(42,272,o),
(43,268,o),
(46,268,cs),
(369,269,ls),
(386,269,o),
(433,392,o),
(433,429,cs),
(433,435,o),
(432,439,o),
(429,439,cs),
(106,438,ls)
);
},
{
closed = 1;
nodes = (
(452,542,o),
(485,654,o),
(485,690,cs),
(485,700,o),
(483,705,o),
(477,700,cs),
(467,693,o),
(447,690,o),
(421,690,cs),
(367,690,o),
(288,702,o),
(221,702,cs),
(176,702,o),
(137,696,o),
(115,678,cs),
(97,663,o),
(66,553,o),
(66,517,cs),
(66,508,o),
(68,504,o),
(73,508,cs),
(92,523,o),
(125,528,o),
(165,528,cs),
(228,528,o),
(306,516,o),
(364,516,cs),
(395,516,o),
(421,519,o),
(435,530,cs)
);
}
);
};
layerId = m01;
shapes = (
{
closed = 1;
nodes = (
(281,-13,o),
(298,-11,o),
(315,-6,cs),
(344,2,o),
(451,146,o),
(417,136,cs),
(404,132,o),
(390,131,o),
(376,131,cs),
(341,131,o),
(306,140,o),
(285,148,cs),
(266,156,o),
(248,159,o),
(230,159,cs),
(206,159,o),
(183,153,o),
(158,145,c),
(168,268,l),
(369,269,ls),
(386,269,o),
(433,392,o),
(433,429,cs),
(433,435,o),
(432,439,o),
(429,439,cs),
(179,438,l),
(185,528,l),
(244,526,o),
(312,516,o),
(364,516,cs),
(395,516,o),
(421,519,o),
(435,530,cs),
(452,542,o),
(485,654,o),
(485,690,cs),
(485,700,o),
(483,705,o),
(477,700,cs),
(467,693,o),
(447,690,o),
(421,690,cs),
(367,690,o),
(288,702,o),
(221,702,cs),
(176,702,o),
(137,696,o),
(115,678,cs),
(97,663,o),
(66,553,o),
(66,517,cs),
(66,508,o),
(68,504,o),
(73,508,cs),
(81,514,o),
(92,519,o),
(104,522,c),
(93,425,l),
(72,393,o),
(42,307,o),
(42,278,cs),
(42,272,o),
(43,268,o),
(46,268,cs),
(72,268,l),
(60,181,o),
(49,94,o),
(40,6,cs),
(39,-6,o),
(45,-8,o),
(50,-8,cs),
(53,-8,o),
(57,-7,o),
(58,-7,c),
(87,5,o),
(105,15,o),
(129,15,cs),
(143,15,o),
(158,12,o),
(179,4,cs),
(199,-4,o),
(230,-13,o),
(265,-13,cs)
);
}
);
width = 505;
}
);
unicode = 69;
userData = {
KernOnName = E;
};
},
{
color = 0;
glyphname = Eopen;
kernRight = KO_Eopen;
lastChange = "2024-04-12 00:46:34 +0000";
layers = (
{
anchors = (
{
name = bottom;
pos = (177,0);
},
{
name = top;
pos = (287,690);
}
);
background = {
shapes = (
{
closed = 1;
nodes = (
(294,465,o),
(293,462,o),
(293,459,cs),
(293,457,o),
(294,456,o),
(296,456,cs),
(313,456,o),
(399,534,o),
(420,574,cs),
(425,586,o),
(428,599,o),
(428,613,cs),
(428,662,o),
(394.001,715,o),
(332,715,cs),
(298,715,o),
(256,700,o),
(208,660,cs),
(157,618,o),
(122,565,o),
(137,565,cs),
(142,565,o),
(154,572,o),
(174,588,cs),
(181,594,o),
(190,597,o),
(200,597,cs),
(243,597,o),
(304,551,o),
(304,500,cs),
(304,490,o),
(302,480,o),
(296,470,c)
);
},
{
closed = 1;
nodes = (
(194,629,o),
(193,631,o),
(190,631,cs),
(174,631,o),
(81,545,o),
(65,509,cs),
(50,476,o),
(40,437,o),
(40,401,cs),
(40,340,o),
(69,289,o),
(152,289,cs),
(166,289,o),
(181,291,o),
(198,294,cs),
(217,297,o),
(332,419,o),
(318,416,cs),
(301,413,o),
(287,412,o),
(274,412,cs),
(194,412,o),
(168,463,o),
(168,520,cs),
(168,555,o),
(178,593,o),
(191,623,cs)
);
},
{
closed = 1;
nodes = (
(237,87,o),
(210,4,o),
(228,4,cs),
(231,4,o),
(239,8,o),
(252,17,cs),
(416,133,o),
(429,229,o),
(457,301,cs),
(469,333,o),
(455,361,o),
(430,372,cs),
(382,394,o),
(294,268,o),
(309,254,cs),
(342,220,o),
(352,193,o),
(352,172,cs),
(352,141,o),
(330,124,o),
(328,123,cs)
);
},
{
closed = 1;
nodes = (
(227,315,o),
(228,318,o),
(228,320,cs),
(228,321,o),
(227,322,o),
(224,322,cs),
(203,322,o),
(103,269,o),
(75,238,cs),
(32,188,o),
(10,135,o),
(10,90,cs),
(10,32,o),
(47,-11,o),
(121,-11,cs),
(179,-11,o),
(199,-8,o),
(221,-3,cs),
(240,2,o),
(355,123,o),
(339,119,cs),
(314,113,o),
(293,110,o),
(235,110,cs),
(179,110,o),
(156,136,o),
(156,174,cs),
(156,213,o),
(182,264,o),
(223,310,cs)
);
}
);
};
layerId = m01;
shapes = (
{
closed = 1;
nodes = (
(179,-11,o),
(199,-8,o),
(221,-3,cs),
(224,-2,o),
(229,2,o),
(236,7,cs),
(252,17,ls),
(416,133,o),
(429,229,o),
(457,301,cs),
(469,333,o),
(455,361,o),
(430,372,cs),
(382,394,o),
(294,268,o),
(309,254,cs),
(342,220,o),
(352,193,o),
(352,172,cs),
(352,141,o),
(330,124,o),
(328,123,cs),
(306,113,l),
(290,111,o),
(269,110,o),
(235,110,cs),
(179,110,o),
(156,136,o),
(156,174,cs),
(156,213,o),
(182,264,o),
(223,310,cs),
(226,314,l),
(265,349,o),
(329,418,o),
(318,416,cs),
(301,413,o),
(287,412,o),
(274,412,cs),
(194,412,o),
(168,463,o),
(168,520,cs),
(168,544,o),
(173,569,o),
(180,592,c),
(186,595,o),
(193,597,o),
(200,597,cs),
(243,597,o),
(304,551,o),
(304,500,cs),
(304,490,o),
(302,480,o),
(296,470,c),
(294,465,o),
(293,462,o),
(293,459,cs),
(293,457,o),
(294,456,o),
(296,456,cs),
(313,456,o),
(399,534,o),
(420,574,cs),
(425,586,o),
(428,599,o),
(428,613,cs),
(428,662,o),
(394,715,o),
(332,715,cs),
(298,715,o),
(256,700,o),
(208,660,cs),
(189,644,o),
(172,627,o),
(160,612,c),
(126,584,o),
(76,534,o),
(65,509,cs),
(50,476,o),
(40,437,o),
(40,401,cs),
(40,341,o),
(68,291,o),
(147,289,c),
(118,272,o),
(88,253,o),
(75,238,cs),
(32,188,o),
(10,135,o),
(10,90,cs),
(10,32,o),
(47,-11,o),
(121,-11,cs)
);
}
);
width = 459;
}
);
unicode = 400;
},
{
color = 0;
glyphname = Esh;
lastChange = "2024-04-12 00:46:34 +0000";
layers = (
{
background = {
shapes = (
{
closed = 1;
nodes = (
(425,541,o),
(459,655,o),
(459,693,cs),
(459,702,o),
(457,707,o),
(452,704,cs),
(441,698,o),
(419,696,o),
(392,696,cs),
(341,696,o),
(270,703,o),
(208,703,cs),
(158,703,o),
(114,698,o),
(90,683,cs),
(76,674,o),
(39,562,o),
(39,523,cs),
(39,518,o),
(40,514,o),
(42,512,cs),
(98,442,o),
(150,371,o),
(209,296,c),
(249,357,l),
(178,281,o),
(141,249,o),
(59,161,cs),
(57,159,o),
(0,52,o),
(0,15,cs),
(0,7,o),
(2,2,o),
(7,3,cs),
(17,5,o),
(32,5,o),
(50,5,cs),
(109,5,o),
(202,-3,o),
(274,-3,cs),
(316,-3,o),
(351,0,o),
(368,9,cs),
(385,18,o),
(419,132,o),
(419,170,cs),
(419,179,o),
(417,184,o),
(412,181,cs),
(393,171,o),
(347,168,o),
(293,168,cs),
(236,168,o),
(192,171,o),
(140,171,cs),
(110,171,o),
(85,170,o),
(69,167,c),
(17,9,l),
(96,94,o),
(220,235,o),
(311,331,cs),
(331,353,o),
(337,367,o),
(337,377,cs),
(337,384,o),
(334,389,o),
(331,392,cs),
(256,486,o),
(173,584,o),
(94,682,c),
(46,511,l),
(67,525,o),
(106,529,o),
(152,529,cs),
(212,529,o),
(282,522,o),
(336,522,cs),
(368,522,o),
(394,524,o),
(408,532,cs)
);
}
);
};
layerId = m01;
shapes = (
{
closed = 1;
nodes = (
(316,-3,o),
(351,0,o),
(368,9,cs),
(385,18,o),
(419,132,o),
(419,170,cs),
(419,179,o),
(417,184,o),
(412,181,cs),
(393,171,o),
(347,168,o),
(293,168,cs),
(245,168,o),
(206,170,o),
(164,171,c),
(311,331,ls),
(331,353,o),
(337,367,o),
(337,377,cs),
(337,384,o),
(334,389,o),
(331,392,cs),
(221,527,l),
(261,525,o),
(302,522,o),
(336,522,cs),
(368,522,o),
(394,524,o),
(408,532,cs),
(425,541,o),
(459,655,o),
(459,693,cs),
(459,702,o),
(457,707,o),
(452,704,cs),
(441,698,o),
(419,696,o),
(392,696,cs),
(341,696,o),
(270,703,o),
(208,703,cs),
(158,703,o),
(114,698,o),
(90,683,cs),
(76,674,o),
(39,562,o),
(39,523,cs),
(39,518,o),
(40,514,o),
(42,512,cs),
(95,445,o),
(145,378,o),
(201,307,c),
(157,261,o),
(120,227,o),
(59,161,cs),
(57,159,o),
(0,52,o),
(0,15,cs),
(0,7,o),
(2,2,o),
(7,3,cs),
(17,5,o),
(32,5,o),
(50,5,cs),
(109,5,o),
(202,-3,o),
(274,-3,cs)
);
}
);
width = 459;
}
);
unicode = 425;
},
{
glyphname = Eturned;
kernRight = KO_Eturned;
lastChange = "2024-04-12 00:46:34 +0000";
layers = (
{
anchors = (
{
name = bottom;
pos = (198,-6);
},
{
name = top;
pos = (325,718);
}
);
background = {
shapes = (
{
closed = 1;
nodes = (
(428,235,o),
(475,358,o),
(475,395,cs),
(475,401,o),
(474,405,o),
(471,405,cs),
(148,404,ls),
(130,404,o),
(84,280,o),
(84,244,cs),
(84,238,o),
(85,234,o),
(88,234,cs),
(411,235,ls)
);
},
{
closed = 1;
nodes = (
(66,633,o),
(34,521,o),
(34,484,cs),
(34,475,o),
(36,470,o),
(41,473,cs),
(52,480,o),
(72,482,o),
(98,482,cs),
(150,482,o),
(224,473,o),
(288,473,cs),
(331,473,o),
(369,477,o),
(391,493,cs),
(409,505,o),
(441,615,o),
(441,653,cs),
(441,663,o),
(439,667,o),
(433,663,cs),
(415,651,o),
(382,647,o),
(343,647,cs),
(283,647,o),
(209,656,o),
(153,656,cs),
(123,656,o),
(98,654,o),
(85,645,cs)
);
},
{
closed = 1;
nodes = (
(300,45,o),
(303,40,o),
(310,40,cs),
(336,40,o),
(412,128,o),
(417,173,cs),
(434,335,o),
(438,497,o),
(455,659,cs),
(456,664,o),
(453,666,o),
(449,666,cs),
(430,666,o),
(373,621,o),
(371,599,cs),
(352,419,o),
(320,237,o),
(301,57,cs)
);
},
{
closed = 1;
nodes = (
(316,2,o),
(394,105,o),
(394,126,cs),
(394,130,o),
(391,131,o),
(385,128,cs),
(370,121,o),
(355,118,o),
(340,118,cs),
(313,118,o),
(285,128,o),
(256,143,cs),
(234,154,o),
(214,162,o),
(192,162,cs),
(166,162,o),
(136,151,o),
(95,123,cs),
(54,94,o),
(10,19,o),
(10,-7,cs),
(10,-13,o),
(12,-17,o),
(17,-17,cs),
(22,-17,o),
(30,-14,o),
(41,-7,cs),
(54,3,o),
(74,12,o),
(98,12,cs),
(113,12,o),
(130,8,o),
(148,-1,cs),
(178,-16,o),
(203,-27,o),
(230,-27,cs),
(247,-27,o),
(266,-23,o),
(287,-12,cs)
);
}
);
};
layerId = m01;
shapes = (
{
closed = 1;
nodes = (
(247,-4,o),
(266,0,o),
(287,11,cs),
(313,23,o),
(377,106,o),
(391,139,c),
(405,160,o),
(416,180,o),
(417,196,cs),
(424,275,l),
(445,307,o),
(475,392,o),
(475,422,cs),
(475,428,o),
(474,432,o),
(471,432,cs),
(435,432,l),
(441,525,o),
(446,609,o),
(455,694,cs),
(456,699,o),
(453,701,o),
(449,701,cs),
(446,701,o),
(443,700,o),
(439,699,c),
(438,700,o),
(436,700,o),
(433,698,cs),
(415,686,o),
(382,682,o),
(343,682,cs),
(283,682,o),
(209,691,o),
(153,691,cs),
(123,691,o),
(98,689,o),
(85,680,cs),
(66,668,o),
(34,556,o),
(34,519,cs),
(34,510,o),
(36,505,o),
(41,508,cs),
(52,515,o),
(72,517,o),
(98,517,cs),
(150,517,o),
(224,508,o),
(288,508,cs),
(313,508,o),
(337,509,o),
(357,514,c),
(347,432,l),
(148,431,ls),
(130,431,o),
(84,307,o),
(84,271,cs),
(84,265,o),
(85,261,o),
(88,261,cs),
(323,262,l),
(308,145,l),
(291,149,o),
(274,157,o),
(256,166,cs),
(234,177,o),
(214,185,o),
(192,185,cs),
(166,185,o),
(136,174,o),
(95,146,cs),
(54,117,o),
(10,42,o),
(10,16,cs),
(10,10,o),
(12,6,o),
(17,6,cs),
(22,6,o),
(30,9,o),
(41,16,cs),
(54,26,o),
(74,35,o),
(98,35,cs),
(113,35,o),
(130,31,o),
(148,22,cs),
(178,7,o),
(203,-4,o),
(230,-4,cs)
);
}
);
width = 510;
}
);
unicode = 398;
},
{
glyphname = Schwa;
kernLeft = KO_Schwa;
kernRight = KO_O;
lastChange = "2024-04-12 00:46:34 +0000";
layers = (
{
anchors = (
{
name = bottom;
pos = (193,-10);
},
{
name = ogonek;
pos = (219,4);
},
{
name = top;
pos = (304,690);
}
);
background = {
anchors = (
{
name = bottom;
pos = (149,0);
},
{
name = center;
pos = (220,350);
},
{
name = ogonek;
pos = (394,10);
},
{
name = top;
pos = (309,700);
},
{
name = topleft;
pos = (22,700);
},
{
name = topright;
pos = (328,700);
}
);
shapes = (
{
closed = 1;
nodes = (
(166,75,o),
(135,30,o),
(135,8,cs),
(135,-1,o),
(140,-6,o),
(149,-6,cs),
(162,-6,o),
(182,2,o),
(211,23,cs),
(314,96,o),
(436,232,o),
(436,403,cs),
(436,498,o),
(398,603,o),
(298,713,cs),
(284,729,o),
(187,544,o),
(202,527,cs),
(300,418,o),
(333,335,o),
(333,273,cs),
(333,161,o),
(226,118,o),
(219,113,cs)
);
},
{
closed = 1;
nodes = (
(152,368,o),
(150,371,o),
(144,371,cs),
(122,371,o),
(40,310,o),
(31,282,cs),
(15,234,o),
(3,187,o),
(3,144,cs),
(3,72,o),
(38,14,o),
(149,-6,cs),
(182,-12,o),
(306,96,o),
(306,128,cs),
(306,132,o),
(304,135,o),
(299,136,cs),
(178,158,o),
(133,204,o),
(133,274,cs),
(133,300,o),
(139,328,o),
(149,360,cs)
);
},
{
closed = 1;
nodes = (
(120,369,o),
(86,327,o),
(86,305,cs),
(86,296,o),
(91,291,o),
(104,292,cs),
(139,294,o),
(355,294,o),
(363,294,cs),
(391,295,o),
(426,337,o),
(426,360,cs),
(426,368,o),
(421,374,o),
(409,374,c),
(409,374,o),
(182,373,o),
(148,370,cs)
);
}
);
};
layerId = m01;
shapes = (
{
closed = 1;
nodes = (
(155,-7,o),
(165,-4,o),
(177,2,cs),
(186,7,o),
(198,13,o),
(211,23,cs),
(314,96,o),
(436,232,o),
(436,403,cs),
(436,498,o),
(398,603,o),
(298,713,cs),
(284,729,o),
(187,544,o),
(202,527,cs),
(255,469,o),
(288,418,o),
(309,373,c),
(244,373,o),
(168,372,o),
(148,370,c),
(147,371,o),
(146,371,o),
(144,371,cs),
(122,371,o),
(40,310,o),
(31,282,cs),
(15,234,o),
(3,187,o),
(3,144,cs),
(3,74,o),
(37,16,o),
(142,-5,c),
(144,-6,o),
(146,-6,o),
(149,-6,cs)
);
},
{
closed = 1;
nodes = (
(170,167,o),
(133,211,o),
(133,274,cs),
(134,293,l),
(332,294,l),
(333,273,ls),
(333,209,o),
(298,168,o),
(267,143,c)
);
}
);
width = 471;
}
);
unicode = 399;
},
{
glyphname = Ezh;
kernRight = KO_Ezh;
lastChange = "2024-04-12 00:46:34 +0000";
layers = (
{
anchors = (
{
name = bottom;
pos = (239,0);
},
{
name = ogonek;
pos = (184,50);
},
{
name = top;
pos = (281,740);
}
);
background = {
anchors = (
{
name = bottom;
pos = (239,0);
},
{
name = ogonek;
pos = (184,50);
},
{
name = top;
pos = (281,740);
}
);
shapes = (
{
closed = 1;
nodes = (
(71,693,o),
(38,581,o),
(38,543,cs),
(38,534,o),
(40,529,o),
(45,532,cs),
(57,539,o),
(78,541,o),
(104,541,cs),
(156,541,o),
(230,532,o),
(293,532,cs),
(335,532,o),
(374,536,o),
(397,551,cs),
(415,562,o),
(448,674,o),
(448,711,cs),
(448,721,o),
(446,726,o),
(441,723,cs),
(420,710,o),
(385,706,o),
(346,706,cs),
(286,706,o),
(213,715,o),
(158,715,cs),
(128,715,o),
(104,713,o),
(89,704,cs)
);
},
{
closed = 1;
nodes = (
(155,17,o),
(135,-15,o),
(150,-15,cs),
(161,-15,o),
(189,2,o),
(233,40,cs),
(381,169,o),
(442,276,o),
(442,348,cs),
(442,412,o),
(395,448,o),
(320,448,cs),
(297,448,o),
(271,444,o),
(243,437,cs),
(212,429,o),
(71,273,o),
(109,283,cs),
(142,291,o),
(169,295,o),
(192,295,cs),
(257,295,o),
(279,262,o),
(279,220,cs),
(279,162,o),
(238,89,o),
(213,68,cs)
);
},
{
closed = 1;
nodes = (
(207,6,o),
(289,103,o),
(266,103,cs),
(263,103,o),
(258,102,o),
(252,98,c),
(225,85,o),
(201,79,o),
(181,79,cs),
(131,79,o),
(102,115,o),
(102,163,cs),
(102,179,o),
(105,195,o),
(111,212,cs),
(113,219,o),
(112,222,o),
(109,222,cs),
(90,222,o),
(3,141,o),
(-9,108,cs),
(-16,87,o),
(-20,67,o),
(-20,48,cs),
(-20,-4,o),
(7,-45,o),
(65,-45,cs),
(91,-45,o),
(124,-36,o),
(162,-16,cs)
);
},
{
closed = 1;
nodes = (
(403,554,o),
(411,568,o),
(411,577,cs),
(411,588,o),
(402,593,o),
(388,593,cs),
(367,593,o),
(333,579,o),
(300,550,cs),
(268,520,o),
(130,332,o),
(130,331,c),
(121,320,o),
(118,311,o),
(118,305,cs),
(118,296,o),
(125,292,o),
(137,292,cs),
(166,292,o),
(219,317,o),
(246,353,cs),
(384,536,l)
);
}
);
};
layerId = m01;
shapes = (
{
closed = 1;
nodes = (
(91,-45,o),
(124,-36,o),
(162,-16,cs),
(176,-9,o),
(194,5,o),
(211,22,c),
(233,40,ls),
(381,169,o),
(442,276,o),
(442,348,cs),
(442,412,o),
(395,448,o),
(320,448,cs),
(318,448,l),
(384,536,l),
(397,548,o),
(404,558,o),
(408,566,cs),
(426,601,o),
(448,681,o),
(448,711,cs),
(448,721,o),
(446,726,o),
(441,723,cs),
(420,710,o),
(385,706,o),
(346,706,cs),
(286,706,o),
(213,715,o),
(158,715,cs),
(128,715,o),
(104,713,o),
(89,704,cs),
(71,693,o),
(38,581,o),
(38,543,cs),
(38,534,o),
(40,529,o),
(45,532,cs),
(57,539,o),
(78,541,o),
(104,541,cs),
(153,541,o),
(223,533,o),
(284,532,c),
(236,476,o),
(130,332,o),
(130,331,c),
(127,327,o),
(124,324,o),
(123,320,c),
(104,296,o),
(96,279,o),
(109,283,cs),
(142,291,o),
(169,295,o),
(192,295,cs),
(257,295,o),
(279,262,o),
(279,220,cs),
(279,175,o),
(254,121,o),
(232,89,c),
(213,82,o),
(196,79,o),
(181,79,cs),
(131,79,o),
(102,115,o),
(102,163,cs),
(102,179,o),
(105,195,o),
(111,212,cs),
(113,219,o),
(112,222,o),
(109,222,cs),
(90,222,o),
(3,141,o),
(-9,108,cs),
(-16,87,o),
(-20,67,o),
(-20,48,cs),
(-20,-4,o),
(7,-45,o),
(65,-45,cs)
);
}
);
width = 478;
}
);
unicode = 439;
},
{
glyphname = F;
kernLeft = KO_F;
kernRight = KO_F;
lastChange = "2024-04-12 00:46:34 +0000";
layers = (
{
anchors = (
{
name = left;
pos = (106,637);
}
);
background = {
anchors = (
{
name = left;
pos = (106,637);
}
);
shapes = (
{
closed = 1;
nodes = (
(180,648,o),
(178,650,o),
(175,650,cs),
(157,650,o),
(100,597,o),
(98,574,cs),
(48,68,ls),
(48,62,o),
(49,60,o),
(53,60,cs),
(71,60,o),
(128,114,o),
(130,136,cs),
(180,642,ls)
);
},
{
closed = 1;
nodes = (
(434,555,o),
(463,660,o),
(463,696,cs),
(463,707,o),
(461,712,o),
(454,705,cs),
(443,695,o),
(411,692,o),
(371,692,cs),
(314,692,o),
(241,698,o),
(186,698,cs),
(153,698,o),
(127,696,o),
(114,690,cs),
(96,680,o),
(55,563,o),
(55,529,cs),
(55,522,o),
(57,518,o),
(62,520,cs),
(71,525,o),
(90,527,o),
(114,527,cs),
(169,527,o),
(252,518,o),
(317,518,cs),
(362,518,o),
(399,522,o),
(414,537,cs)
);
},
{
closed = 1;
nodes = (
(363,282,o),
(396,394,o),
(396,432,cs),
(396,442,o),
(394,447,o),
(389,444,cs),
(379,439,o),
(356,437,o),
(327,437,cs),
(280,437,o),
(218,441,o),
(168,441,cs),
(130,441,o),
(100,439,o),
(86,431,cs),
(68,420,o),
(35,308,o),
(35,270,cs),
(35,261,o),
(37,256,o),
(42,259,cs),
(53,265,o),
(78,267,o),
(110,267,cs),
(158,267,o),
(221,263,o),
(270,263,cs),
(305,263,o),
(333,265,o),
(345,272,cs)
);
},
{
closed = 1;
nodes = (
(29,148,o),
(-10,38,o),
(-10,7,cs),
(-10,-1,o),
(-7,-4,o),
(-1,2,cs),
(17,18,o),
(47,28,o),
(76,28,cs),
(103,28,o),
(129,19,o),
(144,0,cs),
(158,-17,o),
(210,120,o),
(210,159,cs),
(210,163,o),
(209,166,o),
(208,168,c),
(192,188,o),
(165,198,o),
(135,198,cs),
(104,198,o),
(72,187,o),
(49,166,cs)
);
}
);
};
layerId = m01;
shapes = (
{
closed = 1;
nodes = (
(158,-17,o),
(210,120,o),
(210,159,cs),
(210,163,o),
(209,166,o),
(208,168,c),
(192,188,o),
(166,198,o),
(136,198,c),
(143,267,l),
(185,265,o),
(232,263,o),
(270,263,cs),
(305,263,o),
(333,265,o),
(345,272,cs),
(363,282,o),
(396,394,o),
(396,432,cs),
(396,442,o),
(394,447,o),
(389,444,cs),
(379,439,o),
(356,437,o),
(327,437,cs),
(280,437,o),
(218,441,o),
(168,441,cs),
(160,441,l),
(168,525,l),
(216,522,o),
(271,518,o),
(317,518,cs),
(362,518,o),
(399,522,o),
(414,537,cs),
(434,555,o),
(463,660,o),
(463,696,cs),
(463,707,o),
(461,712,o),
(454,705,cs),
(443,695,o),
(411,692,o),
(371,692,cs),
(314,692,o),
(241,698,o),
(186,698,cs),
(153,698,o),
(127,696,o),
(114,690,cs),
(96,680,o),
(55,563,o),
(55,529,cs),
(55,522,o),
(57,518,o),
(62,520,cs),
(68,523,o),
(79,525,o),
(93,526,c),
(84,429,l),
(65,411,o),
(35,306,o),
(35,270,cs),
(35,261,o),
(37,256,o),
(42,259,cs),
(47,262,o),
(56,264,o),
(67,265,c),
(58,174,l),
(49,166,ls),
(29,148,o),
(-10,38,o),
(-10,7,cs),
(-10,-1,o),
(-7,-4,o),
(-1,2,cs),
(17,18,o),
(47,28,o),
(76,28,cs),
(103,28,o),
(129,19,o),
(144,0,cs)
);
}
);
width = 442;
}
);
unicode = 70;
userData = {
KernOnName = F;
};
},
{
glyphname = Fhook;
kernRight = KO_F;
lastChange = "2024-04-12 00:46:34 +0000";
layers = (
{
anchors = (
{
name = left;
pos = (271,637);
}
);
layerId = m01;
shapes = (
{
closed = 1;
nodes = (
(54,-175,o),
(111,-121,o),
(113,-99,cs),
(188,642,ls),
(188,648,o),
(186,650,o),
(183,650,cs),
(165,650,o),
(108,597,o),
(106,574,cs),
(31,-167,ls),
(31,-173,o),
(32,-175,o),
(36,-175,cs)
);
},
{
closed = 1;
nodes = (
(-16,-245,o),
(106,-131,o),
(113,-98,cs),
(114,-89,o),
(115,-81,o),
(115,-73,cs),
(115,-3,o),
(56,57,o),
(-2,57,cs),
(-24,57,o),
(-145,-65,o),
(-116,-65,cs),
(-53,-65,o),
(-7,-124,o),
(-7,-185,cs),
(-7,-193,o),
(-7,-201,o),
(-9,-208,cs)
);
},
{
closed = 1;
nodes = (
(61,265,o),
(86,267,o),
(118,267,cs),
(166,267,o),
(229,263,o),
(278,263,cs),
(313,263,o),
(341,265,o),
(353,272,cs),
(371,282,o),
(404,394,o),
(404,432,cs),
(404,442,o),
(402,447,o),
(397,444,cs),
(387,439,o),
(364,437,o),
(335,437,cs),
(288,437,o),
(226,441,o),
(176,441,cs),
(138,441,o),
(108,439,o),
(94,431,cs),
(76,420,o),
(43,308,o),
(43,270,cs),
(43,261,o),
(45,256,o),
(50,259,cs)
);
},
{
closed = 1;
nodes = (
(370,518,o),
(407,522,o),
(422,537,cs),
(442,555,o),
(471,660,o),
(471,696,cs),
(471,707,o),
(469,712,o),
(462,705,cs),
(451,695,o),
(419,692,o),
(379,692,cs),
(322,692,o),
(249,698,o),
(194,698,cs),
(161,698,o),
(135,696,o),
(122,690,cs),
(104,680,o),
(63,563,o),
(63,529,cs),
(63,522,o),
(65,518,o),
(70,520,cs),
(79,525,o),
(98,527,o),
(122,527,cs),
(177,527,o),
(260,518,o),
(325,518,cs)
);
}
);
width = 451;
}
);
unicode = 401;
},
{
glyphname = G;
kernLeft = KO_G;
kernRight = KO_G;
lastChange = "2024-04-12 00:46:34 +0000";
layers = (
{
anchors = (
{
name = bottom;
pos = (154,-30);
},
{
name = left;
pos = (160,650);
},
{
name = top;
pos = (378,747);
}
);
background = {
anchors = (
{
name = bottom;
pos = (154,-30);
},
{
name = left;
pos = (160,650);
},
{
name = top;
pos = (378,747);
}
);
shapes = (
{
closed = 1;
nodes = (
(383,624,o),
(387,631,o),
(387,635,cs),
(387,639,o),
(383,641,o),
(376,641,cs),
(355,641,o),
(310,625,o),
(281,599,cs),
(85,426,o),
(5,273,o),
(5,159,cs),
(5,96,o),
(30,45,o),
(73,9,cs),
(111,-22,o),
(170,-16,o),
(184,-16,cs),
(193,-16,o),
(372,140,o),
(404,186,cs),
(411,198,o),
(415,213,o),
(415,224,cs),
(415,236,o),
(411,244,o),
(406,244,cs),
(402,244,o),
(397,241,o),
(392,234,cs),
(376,209,o),
(264,116,o),
(264,116,c),
(260,116,o),
(226,115,o),
(199,137,cs),
(160,170,o),
(138,211,o),
(138,262,cs),
(138,352,o),
(209,470,o),
(373,615,cs)
);
},
{
closed = 1;
nodes = (
(255,357,o),
(186,257,o),
(203,257,cs),
(206,257,o),
(212,260,o),
(221,267,cs),
(228,273,o),
(241,277,o),
(254,277,cs),
(283,277,o),
(316,260,o),
(313,200,cs),
(310,135,o),
(301,72,o),
(294,6,cs),
(293,-5,o),
(293,-15,o),
(293,-25,cs),
(293,-72,o),
(306,-104,o),
(335,-100,cs),
(362,-97,o),
(488,33,o),
(455,28,cs),
(439,26,o),
(433,38,o),
(433,68,cs),
(436,114,ls),
(442,178,o),
(451,244,o),
(455,308,cs),
(457,365,o),
(413,414,o),
(360,414,cs),
(339,414,o),
(318,407,o),
(297,391,cs)
);
},
{
closed = 1;
nodes = (
(392,577,o),
(429,683,o),
(429,714,cs),
(429,722,o),
(426,725,o),
(419,717,cs),
(407,705,o),
(369,696,o),
(330,696,cs),
(293,696,o),
(254,704,o),
(235,722,cs),
(221,735,o),
(169,604,o),
(169,564,cs),
(169,559,o),
(169,556,o),
(171,554,cs),
(192,535,o),
(231,526,o),
(271,526,cs),
(312,526,o),
(353,536,o),
(371,555,cs)
);
}
);
};
layerId = m01;
shapes = (
{
closed = 1;
nodes = (
(362,-97,o),
(488,33,o),
(455,28,cs),
(439,26,o),
(433,38,o),
(433,68,cs),
(436,114,ls),
(442,178,o),
(451,244,o),
(455,308,cs),
(457,365,o),
(413,414,o),
(360,414,cs),
(339,414,o),
(318,407,o),
(297,391,cs),
(255,357,o),
(186,257,o),
(203,257,cs),
(206,257,o),
(212,260,o),
(221,267,cs),
(228,273,o),
(241,277,o),
(254,277,cs),
(283,277,o),
(316,260,o),
(313,200,cs),
(310,155,l),
(264,116,l),
(260,116,o),
(226,115,o),
(199,137,cs),
(160,170,o),
(138,211,o),
(138,262,cs),
(138,333,o),
(182,421,o),
(281,526,c),
(318,528,o),
(354,538,o),
(371,555,cs),
(392,577,o),
(429,683,o),
(429,714,cs),
(429,722,o),
(426,725,o),
(419,717,cs),
(407,705,o),
(369,696,o),
(330,696,cs),
(293,696,o),
(254,704,o),
(235,722,cs),
(221,735,o),
(169,604,o),
(169,564,cs),
(169,559,o),
(169,556,o),
(171,554,cs),
(181,545,o),
(195,538,o),
(211,534,c),
(66,387,o),
(5,258,o),
(5,159,cs),
(5,96,o),
(30,45,o),
(73,9,cs),
(111,-22,o),
(170,-16,o),
(184,-16,cs),
(189,-16,o),
(247,33,o),
(303,84,c),
(294,6,ls),
(293,-5,o),
(293,-15,o),
(293,-25,cs),
(293,-72,o),
(306,-104,o),
(335,-100,cs)
);
}
);
width = 526;
}
);
unicode = 71;
userData = {
KernOnName = G;
};
},
{
color = 1;
glyphname = Ghook;
lastChange = "2024-04-12 00:46:34 +0000";
layers = (
{
anchors = (
{
name = bottom;
pos = (349,-30);
},
{
name = left;
pos = (300,650);
},
{
name = top;
pos = (477,710);
}
);
layerId = m01;
shapes = (
{
closed = 1;
nodes = (
(193,-16,o),
(372,140,o),
(404,186,cs),
(411,198,o),
(415,213,o),
(415,224,cs),
(415,236,o),
(411,244,o),
(406,244,cs),
(402,244,o),
(397,241,o),
(392,234,cs),
(376,209,o),
(264,116,o),
(264,116,c),
(260,116,o),
(226,115,o),
(199,137,cs),
(159,170,o),
(136,213,o),
(136,264,cs),
(136,354,o),
(204,469,o),
(366,612,cs),
(377,622,o),
(381,628,o),
(381,633,cs),
(381,637,o),
(371,628,o),
(364,628,cs),
(344,628,o),
(308,623,o),
(280,598,cs),
(84,426,o),
(5,273,o),
(5,159,cs),
(5,96,o),
(30,45,o),
(73,9,cs),
(111,-22,o),
(170,-16,o),
(184,-16,cs)
);
},
{
closed = 1;
nodes = (
(362,-97,o),
(488,33,o),
(455,28,cs),
(439,26,o),
(433,38,o),
(433,68,cs),
(436,114,ls),
(442,178,o),
(451,244,o),
(455,308,cs),
(457,365,o),
(413,414,o),
(360,414,cs),
(339,414,o),
(318,407,o),
(297,391,cs),
(255,357,o),
(186,257,o),
(203,257,cs),
(206,257,o),
(212,260,o),
(221,267,cs),
(228,273,o),
(241,277,o),
(254,277,cs),
(283,277,o),
(316,260,o),
(313,200,cs),
(310,135,o),
(301,72,o),
(294,6,cs),
(293,-5,o),
(293,-15,o),
(293,-25,cs),
(293,-72,o),
(306,-104,o),
(335,-100,cs)
);
},
{
closed = 1;
nodes = (
(330,467,o),
(366,477,o),
(382,496,cs),
(401,518,o),
(434,624,o),
(434,655,cs),
(434,663,o),
(432,666,o),
(425,658,cs),
(415,646,o),
(381,637,o),
(346,637,cs),
(313,637,o),
(278,645,o),
(261,663,cs),
(248,676,o),
(202,545,o),
(202,505,cs),
(202,500,o),
(202,497,o),
(203,495,c),
(222,476,o),
(257,467,o),
(293,467,cs)
);
},
{
closed = 1;
nodes = (
(347,575,l),
(336,637,o),
(356,699,o),
(424,759,cs),
(441,773,o),
(458,787,o),
(458,796,cs),
(458,803,o),
(453,807,o),
(444,807,cs),
(433,807,o),
(415,800,o),
(396,782,cs),
(260,662,o),
(295,587,o),
(293,535,c)
);
},
{
closed = 1;
nodes = (
(498,619,o),
(641,759,o),
(630,777,cs),
(615,802,o),
(585,860,o),
(526,860,cs),
(498,860,o),
(463,847,o),
(420,810,cs),
(371,769,o),
(304,663,o),
(324,663,cs),
(328,663,o),
(336,667,o),
(348,678,cs),
(370,696,o),
(389,704,o),
(406,704,cs),
(443,704,o),
(469,668,o),
(488,637,cs)
);
}
);
width = 526;
}
);
unicode = 403;
},
{
glyphname = Glottalstopsmall;
lastChange = "2024-04-12 00:46:34 +0000";
layers = (
{
layerId = m01;
shapes = (
{
closed = 1;
nodes = (
(99,249,o),
(246,325,o),
(298,393,cs),
(378,495,o),
(394,537,o),
(394,609,cs),
(394,676,o),
(318,702,o),
(275,702,cs),
(215,702,o),
(126,652,o),
(44,545,cs),
(14,507,o),
(0,473,o),
(0,455,cs),
(0,447,o),
(3,442,o),
(9,442,cs),
(19,442,o),
(32,458,o),
(56,490,cs),
(75,514,o),
(99,545,o),
(159,545,cs),
(195,545,o),
(245,517,o),
(245,483,cs),
(245,445,o),
(195,396,o),
(115,292,cs),
(103,278,o),
(99,270,o),
(99,266,cs)
);
},
{
closed = 1;
nodes = (
(71,-14,o),
(131,33,o),
(134,57,c),
(218,335,l),
(218,340,o),
(217,342,o),
(214,342,cs),
(191,342,o),
(89,283,o),
(82,245,cs),
(82,243,o),
(44,-32,o),
(44,-7,cs),
(44,-12,o),
(47,-14,o),
(51,-14,cs)
);
}
);
width = 346;
}
);
unicode = 577;
},
{
color = 3;
glyphname = Gstroke;
kernLeft = KO_G;
lastChange = "2024-04-12 00:46:34 +0000";
layers = (
{
anchors = (
{
name = bottom;
pos = (154,-30);
},
{
name = left;
pos = (160,650);
},
{
name = top;
pos = (355,735);
}
);
layerId = m01;
shapes = (
{
closed = 1;
nodes = (
(193,-16,o),
(372,140,o),
(404,186,cs),
(411,198,o),
(415,213,o),
(415,224,cs),
(415,236,o),
(411,244,o),
(406,244,cs),
(402,244,o),
(397,241,o),
(392,234,cs),
(376,209,o),
(264,116,o),
(264,116,c),
(260,116,o),
(226,115,o),
(199,137,cs),
(160,170,o),
(138,211,o),
(138,262,cs),
(138,352,o),
(209,470,o),
(373,615,cs),
(383,624,o),
(387,631,o),
(387,635,cs),
(387,639,o),
(383,641,o),
(376,641,cs),
(355,641,o),
(310,625,o),
(281,599,cs),
(85,426,o),
(5,273,o),
(5,159,cs),
(5,96,o),
(30,45,o),
(73,9,cs),
(111,-22,o),
(170,-16,o),
(184,-16,cs)
);
},
{
closed = 1;
nodes = (
(362,-97,o),
(488,33,o),
(455,28,cs),
(439,26,o),
(433,38,o),
(433,68,cs),
(436,114,ls),
(442,178,o),
(451,244,o),
(455,308,cs),
(457,365,o),
(413,414,o),
(360,414,cs),
(339,414,o),
(318,407,o),
(297,391,cs),
(255,357,o),
(186,257,o),
(203,257,cs),
(206,257,o),
(212,260,o),
(221,267,cs),
(228,273,o),
(241,277,o),
(254,277,cs),
(283,277,o),
(316,260,o),
(313,200,cs),
(310,135,o),
(301,72,o),
(294,6,cs),
(293,-5,o),
(293,-15,o),
(293,-25,cs),
(293,-72,o),
(306,-104,o),
(335,-100,cs)
);
},
{
closed = 1;
nodes = (
(503,124,ls),
(520,124,o),
(567,247,o),
(567,284,cs),
(567,290,o),
(566,294,o),
(563,294,cs),
(397,292,ls),
(379,292,o),
(333,168,o),
(333,132,cs),
(333,126,o),
(334,122,o),
(337,122,cs)
);
},
{
closed = 1;
nodes = (
(312,526,o),
(353,536,o),
(371,555,cs),
(392,577,o),
(429,683,o),
(429,714,cs),
(429,722,o),
(426,725,o),
(419,717,cs),
(407,705,o),
(369,696,o),
(330,696,cs),
(293,696,o),
(254,704,o),
(235,722,cs),
(221,735,o),
(169,604,o),
(169,564,cs),
(169,559,o),
(169,556,o),
(171,554,cs),
(192,535,o),
(231,526,o),
(271,526,cs)
);
}
);
width = 550;
}
);
unicode = 484;
},
{
glyphname = H;
kernLeft = KO_H;
kernRight = KO_H;
lastChange = "2024-04-12 00:46:34 +0000";
layers = (
{
anchors = (
{
name = bottom;
pos = (291,0);
},
{
name = center;
pos = (291,350);
},
{
name = top;
pos = (334,707);
},
{
name = topleft;
pos = (50,700);
}
);
background = {
anchors = (
{
name = bottom;
pos = (291,0);
},
{
name = center;
pos = (291,350);
},
{
name = top;
pos = (334,707);
},
{
name = topleft;
pos = (50,700);
}
);
shapes = (
{
closed = 1;
nodes = (
(87,438,o),
(40,313,o),
(40,278,cs),
(40,272,o),
(41,268,o),
(44,268,cs),
(477,269,ls),
(494,269,o),
(541,393,o),
(541,429,cs),
(541,435,o),
(540,439,o),
(537,439,cs),
(104,438,ls)
);
},
{
closed = 1;
nodes = (
(168,706,o),
(38,575,o),
(77,584,cs),
(84,586,o),
(93,571,o),
(93,526,cs),
(93,515,o),
(93,503,o),
(92,488,cs),
(63,106,ls),
(57,39,o),
(81,-4,o),
(104,0,cs),
(134,5,o),
(261,138,o),
(226,132,cs),
(207,129,o),
(202,136,o),
(202,153,cs),
(202,168,o),
(205,189,o),
(207,218,cs),
(236,600,ls),
(241,660,o),
(230,721,o),
(199,714,cs)
);
},
{
closed = 1;
nodes = (
(437,706,o),
(307,575,o),
(346,584,cs),
(353,586,o),
(362,571,o),
(362,526,cs),
(362,515,o),
(362,503,o),
(361,488,cs),
(332,106,ls),
(326,39,o),
(350,-4,o),
(373,0,cs),
(403,5,o),
(530,138,o),
(495,132,cs),
(476,129,o),
(471,136,o),
(471,153,cs),
(471,168,o),
(474,189,o),
(476,218,cs),
(505,600,ls),
(510,660,o),
(499,721,o),
(468,714,cs)
);
}
);
};
guides = (
{
pos = (103,-2);
},
{
pos = (204,711);
},
{
pos = (1015,217);
}
);
layerId = m01;
shapes = (
{
closed = 1;
nodes = (
(134,5,o),
(261,138,o),
(226,132,cs),
(207,129,o),
(202,136,o),
(202,153,cs),
(202,168,o),
(205,189,o),
(207,218,cs),
(211,268,l),
(344,269,l),
(332,106,ls),
(326,39,o),
(350,-4,o),
(373,0,cs),
(403,5,o),
(530,138,o),
(495,132,cs),
(476,129,o),
(471,136,o),
(471,153,cs),
(471,168,o),
(474,189,o),
(476,218,cs),
(480,270,l),
(499,282,o),
(541,395,o),
(541,429,cs),
(541,435,o),
(540,439,o),
(537,439,cs),
(493,439,l),
(505,600,ls),
(510,660,o),
(499,721,o),
(468,714,cs),
(437,706,o),
(307,575,o),
(346,584,cs),
(353,586,o),
(362,571,o),
(362,526,cs),
(361,488,l),
(357,439,l),
(224,438,l),
(236,600,ls),
(241,660,o),
(230,721,o),
(199,714,cs),
(168,706,o),
(38,575,o),
(77,584,cs),
(84,586,o),
(93,571,o),
(93,526,cs),
(92,488,l),
(87,418,l),
(66,381,o),
(40,304,o),
(40,278,cs),
(40,272,o),
(41,268,o),
(44,268,cs),
(75,268,l),
(63,106,ls),
(57,39,o),
(81,-4,o),
(104,0,cs)
);
}
);
width = 581;
}
);
unicode = 72;
userData = {
KernOnName = H;
};
},
{
color = 6;
glyphname = Hbar;
kernLeft = KO_Hbar;
kernRight = KO_Hbar;
lastChange = "2024-04-12 00:46:34 +0000";
layers = (
{
anchors = (
{
name = bottom;
pos = (349,0);
},
{
name = center;
pos = (349,350);
},
{
name = top;
pos = (358,650);
},
{
name = topleft;
pos = (108,700);
}
);
background = {
anchors = (
{
name = bottom;
pos = (349,0);
},
{
name = center;
pos = (349,350);
},
{
name = top;
pos = (358,650);
},
{
name = topleft;
pos = (108,700);
}
);
shapes = (
{
closed = 1;
nodes = (
(226,706,o),
(96,575,o),
(135,584,cs),
(142,586,o),
(151,571,o),
(151,526,cs),
(151,515,o),
(151,503,o),
(150,488,cs),
(121,106,ls),
(115,39,o),
(139,-4,o),
(162,0,cs),
(192,5,o),
(319,138,o),
(284,132,cs),
(265,129,o),
(260,136,o),
(260,153,cs),
(260,168,o),
(263,189,o),
(265,218,cs),
(294,600,ls),
(299,660,o),
(288,721,o),
(257,714,cs)
);
},
{
closed = 1;
nodes = (
(495,706,o),
(365,575,o),
(404,584,cs),
(411,586,o),
(420,571,o),
(420,526,cs),
(420,515,o),
(420,503,o),
(419,488,cs),
(390,106,ls),
(384,39,o),
(408,-4,o),
(431,0,cs),
(461,5,o),
(588,138,o),
(553,132,cs),
(534,129,o),
(529,136,o),
(529,153,cs),
(529,168,o),
(532,189,o),
(534,218,cs),
(563,600,ls),
(568,660,o),
(557,721,o),
(526,714,cs)
);
},
{
closed = 1;
nodes = (
(85,500,o),
(68,460,o),
(68,428,cs),
(68,421,o),
(69,417,o),
(73,417,cs),
(596,419,ls),
(612,419,o),
(630,459,o),
(630,491,cs),
(630,498,o),
(629,502,o),
(625,502,cs),
(102,500,ls)
);
},
{
closed = 1;
nodes = (
(108,350,o),
(91,286,o),
(91,254,cs),
(91,247,o),
(92,243,o),
(96,243,cs),
(559,245,ls),
(575,245,o),
(593,309,o),
(593,341,cs),
(593,348,o),
(592,352,o),
(588,352,cs),
(125,350,ls)
);
}
);
};
layerId = m01;
shapes = (
{
closed = 1;
nodes = (
(192,5,o),
(319,138,o),
(284,132,cs),
(265,129,o),
(260,136,o),
(260,153,cs),
(260,168,o),
(263,189,o),
(265,218,cs),
(267,244,l),
(401,244,l),
(390,106,ls),
(384,39,o),
(408,-4,o),
(431,0,cs),
(461,5,o),
(588,138,o),
(553,132,cs),
(534,129,o),
(529,136,o),
(529,153,cs),
(529,168,o),
(532,189,o),
(534,218,cs),
(536,245,l),
(559,245,ls),
(575,245,o),
(593,309,o),
(593,341,cs),
(593,348,o),
(592,352,o),
(588,352,cs),
(544,352,l),
(549,419,l),
(596,419,ls),
(612,419,o),
(630,459,o),
(630,491,cs),
(630,498,o),
(629,502,o),
(625,502,cs),
(556,502,l),
(563,600,ls),
(568,660,o),
(557,721,o),
(526,714,cs),
(495,706,o),
(365,575,o),
(404,584,cs),
(411,586,o),
(420,571,o),
(420,526,cs),
(420,501,l),
(286,501,l),
(294,600,ls),
(299,660,o),
(288,721,o),
(257,714,cs),
(226,706,o),
(96,575,o),
(135,584,cs),
(142,586,o),
(151,571,o),
(151,526,cs),
(151,500,l),
(102,500,ls),
(85,500,o),
(68,460,o),
(68,428,cs),
(68,421,o),
(69,417,o),
(73,417,cs),
(145,417,l),
(140,350,l),
(125,350,ls),
(108,350,o),
(91,286,o),
(91,254,cs),
(91,247,o),
(92,243,o),
(96,243,cs),
(131,243,l),
(121,106,ls),
(115,39,o),
(139,-4,o),
(162,0,cs)
);
},
{
closed = 1;
nodes = (
(280,418,l),
(414,418,l),
(409,351,l),
(275,351,l)
);
}
);
width = 639;
}
);
unicode = 294;
},
{
color = 0;
glyphname = Hhook;
lastChange = "2024-04-12 00:46:34 +0000";
layers = (
{
anchors = (
{
name = bottom;
pos = (454,0);
},
{
name = center;
pos = (454,350);
},
{
name = top;
pos = (497,707);
},
{
name = topleft;
pos = (213,700);
}
);
layerId = m01;
shapes = (
{
closed = 1;
nodes = (
(566,5,o),
(693,138,o),
(658,132,cs),
(639,129,o),
(634,136,o),
(634,153,cs),
(634,168,o),
(637,189,o),
(639,218,cs),
(668,600,ls),
(673,660,o),
(662,717,o),
(631,710,cs),
(600,702,o),
(470,571,o),
(509,580,cs),
(516,582,o),
(525,570,o),
(525,525,cs),
(524,488,l),
(495,106,ls),
(489,39,o),
(513,-4,o),
(536,0,cs)
);
},
{
closed = 1;
nodes = (
(112,327,o),
(233,419,o),
(233,487,cs),
(233,492,o),
(231,495,o),
(227,495,cs),
(222,495,o),
(213,490,o),
(203,480,cs),
(188,467,o),
(166,461,o),
(147,461,cs),
(114,461,o),
(85,478,o),
(85,523,cs),
(85,533,o),
(86,555,o),
(103,570,cs),
(108,574,o),
(111,588,o),
(111,591,cs),
(111,595,o),
(92,588,o),
(91,585,c),
(72,565,o),
(27,513,o),
(11,459,cs),
(4,435,o),
(0,414,o),
(0,395,cs),
(0,349,o),
(23,327,o),
(56,327,cs)
);
},
{
closed = 1;
nodes = (
(297,5,o),
(424,138,o),
(389,132,cs),
(370,129,o),
(365,136,o),
(365,153,cs),
(365,167,o),
(369,189,o),
(371,218,cs),
(399,662,l),
(399,662,o),
(256,578,o),
(255,550,cs),
(225,106,ls),
(221,40,o),
(244,-4,o),
(267,0,cs)
);
},
{
closed = 1;
nodes = (
(640,269,ls),
(657,269,o),
(704,393,o),
(704,429,cs),
(704,435,o),
(703,439,o),
(700,439,cs),
(267,438,ls),
(250,438,o),
(203,313,o),
(203,278,cs),
(203,272,o),
(204,268,o),
(207,268,cs)
);
},
{
closed = 1;
nodes = (
(399,662,l),
(375,671,o),
(320,679,o),
(292,679,cs),
(253,679,o),
(180,674,o),
(91,585,cs),
(61,555,o),
(118,569,o),
(170,569,cs),
(275,569,o),
(279,536,o),
(298,525,c)
);
}
);
width = 724;
}
);
unicode = 42922;
},
{
glyphname = Hturned;
lastChange = "2024-04-12 00:46:34 +0000";
layers = (
{
background = {
shapes = (
{
closed = 1;
nodes = (
(138,702,o),
(8,571,o),
(47,580,cs),
(55,582,o),
(63,570,o),
(63,523,cs),
(61,488,l),
(48,272,ls),
(46,243,o),
(191,358,o),
(192,384,cs),
(207,600,ls),
(210,660,o),
(200,717,o),
(169,710,cs)
);
},
{
closed = 1;
nodes = (
(407,702,o),
(277,571,o),
(316,580,cs),
(323,582,o),
(332,570,o),
(332,525,cs),
(332,515,o),
(332,503,o),
(331,488,cs),
(302,106,ls),
(296,39,o),
(320,-4,o),
(343,0,cs),
(373,5,o),
(500,138,o),
(465,132,cs),
(446,129,o),
(441,136,o),
(441,153,cs),
(441,168,o),
(444,189,o),
(446,218,cs),
(475,600,ls),
(480,660,o),
(469,717,o),
(438,710,cs)
);
},
{
closed = 1;
nodes = (
(96,428,o),
(51,311,o),
(51,277,cs),
(51,270,o),
(53,267,o),
(58,269,cs),
(85,282,o),
(126,300,o),
(176,300,cs),
(192,300,o),
(209,298,o),
(226,293,cs),
(280,280,o),
(296,262,o),
(339,262,cs),
(352,262,o),
(369,264,o),
(390,268,cs),
(407,272,o),
(454,393,o),
(454,428,cs),
(454,435,o),
(452,438,o),
(448,438,c),
(428,434,o),
(412,432,o),
(399,432,cs),
(358,432,o),
(342,449,o),
(288,463,cs),
(270,467,o),
(253,469,o),
(237,469,cs),
(185,469,o),
(141,450,o),
(114,437,cs)
);
}
);
};
layerId = m01;
shapes = (
{
closed = 1;
nodes = (
(373,5,o),
(500,138,o),
(465,132,cs),
(446,129,o),
(441,136,o),
(441,153,cs),
(441,168,o),
(444,189,o),
(446,218,cs),
(475,600,ls),
(480,660,o),
(469,717,o),
(438,710,cs),
(407,702,o),
(277,571,o),
(316,580,cs),
(323,582,o),
(332,570,o),
(332,525,cs),
(331,488,l),
(328,450,l),
(317,454,o),
(304,459,o),
(288,463,cs),
(270,467,o),
(253,469,o),
(237,469,cs),
(223,469,o),
(210,468,o),
(198,465,c),
(207,600,ls),
(210,660,o),
(200,717,o),
(169,710,cs),
(138,702,o),
(8,571,o),
(47,580,cs),
(55,582,o),
(63,570,o),
(63,523,cs),
(61,488,l),
(48,272,ls),
(47,264,o),
(59,267,o),
(76,277,c),
(102,289,o),
(136,300,o),
(176,300,cs),
(192,300,o),
(209,298,o),
(226,293,cs),
(268,283,o),
(287,270,o),
(314,264,c),
(302,106,ls),
(296,39,o),
(320,-4,o),
(343,0,cs)
);
}
);
width = 516;
}
);
unicode = (42893,613);
},
{
glyphname = I;
kernLeft = KO_I;
kernRight = KO_I;
lastChange = "2024-04-12 00:46:34 +0000";
layers = (
{
anchors = (
{
name = bottom;
pos = (136,2);
},
{
name = center;
pos = (140,356);
},
{
name = ogonek;
pos = (122,5);
},
{
name = top;
pos = (193,735);
},
{
name = topleft;
pos = (45,700);
}
);
background = {
anchors = (
{
name = bottom;
pos = (136,2);
},
{
name = center;
pos = (140,356);
},
{
name = ogonek;
pos = (122,5);
},
{
name = top;
pos = (193,735);
},
{
name = topleft;
pos = (45,700);
}
);
shapes = (
{
closed = 1;
nodes = (
(156,702,o),
(26,571,o),
(65,580,cs),
(72,582,o),
(81,571,o),
(81,526,cs),
(81,515,o),
(81,503,o),
(80,488,cs),
(51,106,ls),
(45,39,o),
(69,-4,o),
(92,0,cs),
(122,5,o),
(249,138,o),
(214,132,cs),
(195,129,o),
(190,136,o),
(190,153,cs),
(190,168,o),
(193,189,o),
(195,218,cs),
(224,600,ls),
(229,661,o),
(218,717,o),
(187,710,cs)
);
}
);
};
layerId = m01;
shapes = (
{
closed = 1;
nodes = (
(122,5,o),
(249,138,o),
(214,132,cs),
(195,129,o),
(190,136,o),
(190,153,cs),
(190,168,o),
(193,189,o),
(195,218,cs),
(224,600,ls),
(229,661,o),
(218,717,o),
(187,710,cs),
(156,702,o),
(26,571,o),
(65,580,cs),
(72,582,o),
(81,571,o),
(81,526,cs),
(80,488,l),
(51,106,ls),
(45,39,o),
(69,-4,o),
(92,0,cs)
);
}
);
width = 275;
}
);
unicode = 73;
userData = {
KernOnName = I;
};
},
{
glyphname = "Iota-latin";
lastChange = "2024-04-12 00:46:34 +0000";
layers = (
{
anchors = (
{
name = bottom;
pos = (114,2);
},
{
name = center;
pos = (118,356);
},
{
name = ogonek;
pos = (169,0);
},
{
name = top;
pos = (146,710);
},
{
name = topleft;
pos = (23,700);
}
);
layerId = m01;
shapes = (
{
closed = 1;
nodes = (
(100,5,o),
(227,138,o),
(192,132,cs),
(173,129,o),
(168,136,o),
(168,153,cs),
(168,168,o),
(171,189,o),
(173,218,cs),
(202,600,ls),
(207,661,o),
(196,717,o),
(165,710,cs),
(134,702,o),
(4,571,o),
(43,580,cs),
(50,582,o),
(59,571,o),
(59,526,cs),
(58,488,l),
(29,106,ls),
(23,39,o),
(47,-4,o),
(70,0,cs)
);
},
{
closed = 1;
nodes = (
(16,-7,o),
(18,-2,o),
(42,-2,cs),
(60,-2,o),
(90,-5,o),
(143,-10,cs),
(171,-13,o),
(263,97,o),
(263,131,cs),
(263,136,o),
(261,140,o),
(255,140,cs),
(169,149,o),
(121,162,o),
(91,162,cs),
(77,162,o),
(68,159,o),
(60,153,cs),
(40,137,o),
(0,25,o),
(0,-7,cs),
(0,-15,o),
(2,-18,o),
(8,-13,cs)
);
}
);
width = 293;
}
);
unicode = 406;
},
{
glyphname = J;
kernLeft = KO_J;
kernRight = KO_J;
lastChange = "2024-04-12 00:46:34 +0000";
layers = (
{
anchors = (
{
name = bottom;
pos = (180,0);
},
{
name = top;
pos = (372,738);
}
);
background = {
anchors = (
{
name = bottom;
pos = (180,0);
},
{
name = top;
pos = (372,738);
}
);
shapes = (
{
closed = 1;
nodes = (
(113,-38,o),
(225,103,o),
(221,126,cs),
(212,165,o),
(144,249,o),
(95,249,cs),
(91,249,o),
(86,248,o),
(82,247,cs),
(54,237,o),
(-54,93,o),
(-18,105,cs),
(18,118,o),
(99,29,o),
(107,-12,cs)
);
},
{
closed = 1;
nodes = (
(322,707,o),
(192,576,o),
(231,585,cs),
(238,587,o),
(248,572,o),
(248,530,cs),
(248,518,o),
(247,504,o),
(246,488,cs),
(217,219,ls),
(210,156,o),
(208,127,o),
(208,114,cs),
(208,99,o),
(210,105,o),
(209,104,cs),
(154,61,o),
(97,-12,o),
(113,-12,cs),
(118,-12,o),
(128,-7,o),
(145,6,cs),
(382,190,o),
(356,277,o),
(361,331,cs),
(390,600,l),
(392,610,o),
(392,620,o),
(392,630,cs),
(392,679,o),
(379,721,o),
(353,715,cs)
);
}
);
};
layerId = m01;
shapes = (
{
closed = 1;
nodes = (
(108,-18,o),
(114,-15,o),
(123,-9,cs),
(129,-6,o),
(136,-1,o),
(145,6,cs),
(382,190,o),
(356,277,o),
(361,331,cs),
(390,600,l),
(392,610,o),
(392,620,o),
(392,630,cs),
(392,679,o),
(379,721,o),
(353,715,cs),
(322,707,o),
(192,576,o),
(231,585,cs),
(238,587,o),
(248,572,o),
(248,530,cs),
(246,488,l),
(217,219,l),
(210,152,l),
(187,194,o),
(135,249,o),
(95,249,cs),
(91,249,o),
(86,248,o),
(82,247,cs),
(54,237,o),
(-54,93,o),
(-18,105,cs),
(18,118,o),
(99,29,o),
(107,-12,cs)
);
}
);
width = 427;
}
);
unicode = 74;
userData = {
KernOnName = J;
};
},
{
glyphname = K;
kernLeft = KO_K;
kernRight = KO_K;
lastChange = "2024-04-12 00:46:34 +0000";
layers = (
{
anchors = (
{
name = bottom;
pos = (242,27);
},
{
name = left;
pos = (99,645);
},
{
name = top;
pos = (295,724);
}
);
background = {
anchors = (
{
name = bottom;
pos = (242,27);
},
{
name = left;
pos = (99,645);
},
{
name = top;
pos = (295,724);
}
);
shapes = (
{
closed = 1;
nodes = (
(295,459,o),
(175,324,o),
(193,314,cs),
(212,303,o),
(300,10,o),
(395,0,cs),
(417,-2,o),
(534,135,o),
(509,138,cs),
(422,146,o),
(334,437,o),
(311,450,cs)
);
},
{
closed = 1;
nodes = (
(140,698,o),
(46,599,o),
(46,581,cs),
(46,577,o),
(49,576,o),
(55,579,cs),
(63,582,o),
(68,573,o),
(68,538,cs),
(68,527,o),
(68,513,o),
(67,496,cs),
(38,118,ls),
(36,102,o),
(35,87,o),
(35,72,cs),
(35,30,o),
(44,0,o),
(78,0,cs),
(104,0,o),
(235,152,o),
(202,152,cs),
(186,152,o),
(180,159,o),
(180,187,cs),
(182,230,l),
(211,608,ls),
(215,657,o),
(210,711,o),
(181,711,cs),
(178,711,o),
(175,711,o),
(171,709,cs)
);
},
{
closed = 1;
nodes = (
(497,567,o),
(535,675,o),
(535,706,cs),
(535,714,o),
(533,717,o),
(526,711,cs),
(508,695,o),
(478,685,o),
(449,685,cs),
(422,685,o),
(396,694,o),
(381,713,cs),
(368,729,o),
(315,596,o),
(315,555,cs),
(315,551,o),
(315,547,o),
(317,545,cs),
(333,525,o),
(360,515,o),
(390,515,cs),
(421,515,o),
(453,526,o),
(476,547,cs)
);
},
{
closed = 1;
nodes = (
(502,600,o),
(471,607,o),
(439,607,cs),
(416,607,o),
(393,604,o),
(386,596,cs),
(364,570,o),
(73,259,o),
(65,251,cs),
(54,239,o),
(86,232,o),
(117,232,cs),
(141,232,o),
(164,236,o),
(171,243,cs),
(179,252,o),
(469,563,o),
(492,588,cs)
);
}
);
};
layerId = m01;
shapes = (
{
closed = 1;
nodes = (
(104,0,o),
(235,152,o),
(202,152,cs),
(186,152,o),
(180,159,o),
(180,187,cs),
(182,230,l),
(184,257,l),
(209,284,l),
(244,207,o),
(317,8,o),
(395,0,cs),
(417,-2,o),
(534,135,o),
(509,138,cs),
(439,144,o),
(368,335,o),
(331,415,c),
(430,521,l),
(447,526,o),
(463,535,o),
(476,547,cs),
(497,567,o),
(535,675,o),
(535,706,cs),
(535,714,o),
(533,717,o),
(526,711,cs),
(508,695,o),
(478,685,o),
(449,685,cs),
(422,685,o),
(396,694,o),
(381,713,cs),
(368,729,o),
(315,596,o),
(315,555,cs),
(315,551,o),
(315,547,o),
(317,545,cs),
(320,541,o),
(324,537,o),
(329,533,c),
(194,389,l),
(211,608,ls),
(215,657,o),
(210,711,o),
(181,711,cs),
(178,711,o),
(175,711,o),
(171,709,cs),
(140,698,o),
(46,599,o),
(46,581,cs),
(46,577,o),
(49,576,o),
(55,579,cs),
(63,582,o),
(68,573,o),
(68,538,cs),
(67,496,l),
(38,118,ls),
(36,102,o),
(35,87,o),
(35,72,cs),
(35,30,o),
(44,0,o),
(78,0,cs)
);
}
);
width = 560;
}
);
unicode = 75;
},
{
color = 1;
glyphname = Khook;
kernLeft = KO_Thorn;
kernRight = KO_Khook;
lastChange = "2024-04-12 00:46:34 +0000";
layers = (
{
anchors = (
{
name = bottom;
pos = (271,0);
},
{
name = left;
pos = (99,645);
},
{
name = top;
pos = (289,709);
}
);
layerId = m01;
shapes = (
{
closed = 1;
nodes = (
(141,232,o),
(165,236,o),
(171,244,cs),
(178,252,o),
(433,593,o),
(456,618,cs),
(469,633,o),
(397,675,o),
(384,660,cs),
(363,636,o),
(72,260,o),
(65,250,cs),
(56,238,o),
(86,232,o),
(117,232,cs)
);
},
{
closed = 1;
nodes = (
(104,0,o),
(235,152,o),
(202,152,cs),
(186,152,o),
(180,159,o),
(180,187,cs),
(182,230,l),
(211,608,ls),
(213,623,o),
(213,639,o),
(213,653,cs),
(213,684,o),
(209,709,o),
(190,709,cs),
(186,709,o),
(183,709,o),
(179,707,cs),
(148,696,o),
(54,597,o),
(54,579,cs),
(54,575,o),
(57,574,o),
(63,577,cs),
(68,579,o),
(71,576,o),
(71,562,cs),
(67,496,l),
(38,118,ls),
(36,102,o),
(35,87,o),
(35,72,cs),
(35,30,o),
(44,0,o),
(78,0,cs)
);
},
{
closed = 1;
nodes = (
(417,-2,o),
(534,135,o),
(509,138,cs),
(422,146,o),
(334,437,o),
(311,450,cs),
(295,459,o),
(175,324,o),
(193,314,cs),
(212,303,o),
(300,10,o),
(395,0,cs)
);
},
{
closed = 1;
nodes = (
(503,456,o),
(589,534,o),
(610,574,cs),
(615,586,o),
(618,599,o),
(618,613,cs),
(618,662,o),
(584,715,o),
(522,715,cs),
(488,715,o),
(426,707,o),
(384,660,cs),
(359,632,o),
(336,587,o),
(327,565,cs),
(325,561,o),
(344,572,o),
(364,588,cs),
(371,594,o),
(396,606,o),
(406,606,cs),
(492,606,o),
(494,551,o),
(494,500,cs),
(494,490,o),
(492,480,o),
(486,470,c),
(484,465,o),
(483,462,o),
(483,459,cs),
(483,457,o),
(484,456,o),
(486,456,cs)
);
}
);
width = 532;
}
);
unicode = 408;
},
{
glyphname = L;
kernLeft = KO_L;
kernRight = KO_L;
lastChange = "2024-04-12 00:46:34 +0000";
layers = (
{
anchors = (
{
name = bottom;
pos = (187,0);
},
{
name = center;
pos = (120,350);
},
{
name = top;
pos = (195,728);
},
{
name = topright;
pos = (277,709);
}
);
background = {
anchors = (
{
name = bottom;
pos = (187,0);
},
{
name = center;
pos = (120,350);
},
{
name = top;
pos = (195,728);
},
{
name = topright;
pos = (277,709);
}
);
shapes = (
{
closed = 1;
nodes = (
(55,99,o),
(13,-1,o),
(28,-1,cs),
(31,-1,o),
(36,2,o),
(43,11,cs),
(61,32,o),
(91,47,o),
(123,47,cs),
(138,47,o),
(154,44,o),
(169,37,cs),
(197,23,o),
(236,2,o),
(274,2,cs),
(291,2,o),
(308,6,o),
(325,18,cs),
(345,32,o),
(386,144,o),
(386,177,cs),
(386,185,o),
(383,188,o),
(377,184,cs),
(361,172,o),
(346,168,o),
(331,168,cs),
(309,168,o),
(287,178,o),
(263,189,cs),
(244,199,o),
(225,204,o),
(205,204,cs),
(167,204,o),
(128,185,o),
(87,137,cs)
);
},
{
closed = 1;
nodes = (
(147,703,o),
(20,575,o),
(57,583,cs),
(67,585,o),
(71,579,o),
(71,562,cs),
(71,547,o),
(68,523,o),
(65,490,cs),
(27,21,ls),
(24,-16,o),
(164,122,o),
(167,155,cs),
(179,303,o),
(194,450,o),
(207,598,cs),
(208,615,o),
(210,635,o),
(210,653,cs),
(210,687,o),
(203,715,o),
(177,709,cs)
);
}
);
};
layerId = m01;
shapes = (
{
closed = 1;
nodes = (
(31,-1,o),
(36,2,o),
(43,11,cs),
(61,32,o),
(91,47,o),
(123,47,cs),
(138,47,o),
(154,44,o),
(169,37,cs),
(197,23,o),
(236,2,o),
(274,2,cs),
(291,2,o),
(308,6,o),
(325,18,cs),
(345,32,o),
(386,144,o),
(386,177,cs),
(386,185,o),
(383,188,o),
(377,184,cs),
(361,172,o),
(346,168,o),
(331,168,cs),
(309,168,o),
(287,178,o),
(263,189,cs),
(244,199,o),
(225,204,o),
(205,204,cs),
(194,204,o),
(182,202,o),
(171,199,c),
(182,332,o),
(195,465,o),
(207,598,cs),
(208,615,o),
(210,635,o),
(210,653,cs),
(210,687,o),
(203,715,o),
(177,709,cs),
(147,703,o),
(20,575,o),
(57,583,cs),
(67,585,o),
(71,579,o),
(71,562,cs),
(71,547,o),
(68,523,o),
(65,490,cs),
(27,21,l),
(27,18,l),
(24,6,o),
(24,-1,o),
(28,-1,cs)
);
}
);
width = 426;
}
);
unicode = 76;
userData = {
KernOnName = L;
};
},
{
glyphname = M;
kernLeft = KO_M;
kernRight = KO_M;
lastChange = "2024-04-12 00:46:34 +0000";
layers = (
{
anchors = (
{
name = bottom;
pos = (349,0);
},
{
name = top;
pos = (426,708);
}
);
background = {
anchors = (
{
name = bottom;
pos = (349,0);
},
{
name = top;
pos = (426,708);
}
);
shapes = (
{
closed = 1;
nodes = (
(269,730,o),
(142,605,o),
(152,587,cs),
(221,475,o),
(244,49,o),
(299,-2,cs),
(313,-15,o),
(440,111,o),
(425,124,cs),
(376,171,o),
(349,599,o),
(280,713,cs)
);
},
{
closed = 1;
nodes = (
(32,85,o),
(35,83,o),
(41,83,cs),
(62,83,o),
(127,119,o),
(133,138,cs),
(216,372,o),
(224,654,o),
(224,657,cs),
(226,683,o),
(143,605,o),
(142,583,cs),
(141,572,o),
(119,329,o),
(35,92,cs)
);
},
{
closed = 1;
nodes = (
(302,148,o),
(306,145,o),
(314,145,cs),
(338,145,o),
(397,169,o),
(403,186,cs),
(495,406,o),
(548,620,o),
(550,640,cs),
(551,647,o),
(548,650,o),
(543,650,cs),
(523,650,o),
(469,608,o),
(466,584,cs),
(464,574,o),
(393,368,o),
(305,154,cs)
);
},
{
closed = 1;
nodes = (
(603,737,o),
(474,613,o),
(474,585,cs),
(475,497,ls),
(475,322,o),
(477,3,o),
(538,-1,cs),
(561,-2,o),
(684,123,o),
(656,125,cs),
(608,127,o),
(604,389,o),
(604,569,cs),
(604,667,l),
(604,707,ls)
);
},
{
closed = 1;
nodes = (
(9,148,o),
(-30,38,o),
(-30,7,cs),
(-30,-1,o),
(-27,-4,o),
(-21,2,cs),
(-3,18,o),
(28,28,o),
(58,28,cs),
(87,28,o),
(114,19,o),
(128,0,cs),
(141,-18,o),
(194,121,o),
(194,159,cs),
(194,163,o),
(193,166,o),
(192,168,cs),
(177,188,o),
(149,198,o),
(118,198,cs),
(86,198,o),
(52,187,o),
(29,166,cs)
);
}
);
};
layerId = m01;
shapes = (
{
closed = 1;
nodes = (
(313,-15,o),
(440,111,o),
(425,124,cs),
(416,132,o),
(408,153,o),
(400,182,c),
(402,183,o),
(403,185,o),
(403,186,c),
(431,253,o),
(455,319,o),
(476,379,c),
(478,208,o),
(489,2,o),
(538,-1,cs),
(561,-2,o),
(684,123,o),
(656,125,cs),
(608,127,o),
(604,389,o),
(604,569,cs),
(604,707,ls),
(603,728,o),
(539,673,o),
(501,628,c),
(483,614,o),
(468,597,o),
(466,584,cs),
(465,577,o),
(427,466,o),
(372,323,c),
(347,467,o),
(321,645,o),
(280,713,cs),
(273,724,o),
(220,678,o),
(184,638,c),
(163,619,o),
(142,594,o),
(142,583,cs),
(141,573,o),
(125,391,o),
(66,188,c),
(52,183,o),
(39,176,o),
(29,166,cs),
(9,148,o),
(-30,38,o),
(-30,7,cs),
(-30,-1,o),
(-27,-4,o),
(-21,2,cs),
(-3,18,o),
(28,28,o),
(58,28,cs),
(87,28,o),
(114,19,o),
(128,0,cs),
(141,-18,o),
(194,121,o),
(194,159,cs),
(194,163,o),
(193,166,o),
(192,168,cs),
(183,180,o),
(168,189,o),
(151,194,c),
(175,274,o),
(191,356,o),
(202,429,c),
(237,261,o),
(260,34,o),
(299,-2,cs)
);
}
);
width = 700;
}
);
unicode = 77;
userData = {
KernOnName = M;
};
},
{
glyphname = N;
kernLeft = KO_N;
kernRight = KO_N;
lastChange = "2024-04-12 00:46:34 +0000";
layers = (
{
anchors = (
{
name = bottom;
pos = (266,30);
},
{
name = top;
pos = (326,723);
}
);
background = {
anchors = (
{
name = bottom;
pos = (266,30);
},
{
name = top;
pos = (326,723);
}
);
shapes = (
{
closed = 1;
nodes = (
(190,728,o),
(69,609,o),
(79,591,cs),
(170,428,o),
(270,129,o),
(373,2,cs),
(385,-13,o),
(506,107,o),
(493,122,cs),
(392,247,o),
(292,546,o),
(201,709,cs)
);
},
{
closed = 1;
nodes = (
(9,150,o),
(-30,40,o),
(-30,9,cs),
(-30,1,o),
(-27,-2,o),
(-21,4,cs),
(-3,20,o),
(27,30,o),
(56,30,cs),
(83,30,o),
(109,21,o),
(124,2,cs),
(138,-15,o),
(190,122,o),
(190,161,cs),
(190,165,o),
(189,168,o),
(188,170,c),
(172,190,o),
(145,200,o),
(115,200,cs),
(84,200,o),
(52,189,o),
(29,168,cs)
);
},
{
closed = 1;
nodes = (
(539,565,o),
(577,673,o),
(577,704,cs),
(577,712,o),
(575,715,o),
(568,709,cs),
(550,693,o),
(520,683,o),
(491,683,cs),
(464,683,o),
(438,692,o),
(423,711,cs),
(410,727,o),
(357,594,o),
(357,553,cs),
(357,549,o),
(357,545,o),
(359,543,cs),
(375,523,o),
(402,513,o),
(432,513,cs),
(463,513,o),
(495,524,o),
(518,545,cs)
);
},
{
closed = 1;
nodes = (
(45,41,o),
(50,35,o),
(59,35,cs),
(82,35,o),
(131,75,o),
(137,107,cs),
(148,167,o),
(188,635,o),
(188,636,cs),
(189,648,o),
(184,653,o),
(176,653,cs),
(152,653,o),
(101,610,o),
(98,578,cs),
(96,562,o),
(59,116,o),
(47,55,cs)
);
},
{
closed = 1;
nodes = (
(370,41,o),
(375,35,o),
(384,35,cs),
(407,35,o),
(456,75,o),
(462,107,cs),
(473,167,o),
(513,635,o),
(513,636,cs),
(514,648,o),
(509,653,o),
(501,653,cs),
(477,653,o),
(426,610,o),
(423,578,cs),
(421,562,o),
(384,116,o),
(372,55,cs)
);
}
);
};
layerId = m01;
shapes = (
{
closed = 1;
nodes = (
(138,-15,o),
(190,122,o),
(190,161,cs),
(190,165,o),
(189,168,o),
(188,170,c),
(178,182,o),
(164,191,o),
(148,196,c),
(168,406,l),
(233,256,o),
(303,89,o),
(373,2,cs),
(385,-13,o),
(506,107,o),
(493,122,cs),
(468,156,l),
(478,245,o),
(494,422,o),
(504,534,c),
(509,537,o),
(514,541,o),
(518,545,cs),
(539,565,o),
(577,673,o),
(577,704,cs),
(577,712,o),
(575,715,o),
(568,709,cs),
(550,693,o),
(520,683,o),
(491,683,cs),
(464,683,o),
(438,692,o),
(423,711,cs),
(410,727,o),
(357,594,o),
(357,553,cs),
(357,549,o),
(357,545,o),
(359,543,cs),
(372,526,o),
(393,517,o),
(417,514,c),
(397,285,l),
(329,424,o),
(263,598,o),
(201,709,cs),
(190,728,o),
(69,609,o),
(79,591,cs),
(96,559,l),
(91,500,o),
(76,319,o),
(63,189,c),
(50,184,o),
(39,177,o),
(29,168,cs),
(9,150,o),
(-30,40,o),
(-30,9,cs),
(-30,1,o),
(-27,-2,o),
(-21,4,cs),
(-3,20,o),
(27,30,o),
(56,30,cs),
(83,30,o),
(109,21,o),
(124,2,cs)
);
}
);
width = 557;
}
);
unicode = 78;
userData = {
KernOnName = N;
};
},
{
color = 0;
glyphname = Nhookleft;
kernRight = KO_N;
lastChange = "2024-04-12 00:46:34 +0000";
layers = (
{
anchors = (
{
name = bottom;
pos = (279,0);
},
{
name = top;
pos = (339,709);
}
);
layerId = m01;
shapes = (
{
closed = 1;
nodes = (
(-44,-196,o),
(-31,-194,o),
(-17,-191,cs),
(48,-173,o),
(119,-91,o),
(119,-72,c),
(129,-20,o),
(157,225,o),
(177,413,c),
(244,262,o),
(314,90,o),
(386,2,cs),
(398,-13,o),
(519,107,o),
(506,122,cs),
(481,156,l),
(491,245,o),
(507,422,o),
(517,534,c),
(522,537,o),
(527,541,o),
(531,545,cs),
(552,565,o),
(590,673,o),
(590,704,cs),
(590,712,o),
(588,715,o),
(581,709,cs),
(563,693,o),
(533,683,o),
(504,683,cs),
(477,683,o),
(451,692,o),
(436,711,cs),
(423,727,o),
(370,594,o),
(370,553,cs),
(370,549,o),
(370,545,o),
(372,543,cs),
(385,526,o),
(406,517,o),
(430,514,c),
(410,285,l),
(342,424,o),
(276,598,o),
(214,709,cs),
(203,728,o),
(82,609,o),
(92,591,cs),
(109,559,l),
(100,471,o),
(61,96,o),
(42,-67,c),
(12,-56,o),
(-14,-30,o),
(-19,8,cs),
(-23,35,o),
(-145,-82,o),
(-141,-108,cs),
(-134,-161,o),
(-106,-196,o),
(-55,-196,cs)
);
}
);
width = 570;
}
);
unicode = 413;
},
{
color = 0;
glyphname = Eng;
kernLeft = KO_Eng;
kernRight = KO_Eng;
lastChange = "2024-04-12 00:46:34 +0000";
layers = (
{
anchors = (
{
name = bottom;
pos = (346,0);
},
{
name = top;
pos = (406,709);
}
);
background = {
anchors = (
{
name = bottom;
pos = (346,0);
},
{
name = top;
pos = (406,709);
}
);
shapes = (
{
closed = 1;
nodes = (
(293,-139,o),
(291,-146,o),
(291,-149,cs),
(291,-152,o),
(292,-153,o),
(294,-153,cs),
(312,-153,o),
(394,-79,o),
(421,-32,cs),
(506,112,o),
(474,194,o),
(509,513,cs),
(511,528,o),
(512,542,o),
(512,556,cs),
(512,645,o),
(476,697,o),
(419,697,cs),
(351,697,o),
(254,623,o),
(152,447,cs),
(129,409,o),
(118,376,o),
(118,361,cs),
(118,355,o),
(120,352,o),
(123,352,cs),
(129,352,o),
(142,365,o),
(160,397,cs),
(218,496,o),
(280,553,o),
(322,553,cs),
(355,553,o),
(376,519,o),
(376,446,cs),
(376,429,o),
(375,410,o),
(373,389,cs),
(337,74,o),
(356,-32,o),
(299,-130,cs)
);
},
{
closed = 1;
nodes = (
(282,-189,o),
(370,-98,o),
(370,-78,cs),
(370,-75,o),
(368,-74,o),
(362,-75,cs),
(351,-78,o),
(340,-80,o),
(330,-80,cs),
(286,-80,o),
(259,-51,o),
(252,2,cs),
(248,29,o),
(126,-88,o),
(130,-114,cs),
(137,-167,o),
(165,-202,o),
(216,-202,cs),
(227,-202,o),
(240,-200,o),
(254,-197,cs)
);
},
{
closed = 1;
nodes = (
(88,50,o),
(167,93,o),
(152,106,cs),
(138,118,o),
(159,139,o),
(159,177,cs),
(159,229,o),
(171,339,o),
(192,598,cs),
(193,609,o),
(193,618,o),
(193,626,cs),
(193,666,o),
(183,679,o),
(168,707,cs),
(158,726,o),
(34,609,o),
(44,591,cs),
(56,569,o),
(61,560,o),
(61,537,cs),
(61,527,o),
(60,514,o),
(58,496,cs),
(40,263,o),
(30,148,o),
(30,86,cs),
(30,27,o),
(52,80,o),
(73,63,cs)
);
},
{
closed = 1;
nodes = (
(293,-139,o),
(291,-146,o),
(291,-149,cs),
(291,-152,o),
(292,-153,o),
(294,-153,cs),
(312,-153,o),
(394,-79,o),
(421,-32,cs),
(506,112,o),
(474,194,o),
(509,513,cs),
(511,528,o),
(512,542,o),
(512,556,cs),
(512,645,o),
(476,697,o),
(419,697,cs),
(351,697,o),
(254,623,o),
(152,447,cs),
(129,409,o),
(118,376,o),
(118,361,cs),
(118,355,o),
(120,352,o),
(123,352,cs),
(129,352,o),
(142,365,o),
(160,397,cs),
(218,496,o),
(280,553,o),
(322,553,cs),
(355,553,o),
(376,519,o),
(376,446,cs),
(376,429,o),
(375,410,o),
(373,389,cs),
(337,74,o),
(356,-32,o),
(299,-130,cs)
);
},
{
closed = 1;
nodes = (
(282,-189,o),
(370,-98,o),
(370,-78,cs),
(370,-75,o),
(368,-74,o),
(362,-75,cs),
(351,-78,o),
(340,-80,o),
(330,-80,cs),
(286,-80,o),
(259,-51,o),
(252,2,cs),
(248,29,o),
(126,-88,o),
(130,-114,cs),
(137,-167,o),
(165,-202,o),
(216,-202,cs),
(227,-202,o),
(240,-200,o),
(254,-197,cs)
);
},
{
closed = 1;
nodes = (
(9,150,o),
(-30,40,o),
(-30,9,cs),
(-30,1,o),
(-27,-2,o),
(-21,4,cs),
(-3,20,o),
(27,30,o),
(56,30,cs),
(83,30,o),
(109,21,o),
(124,2,cs),
(138,-15,o),
(190,122,o),
(190,161,cs),
(190,165,o),
(189,168,o),
(188,170,c),
(172,190,o),
(145,200,o),
(115,200,cs),
(84,200,o),
(52,189,o),
(29,168,cs)
);
}
);
};
layerId = m01;
shapes = (
{
closed = 1;
nodes = (
(199,-202,o),
(212,-200,o),
(226,-197,cs),
(244,-192,o),
(285,-154,o),
(313,-122,c),
(343,-96,o),
(377,-59,o),
(393,-32,cs),
(473,102,o),
(484,222,o),
(492,556,cs),
(494,645,o),
(476,697,o),
(419,697,cs),
(358,697,o),
(283,638,o),
(193,499,c),
(201,598,ls),
(202,609,o),
(202,618,o),
(202,626,cs),
(202,666,o),
(192,679,o),
(177,707,cs),
(167,726,o),
(34,609,o),
(44,591,cs),
(56,569,o),
(61,560,o),
(61,537,cs),
(61,527,o),
(60,514,o),
(58,496,cs),
(33,172,l),
(29,168,ls),
(9,150,o),
(-30,40,o),
(-30,9,cs),
(-30,1,o),
(-27,-2,o),
(-21,4,cs),
(-3,20,o),
(27,30,o),
(56,30,cs),
(83,30,o),
(109,21,o),
(124,2,cs),
(138,-15,o),
(199,122,o),
(199,161,cs),
(199,165,o),
(198,168,o),
(197,170,cs),
(190,179,o),
(180,186,o),
(159,191,c),
(170,232,o),
(176,302,o),
(187,426,c),
(239,507,o),
(281,553,o),
(319,553,cs),
(352,553,o),
(353,519,o),
(353,473,cs),
(353,456,o),
(340,344,o),
(336,257,cs),
(330,126,o),
(323,9,o),
(294,-80,c),
(255,-76,o),
(231,-48,o),
(224,2,cs),
(220,29,o),
(98,-88,o),
(102,-114,cs),
(109,-167,o),
(137,-202,o),
(188,-202,cs)
);
}
);
width = 522;
}
);
unicode = 330;
},
{
glyphname = O;
kernLeft = KO_O;
kernRight = KO_O;
lastChange = "2024-04-12 00:46:34 +0000";
layers = (
{
anchors = (
{
name = bottom;
pos = (193,-10);
},
{
name = center;
pos = (224,350);
},
{
name = ogonek;
pos = (219,4);
},
{
name = top;
pos = (310,731);
},
{
name = topleft;
pos = (26,700);
},
{
name = topright;
pos = (325,700);
}
);
background = {
anchors = (
{
name = bottom;
pos = (193,-10);
},
{
name = center;
pos = (224,350);
},
{
name = ogonek;
pos = (219,4);
},
{
name = top;
pos = (310,731);
},
{
name = topleft;
pos = (26,700);
},
{
name = topright;
pos = (325,700);
}
);
shapes = (
{
closed = 1;
nodes = (
(166,62,o),
(139,21,o),
(139,0,cs),
(139,-9,o),
(144,-14,o),
(154,-14,cs),
(167,-14,o),
(189,-5,o),
(219,17,cs),
(318,89,o),
(440,226,o),
(440,399,cs),
(440,495,o),
(402,602,o),
(302,715,cs),
(288,731,o),
(191,546,o),
(206,529,cs),
(304,418,o),
(336,333,o),
(336,269,cs),
(336,152,o),
(227,107,o),
(219,101,cs)
);
},
{
closed = 1;
nodes = (
(273,580,o),
(309,666,o),
(309,699,cs),
(309,707,o),
(307,712,o),
(302,712,cs),
(297,712,o),
(289,707,o),
(277,695,cs),
(209,625,o),
(5,342,o),
(5,153,cs),
(5,70,o),
(45,5,o),
(153,-15,cs),
(183,-21,o),
(310,89,o),
(310,120,cs),
(310,124,o),
(308,126,o),
(303,127,cs),
(179,150,o),
(141,218,o),
(141,293,cs),
(141,408,o),
(232,538,o),
(233,539,cs)
);
}
);
};
guides = (
{
pos = (248,-16);
},
{
pos = (306,716);
}
);
layerId = m01;
shapes = (
{
closed = 1;
nodes = (
(159,-16,o),
(168,-13,o),
(179,-7,cs),
(190,-2,o),
(203,5,o),
(219,17,cs),
(318,89,o),
(440,226,o),
(440,399,cs),
(440,494,o),
(403,599,o),
(307,710,cs),
(302,715,ls),
(299,718,o),
(292,713,o),
(283,701,c),
(277,695,ls),
(209,625,o),
(5,342,o),
(5,153,cs),
(5,70,o),
(45,5,o),
(153,-15,cs)
);
},
{
closed = 1;
nodes = (
(172,163,o),
(141,225,o),
(141,293,cs),
(141,379,o),
(192,473,o),
(218,516,c),
(307,411,o),
(336,330,o),
(336,269,cs),
(336,204,o),
(302,161,o),
(271,135,c)
);
}
);
width = 475;
}
);
unicode = 79;
userData = {
KernOnName = O;
};
},
{
color = 4;
glyphname = Ohorn;
kernLeft = KO_Q;
kernRight = KO_Ohorn;
lastChange = "2024-04-12 00:46:34 +0000";
layers = (
{
anchors = (
{
name = bottom;
pos = (159,10);
},
{
name = center;
pos = (236,350);
},
{
name = ogonek;
pos = (231,4);
},
{
name = top;
pos = (288,742);
},
{
name = topleft;
pos = (38,700);
},
{
name = topright;
pos = (523,844);
}
);
guides = (
{
pos = (552,1120);
},
{
pos = (329,936);
},
{
pos = (329,911);
},
{
pos = (-213,910);
},
{
pos = (288,725);
}
);
layerId = m01;
shapes = (
{
closed = 1;
nodes = (
(171,-16,o),
(180,-13,o),
(191,-7,cs),
(202,-2,o),
(215,5,o),
(231,17,cs),
(330,89,o),
(452,226,o),
(452,399,cs),
(452,465,o),
(434,535,o),
(391,610,c),
(449,631,o),
(510,668,o),
(555,732,cs),
(569,751,o),
(579,772,o),
(579,800,cs),
(579,845,o),
(549,872,o),
(523,867,cs),
(497,862,o),
(386,748,o),
(421,755,cs),
(426,756,o),
(431,756,o),
(436,756,cs),
(470,756,o),
(504,736,o),
(502,716,c),
(495,709,o),
(483,702,o),
(459,702,cs),
(442,702,o),
(348,705,o),
(316,714,c),
(315,714,l),
(314,715,ls),
(311,718,o),
(304,713,o),
(295,701,c),
(289,695,ls),
(221,625,o),
(17,342,o),
(17,153,cs),
(17,70,o),
(57,5,o),
(165,-15,cs)
);
},
{
closed = 1;
nodes = (
(184,163,o),
(153,225,o),
(153,293,cs),
(153,379,o),
(204,473,o),
(230,516,c),
(319,411,o),
(348,330,o),
(348,269,cs),
(348,204,o),
(314,161,o),
(283,135,c)
);
}
);
width = 478;
}
);
unicode = 416;
},
{
color = 3;
glyphname = "Omega-latin";
lastChange = "2024-04-12 00:46:34 +0000";
layers = (
{
background = {
shapes = (
{
closed = 1;
nodes = (
(343,666,o),
(359,672,o),
(359,675,cs),
(359,677,o),
(358,678,o),
(355,678,cs),
(336,678,o),
(256,632,o),
(219,593,cs),
(62,430,o),
(5,251,o),
(5,159,cs),
(5,43,o),
(94,-16,o),
(185,-16,cs),
(233,-16,o),
(282,1,o),
(318,35,cs),
(348,63,o),
(414,218,o),
(397,218,cs),
(396,218,o),
(393,216,o),
(390,213,cs),
(352,177,o),
(303,159,o),
(258,159,cs),
(197,159,o),
(145,193,o),
(145,266,cs),
(145,389,o),
(184,502,o),
(334,657,cs)
);
},
{
closed = 1;
nodes = (
(341,481,o),
(468,608,o),
(459,626,cs),
(446,651,o),
(434,697,o),
(376,697,cs),
(346,697,o),
(309,680,o),
(264,634,cs),
(212,582,o),
(178,514,o),
(195,514,cs),
(201,514,o),
(213,522,o),
(232,542,cs),
(240,549,o),
(249,553,o),
(260,553,cs),
(289,553,o),
(310,541,o),
(331,500,cs)
);
},
{
closed = 1;
nodes = (
(572,120,o),
(552,98,o),
(552,85,cs),
(552,77,o),
(556,73,o),
(563,73,cs),
(580,73,o),
(613,96,o),
(650,145,cs),
(740,265,o),
(790,394,o),
(790,482,cs),
(790,615,o),
(733,700,o),
(654,700,cs),
(633,700,o),
(611,693,o),
(591,680,cs),
(538,645,o),
(443,513,o),
(470,513,cs),
(473,513,o),
(480,516,o),
(489,522,cs),
(505,532,o),
(521,537,o),
(535,537,cs),
(608,537,o),
(662,424,o),
(662,314,cs),
(662,261,o),
(625,189,o),
(596,151,cs)
);
},
{
closed = 1;
nodes = (
(439,376,o),
(426,382,o),
(423,382,cs),
(404,382,o),
(341,299,o),
(295,158,cs),
(292,148,o),
(290,134,o),
(290,123,cs),
(290,60,o),
(330,-16,o),
(457,-16,cs),
(491,-16,o),
(554,26,o),
(601,78,cs),
(651,133,o),
(662,178,o),
(642,178,cs),
(642,178,o),
(629,167,o),
(608,144,cs),
(604,140,o),
(599,138,o),
(592,138,cs),
(494,138,o),
(416,196,o),
(416,270,cs),
(416,310,o),
(419,335,o),
(434,366,cs)
);
}
);
};
layerId = m01;
shapes = (
{
closed = 1;
nodes = (
(233,-16,o),
(282,1,o),
(318,35,cs),
(320,37,l),
(345,6,o),
(388,-16,o),
(457,-16,cs),
(491,-16,o),
(554,26,o),
(601,78,cs),
(620,99,o),
(633,118,o),
(641,134,c),
(650,145,ls),
(740,265,o),
(790,394,o),
(790,482,cs),
(790,615,o),
(733,700,o),
(654,700,cs),
(633,700,o),
(611,693,o),
(591,680,cs),
(538,645,o),
(443,513,o),
(470,513,cs),
(473,513,o),
(480,516,o),
(489,522,cs),
(505,532,o),
(521,537,o),
(535,537,cs),
(608,537,o),
(662,424,o),
(662,314,cs),
(662,261,o),
(625,189,o),
(596,151,cs),
(586,138,l),
(491,140,o),
(416,198,o),
(416,270,cs),
(416,310,o),
(419,335,o),
(434,366,cs),
(439,376,o),
(426,382,o),
(423,382,cs),
(404,382,o),
(343,301,o),
(297,163,c),
(284,160,o),
(271,159,o),
(258,159,cs),
(197,159,o),
(145,193,o),
(145,266,cs),
(145,359,o),
(167,445,o),
(242,549,c),
(247,552,o),
(253,553,o),
(260,553,cs),
(289,553,o),
(310,541,o),
(331,500,cs),
(341,481,o),
(468,608,o),
(459,626,cs),
(446,651,o),
(434,697,o),
(376,697,cs),
(346,697,o),
(309,680,o),
(264,634,cs),
(253,623,l),
(240,613,o),
(228,603,o),
(219,593,cs),
(62,430,o),
(5,251,o),
(5,159,cs),
(5,43,o),
(94,-16,o),
(185,-16,cs)
);
}
);
width = 825;
}
);
metricLeft = O;
metricRight = O;
unicode = 42934;
},
{
glyphname = Oopen;
kernRight = KO_Oopen;
lastChange = "2024-04-12 00:46:34 +0000";
layers = (
{
anchors = (
{
name = bottom;
pos = (145,0);
},
{
name = top;
pos = (285,700);
}
);
layerId = m01;
shapes = (
{
closed = 1;
nodes = (
(182,67,o),
(249,113,o),
(292,171,cs),
(405,323,o),
(447,442,o),
(447,529,cs),
(447,659,o),
(354,719,o),
(264,719,cs),
(212,719,o),
(161,698,o),
(129,659,cs),
(95,619,o),
(40,482,o),
(55,482,cs),
(57,482,o),
(61,485,o),
(67,493,cs),
(96,528,o),
(139,546,o),
(182,546,cs),
(252,546,o),
(320,498,o),
(320,400,cs),
(320,333,o),
(288,241,o),
(202,125,cs),
(188,106,o),
(182,93,o),
(182,87,cs)
);
},
{
closed = 1;
nodes = (
(142,3,o),
(201,41,o),
(239,93,cs),
(274,143,o),
(309,238,o),
(296,238,cs),
(292,238,o),
(286,232,o),
(275,217,cs),
(263,200,o),
(210,171,o),
(162,171,cs),
(115,171,o),
(73,197,o),
(73,283,cs),
(73,293,o),
(71,296,o),
(69,296,cs),
(55,296,o),
(5,178,o),
(5,136,cs),
(5,40,o),
(44,3,o),
(93,3,cs)
);
}
);
width = 467;
}
);
unicode = 390;
},
{
glyphname = Oslash;
kernLeft = KO_O;
kernRight = KO_O;
lastChange = "2024-04-12 00:46:34 +0000";
layers = (
{
anchors = (
{
name = bottom;
pos = (231,0);
},
{
name = top;
pos = (344,794);
}
);
layerId = m01;
shapes = (
{
closed = 1;
nodes = (
(165,-15,o),
(185,-7,o),
(214,14,cs),
(322,90,o),
(440,230,o),
(440,400,cs),
(440,497,o),
(402,604,o),
(301,715,cs),
(287,731,o),
(190,546,o),
(205,529,cs),
(302,421,o),
(334,337,o),
(334,273,cs),
(334,154,o),
(224,105,o),
(222,104,cs),
(169,66,o),
(138,21,o),
(138,-1,cs),
(138,-10,o),
(143,-15,o),
(152,-15,cs)
);
},
{
closed = 1;
nodes = (
(185,-21,o),
(309,87,o),
(309,119,cs),
(309,123,o),
(307,126,o),
(302,127,cs),
(177,150,o),
(140,218,o),
(140,292,cs),
(140,407,o),
(229,536,o),
(229,536,c),
(268,574,o),
(308,666,o),
(308,700,cs),
(308,707,o),
(306,712,o),
(301,712,cs),
(297,712,o),
(289,708,o),
(279,698,cs),
(211,632,o),
(5,344,o),
(5,153,cs),
(5,69,o),
(45,4,o),
(152,-15,cs)
);
},
{
closed = 1;
nodes = (
(143,-57,o),
(185,-32,o),
(201,-1,cs),
(212,21,o),
(220,54,o),
(231,100,cs),
(234,109,o),
(234,118,o),
(234,128,cs),
(234,142,ls),
(234,151,o),
(234,159,o),
(236,168,cs),
(269,304,o),
(310,500,o),
(334,635,cs),
(336,645,o),
(345,651,o),
(347,659,cs),
(369,767,ls),
(372,782,o),
(366,788,o),
(357,788,cs),
(334,788,o),
(286,751,o),
(279,717,cs),
(257,607,ls),
(256,603,o),
(256,599,o),
(256,595,cs),
(257,573,l),
(256,561,l),
(232,427,o),
(191,229,o),
(158,94,cs),
(154,78,o),
(140,66,o),
(137,54,cs),
(126,10,o),
(114,-27,o),
(113,-29,cs),
(110,-36,o),
(108,-42,o),
(108,-46,cs),
(108,-54,o),
(114,-57,o),
(122,-57,cs)
);
}
);
width = 475;
}
);
unicode = 216;
},
{
glyphname = OE;
kernLeft = KO_O;
kernRight = KO_E;
lastChange = "2024-04-12 00:46:34 +0000";
layers = (
{
anchors = (
{
name = bottom;
pos = (324,0);
},
{
name = ogonek;
pos = (646,0);
},
{
name = top;
pos = (413,752);
},
{
name = topleft;
pos = (302,700);
}
);
background = {
anchors = (
{
name = bottom;
pos = (447,1);
},
{
name = ogonek;
pos = (646,0);
},
{
name = top;
pos = (577,700);
},
{
name = topleft;
pos = (302,700);
}
);
shapes = (
{
closed = 1;
nodes = (
(169,66,o),
(138,21,o),
(138,-1,cs),
(138,-10,o),
(143,-15,o),
(152,-15,cs),
(165,-15,o),
(185,-7,o),
(214,14,cs),
(322,90,o),
(440,230,o),
(440,400,cs),
(440,497,o),
(402,604,o),
(301,715,cs),
(287,731,o),
(190,546,o),
(205,529,cs),
(302,421,o),
(334,337,o),
(334,273,cs),
(334,154,o),
(224,105,o),
(222,104,cs)
);
},
{
closed = 1;
nodes = (
(268,574,o),
(308,666,o),
(308,700,cs),
(308,707,o),
(306,712,o),
(301,712,cs),
(297,712,o),
(289,708,o),
(279,698,cs),
(211,632,o),
(5,344,o),
(5,153,cs),
(5,69,o),
(45,4,o),
(152,-15,cs),
(185,-21,o),
(309,87,o),
(309,119,cs),
(309,123,o),
(307,126,o),
(302,127,cs),
(177,150,o),
(140,218,o),
(140,292,cs),
(140,407,o),
(229,536,o),
(229,536,c)
);
},
{
closed = 1;
nodes = (
(458,617,o),
(455,619,o),
(451,619,cs),
(432,619,o),
(375,574,o),
(373,552,cs),
(354,372,o),
(322,190,o),
(303,10,cs),
(302,-2,o),
(307,-5,o),
(313,-5,cs),
(316,-5,o),
(320,-4,o),
(322,-3,cs),
(351,9,o),
(372,21,o),
(396,21,cs),
(410,21,o),
(424,17,o),
(441,9,cs),
(470,-6,o),
(495,-17,o),
(523,-17,cs),
(541,-17,o),
(559,-13,o),
(580,-2,cs),
(609,12,o),
(687,115,o),
(687,136,cs),
(687,140,o),
(684,141,o),
(678,138,cs),
(663,131,o),
(648,128,o),
(633,128,cs),
(606,128,o),
(579,138,o),
(549,153,cs),
(532,161,o),
(515,165,o),
(498,165,cs),
(467,165,o),
(434,154,o),
(400,139,c),
(419,126,l),
(436,288,o),
(440,450,o),
(457,612,cs)
);
},
{
closed = 1;
nodes = (
(391,438,o),
(345,314,o),
(345,278,cs),
(345,272,o),
(346,268,o),
(349,268,cs),
(632,269,ls),
(649,269,o),
(696,392,o),
(696,429,cs),
(696,435,o),
(695,439,o),
(692,439,cs),
(409,438,ls)
);
},
{
closed = 1;
nodes = (
(715,545,o),
(748,657,o),
(748,693,cs),
(748,703,o),
(746,708,o),
(740,703,cs),
(730,696,o),
(710,693,o),
(684,693,cs),
(630,693,o),
(551,705,o),
(484,705,cs),
(439,705,o),
(400,699,o),
(378,681,cs),
(360,666,o),
(329,556,o),
(329,520,cs),
(329,511,o),
(331,507,o),
(336,511,cs),
(355,526,o),
(388,531,o),
(428,531,cs),
(491,531,o),
(569,519,o),
(627,519,cs),
(658,519,o),
(684,522,o),
(698,533,cs)
);
}
);
};
layerId = m01;
shapes = (
{
closed = 1;
nodes = (
(541,-17,o),
(559,-13,o),
(580,-2,cs),
(609,12,o),
(687,115,o),
(687,136,cs),
(687,140,o),
(684,141,o),
(678,138,cs),
(663,131,o),
(648,128,o),
(633,128,cs),
(606,128,o),
(579,138,o),
(549,153,cs),
(532,161,o),
(515,165,o),
(498,165,cs),
(473,165,o),
(448,158,o),
(421,148,c),
(431,268,l),
(632,269,ls),
(649,269,o),
(696,392,o),
(696,429,cs),
(696,435,o),
(695,439,o),
(692,439,cs),
(443,438,l),
(449,531,l),
(508,528,o),
(575,519,o),
(627,519,cs),
(658,519,o),
(684,522,o),
(698,533,cs),
(715,545,o),
(748,657,o),
(748,693,cs),
(748,703,o),
(746,708,o),
(740,703,cs),
(730,696,o),
(710,693,o),
(684,693,cs),
(630,693,o),
(551,705,o),
(484,705,cs),
(439,705,o),
(400,699,o),
(378,681,cs),
(372,676,o),
(365,662,o),
(358,643,c),
(342,667,o),
(323,691,o),
(301,715,cs),
(298,718,o),
(291,713,o),
(283,702,c),
(279,698,ls),
(211,632,o),
(5,344,o),
(5,153,cs),
(5,71,o),
(43,7,o),
(145,-14,c),
(147,-15,o),
(149,-15,o),
(152,-15,cs),
(158,-16,o),
(168,-13,o),
(180,-7,cs),
(189,-2,o),
(201,4,o),
(214,14,cs),
(248,38,o),
(282,67,o),
(314,102,c),
(303,10,ls),
(302,-2,o),
(307,-5,o),
(313,-5,cs),
(316,-5,o),
(320,-4,o),
(322,-3,cs),
(351,9,o),
(372,21,o),
(396,21,cs),
(410,21,o),
(424,17,o),
(441,9,cs),
(470,-6,o),
(495,-17,o),
(523,-17,cs)
);
},
{
closed = 1;
nodes = (
(170,163,o),
(140,225,o),
(140,292,cs),
(140,380,o),
(192,476,o),
(216,516,c),
(305,414,o),
(334,334,o),
(334,273,cs),
(334,206,o),
(299,161,o),
(268,135,c)
);
}
);
width = 768;
}
);
unicode = 338;
},
{
glyphname = P;
kernLeft = KO_P;
kernRight = KO_P;
lastChange = "2024-04-12 00:46:34 +0000";
layers = (
{
anchors = (
{
name = bottom;
pos = (224,0);
},
{
name = top;
pos = (224,730);
}
);
background = {
anchors = (
{
name = bottom;
pos = (224,0);
},
{
name = top;
pos = (224,730);
}
);
shapes = (
{
closed = 1;
nodes = (
(242,285,o),
(235,268,o),
(235,257,cs),
(235,248,o),
(240,244,o),
(248,244,cs),
(266,244,o),
(298,264,o),
(330,305,cs),
(407,405,o),
(438,485,o),
(438,548,cs),
(438,661,o),
(338,715,o),
(222,715,cs),
(195,715,o),
(167,713,o),
(140,707,cs),
(118,702,o),
(35,564,o),
(62,569,cs),
(95,576,o),
(124,579,o),
(151,579,cs),
(262,579,o),
(317,524,o),
(317,450,cs),
(317,406,o),
(298,356,o),
(260,307,cs)
);
},
{
closed = 1;
nodes = (
(259,215,o),
(346,318,o),
(346,356,cs),
(346,363,o),
(342,368,o),
(334,369,cs),
(215,382,o),
(157,398,o),
(122,398,cs),
(112,398,o),
(104,397,o),
(98,394,cs),
(79,387,o),
(35,267,o),
(35,234,cs),
(35,227,o),
(37,224,o),
(40,226,c),
(44,227,o),
(55,229,o),
(80,229,cs),
(107,229,o),
(152,227,o),
(224,219,cs)
);
},
{
closed = 1;
nodes = (
(217,629,o),
(76,519,o),
(74,492,cs),
(49,106,ls),
(45,42,o),
(58,0,o),
(89,0,cs),
(113,0,o),
(240,130,o),
(211,130,cs),
(195,130,o),
(189,142,o),
(189,176,cs),
(191,214,l),
(216,600,ls)
);
}
);
};
guides = (
{
pos = (113,716);
},
{
pos = (-217,587);
},
{
pos = (-226,373);
}
);
layerId = m01;
shapes = (
{
closed = 1;
nodes = (
(113,0,o),
(240,130,o),
(211,130,cs),
(195,130,o),
(189,142,o),
(189,176,cs),
(191,214,l),
(192,222,l),
(224,219,ls),
(241,217,o),
(269,239,o),
(294,267,c),
(305,277,o),
(318,289,o),
(330,305,cs),
(407,405,o),
(438,485,o),
(438,548,cs),
(438,661,o),
(338,715,o),
(222,715,cs),
(195,715,o),
(167,713,o),
(140,707,cs),
(118,702,o),
(35,564,o),
(62,569,cs),
(95,576,o),
(124,579,o),
(151,579,cs),
(162,579,l),
(122,551,o),
(75,508,o),
(74,492,cs),
(64,335,l),
(49,297,o),
(35,252,o),
(35,234,cs),
(35,227,o),
(37,224,o),
(40,226,cs),
(42,227,o),
(48,228,o),
(57,228,c),
(49,106,ls),
(45,42,o),
(58,0,o),
(89,0,cs)
);
},
{
closed = 1;
nodes = (
(202,387,l),
(214,572,l),
(283,555,o),
(317,508,o),
(317,450,cs),
(317,426,o),
(311,400,o),
(300,373,c)
);
}
);
width = 448;
}
);
unicode = 80;
userData = {
KernOnName = P;
};
},
{
color = 0;
glyphname = Phook;
lastChange = "2024-04-12 00:46:34 +0000";
layers = (
{
layerId = m01;
shapes = (
{
closed = 1;
nodes = (
(456,244,o),
(488,264,o),
(520,305,cs),
(601,410,o),
(632,490,o),
(632,550,cs),
(632,657,o),
(488,701,o),
(433,703,cs),
(339,707,o),
(272,533,o),
(298,537,cs),
(321,541,o),
(343,542,o),
(362,542,cs),
(456,542,o),
(509,505,o),
(509,442,cs),
(509,405,o),
(490,359,o),
(450,307,cs),
(432,285,o),
(425,268,o),
(425,257,cs),
(425,248,o),
(430,244,o),
(438,244,cs)
);
},
{
closed = 1;
nodes = (
(112,351,o),
(233,443,o),
(233,511,cs),
(233,516,o),
(231,519,o),
(227,519,cs),
(222,519,o),
(213,514,o),
(203,504,cs),
(188,491,o),
(166,485,o),
(147,485,cs),
(114,485,o),
(85,502,o),
(85,547,cs),
(85,557,o),
(86,579,o),
(103,594,cs),
(108,598,o),
(111,612,o),
(111,615,cs),
(111,619,o),
(92,612,o),
(91,609,c),
(72,589,o),
(27,537,o),
(11,483,cs),
(4,459,o),
(0,438,o),
(0,419,cs),
(0,373,o),
(23,351,o),
(56,351,cs)
);
},
{
closed = 1;
nodes = (
(449,215,o),
(536,318,o),
(536,356,cs),
(536,363,o),
(532,368,o),
(524,369,cs),
(405,382,o),
(303,398,o),
(250,398,cs),
(235,398,o),
(224,397,o),
(218,394,cs),
(199,387,o),
(155,267,o),
(155,234,cs),
(155,228,o),
(156,225,o),
(159,225,cs),
(152,225,o),
(181,229,o),
(233,229,cs),
(278,229,o),
(342,227,o),
(414,219,cs)
);
},
{
closed = 1;
nodes = (
(303,0,o),
(430,130,o),
(401,130,cs),
(385,130,o),
(379,141,o),
(379,175,cs),
(379,185,o),
(379,198,o),
(381,214,cs),
(418,654,ls),
(420,683,o),
(279,573,o),
(276,546,cs),
(239,106,l),
(238,81,ls),
(238,31,o),
(252,0,o),
(279,0,cs)
);
},
{
closed = 1;
nodes = (
(350,568,o),
(456,701,o),
(433,703,cs),
(374,707,o),
(361,707,o),
(346,707,cs),
(271,707,o),
(180,698,o),
(91,609,cs),
(61,579,o),
(103,585,o),
(120,585,cs),
(214,585,o),
(299,568,o),
(326,568,cs)
);
}
);
width = 642;
}
);
metricLeft = Bhook;
metricRight = P;
unicode = 420;
},
{
glyphname = Thorn;
kernLeft = KO_Thorn;
kernRight = KO_Thorn;
lastChange = "2024-04-12 00:46:34 +0000";
layers = (
{
background = {
shapes = (
{
closed = 1;
nodes = (
(230,241,o),
(218,218,o),
(218,206,cs),
(218,199,o),
(221,196,o),
(227,196,cs),
(242,196,o),
(272,215,o),
(310,258,cs),
(385,344,o),
(410,403,o),
(410,446,cs),
(410,508,o),
(357,536,o),
(320,557,c),
(186,562,ls),
(167,563,o),
(83,425,o),
(106,424,cs),
(238,419,l),
(279,396,o),
(292,371,o),
(292,347,cs),
(292,317,o),
(272,290,o),
(258,274,cs)
);
},
{
closed = 1;
nodes = (
(246,196,o),
(371,324,o),
(348,324,cs),
(231,324,o),
(185,330,o),
(171,330,cs),
(149,330,o),
(21,200,o),
(49,200,cs),
(61,200,o),
(107,196,o),
(224,196,cs)
);
},
{
closed = 1;
nodes = (
(203,720,o),
(62,610,o),
(60,583,cs),
(35,106,ls),
(32,42,o),
(44,0,o),
(75,0,cs),
(99,0,o),
(226,130,o),
(197,130,cs),
(181,130,o),
(175,142,o),
(175,178,cs),
(177,214,l),
(202,691,ls)
);
}
);
};
layerId = m01;
shapes = (
{
closed = 1;
nodes = (
(99,0,o),
(226,130,o),
(197,130,cs),
(181,130,o),
(175,142,o),
(175,178,cs),
(176,196,l),
(227,196,ls),
(242,196,o),
(272,215,o),
(310,258,cs),
(385,344,o),
(410,403,o),
(410,446,cs),
(410,508,o),
(357,536,o),
(320,557,c),
(195,562,l),
(202,691,ls),
(203,720,o),
(62,610,o),
(60,583,cs),
(35,106,ls),
(32,42,o),
(44,0,o),
(75,0,cs)
);
},
{
closed = 1;
nodes = (
(232,326,o),
(200,328,o),
(183,329,c),
(188,421,l),
(238,419,l),
(279,396,o),
(292,371,o),
(292,347,cs),
(292,339,o),
(291,332,o),
(288,325,c)
);
}
);
width = 430;
}
);
unicode = 222;
},
{
color = 3;
glyphname = Pstroke;
lastChange = "2024-04-12 00:46:34 +0000";
layers = (
{
anchors = (
{
name = bottom;
pos = (224,0);
},
{
name = top;
pos = (224,730);
}
);
background = {
anchors = (
{
name = bottom;
pos = (224,0);
},
{
name = top;
pos = (224,730);
}
);
shapes = (
{
closed = 1;
nodes = (
(242,285,o),
(235,268,o),
(235,257,cs),
(235,248,o),
(240,244,o),
(248,244,cs),
(266,244,o),
(298,264,o),
(330,305,cs),
(407,405,o),
(438,485,o),
(438,548,cs),
(438,661,o),
(338,715,o),
(222,715,cs),
(195,715,o),
(167,713,o),
(140,707,cs),
(118,702,o),
(35,564,o),
(62,569,cs),
(95,576,o),
(124,579,o),
(151,579,cs),
(262,579,o),
(317,524,o),
(317,450,cs),
(317,406,o),
(298,356,o),
(260,307,cs)
);
},
{
closed = 1;
nodes = (
(259,215,o),
(346,318,o),
(346,356,cs),
(346,363,o),
(342,368,o),
(334,369,cs),
(215,382,o),
(157,398,o),
(122,398,cs),
(112,398,o),
(104,397,o),
(98,394,cs),
(79,387,o),
(35,267,o),
(35,234,cs),
(35,227,o),
(37,224,o),
(40,226,c),
(44,227,o),
(55,229,o),
(80,229,cs),
(107,229,o),
(152,227,o),
(224,219,cs)
);
},
{
closed = 1;
nodes = (
(217,629,o),
(76,519,o),
(74,492,cs),
(49,106,ls),
(45,42,o),
(58,0,o),
(89,0,cs),
(113,0,o),
(240,130,o),
(211,130,cs),
(195,130,o),
(189,142,o),
(189,176,cs),
(191,214,l),
(216,600,ls)
);
},
{
closed = 1;
nodes = (
(39,525,o),
(17,469,o),
(17,433,cs),
(17,427,o),
(18,423,o),
(21,423,cs),
(441,423,ls),
(458,423,o),
(481,478,o),
(481,515,cs),
(481,521,o),
(480,525,o),
(477,525,cs),
(57,525,ls)
);
}
);
};
layerId = m01;
shapes = (
{
closed = 1;
nodes = (
(113,0,o),
(240,130,o),
(211,130,cs),
(195,130,o),
(189,142,o),
(189,176,cs),
(191,214,l),
(192,222,l),
(224,219,ls),
(241,217,o),
(269,239,o),
(294,267,c),
(305,277,o),
(318,289,o),
(330,305,cs),
(363,348,o),
(388,387,o),
(405,423,c),
(441,423,ls),
(458,423,o),
(481,478,o),
(481,515,cs),
(481,521,o),
(480,525,o),
(477,525,cs),
(437,525,l),
(438,548,ls),
(438,661,o),
(338,715,o),
(222,715,cs),
(195,715,o),
(167,713,o),
(140,707,cs),
(118,702,o),
(35,564,o),
(62,569,cs),
(95,576,o),
(124,579,o),
(151,579,cs),
(162,579,l),
(140,563,o),
(115,543,o),
(98,525,c),
(57,525,ls),
(39,525,o),
(17,469,o),
(17,433,cs),
(17,427,o),
(18,423,o),
(21,423,cs),
(70,423,l),
(64,335,l),
(49,297,o),
(35,252,o),
(35,234,cs),
(35,227,o),
(37,224,o),
(40,226,cs),
(42,227,o),
(48,228,o),
(57,228,c),
(49,106,ls),
(45,42,o),
(58,0,o),
(89,0,cs)
);
},
{
closed = 1;
nodes = (
(202,387,l),
(205,423,l),
(315,423,l),
(312,407,o),
(307,390,o),
(300,373,c)
);
},
{
closed = 1;
nodes = (
(214,572,l),
(249,563,o),
(275,547,o),
(292,525,c),
(211,525,l)
);
}
);
width = 448;
}
);
unicode = 11363;
},
{
glyphname = Q;
kernLeft = KO_Q;
kernRight = KO_Q;
lastChange = "2024-04-12 00:46:34 +0000";
layers = (
{
background = {
shapes = (
{
closed = 1;
nodes = (
(263,335,o),
(219,290,o),
(221,273,cs),
(232,189,o),
(302,-16,o),
(419,-16,cs),
(427,-16,o),
(436,-15,o),
(444,-13,cs),
(464,-8,o),
(520,137,o),
(520,177,cs),
(520,184,o),
(518,188,o),
(514,187,cs),
(497,183,o),
(480,181,o),
(463,181,cs),
(370,181,o),
(275,239,o),
(265,319,cs)
);
},
{
closed = 1;
nodes = (
(184,66,o),
(153,21,o),
(153,-1,cs),
(153,-10,o),
(158,-15,o),
(167,-15,cs),
(180,-15,o),
(200,-7,o),
(229,14,cs),
(337,90,o),
(455,230,o),
(455,400,cs),
(455,497,o),
(417,604,o),
(316,715,cs),
(302,731,o),
(205,546,o),
(220,529,cs),
(317,421,o),
(349,337,o),
(349,273,cs),
(349,154,o),
(239,105,o),
(237,104,cs)
);
},
{
closed = 1;
nodes = (
(283,574,o),
(323,666,o),
(323,700,cs),
(323,707,o),
(321,712,o),
(316,712,cs),
(312,712,o),
(304,708,o),
(294,698,cs),
(226,632,o),
(20,344,o),
(20,153,cs),
(20,69,o),
(60,4,o),
(167,-15,cs),
(200,-21,o),
(324,87,o),
(324,119,cs),
(324,123,o),
(322,126,o),
(317,127,cs),
(192,150,o),
(155,218,o),
(155,292,cs),
(155,407,o),
(244,536,o),
(244,536,c)
);
}
);
};
layerId = m01;
shapes = (
{
closed = 1;
nodes = (
(427,-16,o),
(436,-15,o),
(444,-13,cs),
(464,-8,o),
(520,137,o),
(520,177,cs),
(520,184,o),
(518,188,o),
(514,187,cs),
(497,183,o),
(480,181,o),
(463,181,cs),
(440,181,o),
(417,185,o),
(395,191,c),
(431,253,o),
(455,323,o),
(455,400,cs),
(455,497,o),
(417,604,o),
(316,715,cs),
(313,718,o),
(306,713,o),
(298,702,c),
(294,698,ls),
(226,632,o),
(20,344,o),
(20,153,cs),
(20,71,o),
(58,7,o),
(160,-14,c),
(162,-15,o),
(164,-15,o),
(167,-15,cs),
(173,-16,o),
(183,-13,o),
(195,-7,cs),
(204,-2,o),
(216,4,o),
(229,14,cs),
(251,30,o),
(274,48,o),
(297,69,c),
(328,21,o),
(369,-16,o),
(419,-16,cs)
);
},
{
closed = 1;
nodes = (
(180,174,o),
(155,231,o),
(155,292,cs),
(155,380,o),
(207,476,o),
(231,516,c),
(320,414,o),
(349,334,o),
(349,273,cs),
(349,252,o),
(345,233,o),
(340,216,c),
(300,240,o),
(270,277,o),
(265,319,cs),
(263,335,o),
(219,290,o),
(221,273,cs),
(225,241,o),
(238,192,o),
(258,143,c)
);
}
);
width = 560;
}
);
unicode = 81;
},
{
glyphname = Qhooktail;
lastChange = "2024-04-12 00:46:34 +0000";
layers = (
{
anchors = (
{
name = bottom;
pos = (193,-10);
},
{
name = center;
pos = (224,350);
},
{
name = ogonek;
pos = (219,4);
},
{
name = top;
pos = (310,731);
},
{
name = topleft;
pos = (26,700);
},
{
name = topright;
pos = (325,700);
}
);
layerId = m01;
shapes = (
{
closed = 1;
nodes = (
(159,-16,o),
(168,-13,o),
(179,-7,cs),
(190,-2,o),
(203,5,o),
(219,17,cs),
(318,89,o),
(440,226,o),
(440,399,cs),
(440,500,o),
(403,599,o),
(307,710,cs),
(302,715,ls),
(299,718,o),
(292,713,o),
(283,701,c),
(277,695,ls),
(209,625,o),
(5,342,o),
(5,153,cs),
(5,70,o),
(45,5,o),
(153,-15,cs)
);
},
{
closed = 1;
nodes = (
(172,163,o),
(141,225,o),
(141,293,cs),
(141,379,o),
(192,473,o),
(218,516,c),
(307,411,o),
(336,330,o),
(336,269,cs),
(336,204,o),
(302,161,o),
(271,135,c)
);
},
{
closed = 1;
nodes = (
(442,-165,o),
(569,-32,o),
(534,-38,cs),
(515,-41,o),
(455,-18,o),
(455,-1,cs),
(455,14,o),
(459,35,o),
(460,64,cs),
(489,627,ls),
(492,687,o),
(483,744,o),
(452,737,cs),
(421,729,o),
(291,598,o),
(330,607,cs),
(337,609,o),
(346,597,o),
(346,552,cs),
(345,515,l),
(316,-48,ls),
(313,-115,o),
(389,-174,o),
(412,-170,cs)
);
}
);
width = 475;
}
);
unicode = 586;
},
{
glyphname = R;
kernLeft = KO_R;
kernRight = KO_R;
lastChange = "2024-04-12 00:46:34 +0000";
layers = (
{
anchors = (
{
name = bottom;
pos = (263,31);
},
{
name = top;
pos = (267,726);
}
);
background = {
anchors = (
{
name = bottom;
pos = (263,31);
},
{
name = top;
pos = (267,726);
}
);
shapes = (
{
closed = 1;
nodes = (
(195,581,o),
(194,583,o),
(191,583,cs),
(176,583,o),
(142,491,o),
(144,448,cs),
(149,301,o),
(327,-1,o),
(405,-1,cs),
(408,-1,o),
(411,0,o),
(414,0,c),
(431,6,o),
(477,128,o),
(477,161,cs),
(477,168,o),
(476,171,o),
(472,170,cs),
(468,168,o),
(463,167,o),
(459,167,cs),
(366,167,o),
(200,448,o),
(195,575,cs)
);
},
{
closed = 1;
nodes = (
(29,148,o),
(-10,38,o),
(-10,7,cs),
(-10,-1,o),
(-7,-4,o),
(-1,2,cs),
(17,18,o),
(47,28,o),
(76,28,cs),
(103,28,o),
(129,19,o),
(144,0,cs),
(158,-17,o),
(210,120,o),
(210,159,cs),
(210,163,o),
(209,166,o),
(208,168,c),
(192,188,o),
(165,198,o),
(135,198,cs),
(104,198,o),
(72,187,o),
(49,166,cs)
);
},
{
closed = 1;
nodes = (
(190,573,o),
(181,587,o),
(168,587,cs),
(142,587,o),
(99,528,o),
(96,462,cs),
(88,287,o),
(94,300,o),
(74,63,cs),
(72,50,o),
(78,44,o),
(87,44,cs),
(109,44,o),
(150,76,o),
(152,105,cs),
(174,358,o),
(180,373,o),
(188,540,cs)
);
},
{
closed = 1;
nodes = (
(255,307,o),
(245,287,o),
(245,274,cs),
(245,265,o),
(250,260,o),
(259,260,cs),
(274,260,o),
(300,275,o),
(330,310,cs),
(423,417,o),
(459,500,o),
(459,563,cs),
(459,669,o),
(354,715,o),
(252,715,cs),
(208,715,o),
(165,706,o),
(130,691,cs),
(105,680,o),
(15,523,o),
(46,537,cs),
(96,559,o),
(142,569,o),
(181,569,cs),
(271,569,o),
(329,519,o),
(329,451,cs),
(329,416,o),
(313,375,o),
(278,334,cs)
);
}
);
};
guides = (
{
angle = 180;
pos = (352,360);
},
{
pos = (198,564);
}
);
layerId = m01;
shapes = (
{
closed = 1;
nodes = (
(408,-1,o),
(411,0,o),
(414,0,c),
(431,6,o),
(477,128,o),
(477,161,cs),
(477,168,o),
(476,171,o),
(472,170,cs),
(468,168,o),
(463,167,o),
(459,167,cs),
(418,167,o),
(363,221,o),
(314,293,c),
(330,310,ls),
(423,417,o),
(459,500,o),
(459,563,cs),
(459,669,o),
(354,715,o),
(252,715,cs),
(208,715,o),
(165,706,o),
(130,691,cs),
(105,680,o),
(15,523,o),
(46,537,cs),
(77,551,o),
(107,560,o),
(134,565,c),
(115,542,o),
(98,503,o),
(96,462,cs),
(90,326,o),
(92,303,o),
(84,188,c),
(71,183,o),
(59,175,o),
(49,166,cs),
(29,148,o),
(-10,38,o),
(-10,7,cs),
(-10,-1,o),
(-7,-4,o),
(-1,2,cs),
(17,18,o),
(47,28,o),
(76,28,cs),
(103,28,o),
(129,19,o),
(144,0,cs),
(158,-17,o),
(210,120,o),
(210,159,cs),
(210,163,o),
(209,166,o),
(208,168,c),
(197,182,o),
(180,191,o),
(160,195,c),
(172,325,l),
(227,176,o),
(345,-1,o),
(405,-1,cs)
);
},
{
closed = 1;
nodes = (
(237,420,o),
(200,509,o),
(195,569,c),
(277,564,o),
(329,515,o),
(329,451,cs),
(329,418,o),
(315,379,o),
(284,341,c)
);
}
);
width = 537;
}
);
unicode = 82;
userData = {
KernOnName = R;
};
},
{
color = 0;
glyphname = Rstroke;
kernRight = KO_Rstroke;
lastChange = "2024-04-12 00:46:34 +0000";
layers = (
{
anchors = (
{
name = bottom;
pos = (287,0);
},
{
name = top;
pos = (287,700);
}
);
layerId = m01;
shapes = (
{
closed = 1;
nodes = (
(428,-1,o),
(431,0,o),
(434,0,c),
(451,6,o),
(497,128,o),
(497,161,cs),
(497,168,o),
(496,171,o),
(492,170,cs),
(488,168,o),
(483,167,o),
(479,167,cs),
(386,167,o),
(220,448,o),
(215,575,cs),
(215,581,o),
(214,583,o),
(211,583,cs),
(196,583,o),
(143,464,o),
(145,421,cs),
(150,274,o),
(347,-1,o),
(425,-1,cs)
);
},
{
closed = 1;
nodes = (
(188,-17,o),
(240,120,o),
(240,159,cs),
(240,163,o),
(239,166,o),
(238,168,c),
(222,188,o),
(195,198,o),
(165,198,cs),
(134,198,o),
(102,187,o),
(79,166,cs),
(59,148,o),
(20,38,o),
(20,7,cs),
(20,-1,o),
(23,-4,o),
(29,2,cs),
(47,18,o),
(77,28,o),
(106,28,cs),
(133,28,o),
(159,19,o),
(174,0,cs)
);
},
{
closed = 1;
nodes = (
(104,251,o),
(112,260,o),
(122,260,cs),
(169,260,ls),
(185,260,o),
(180,355,o),
(180,388,cs),
(180,395,o),
(178,399,o),
(175,399,cs),
(164,399,o),
(204,401,o),
(157,402,cs),
(153,402,o),
(147,421,o),
(141,421,cs),
(102,421,o),
(91,423,o),
(59,423,cs),
(42,423,o),
(-5,298,o),
(-5,263,cs),
(-5,257,o),
(-4,253,o),
(-1,253,cs),
(96,251,ls)
);
},
{
closed = 1;
nodes = (
(129,44,o),
(170,76,o),
(172,105,cs),
(194,358,o),
(200,373,o),
(208,540,cs),
(210,573,o),
(201,587,o),
(188,587,cs),
(162,587,o),
(119,528,o),
(116,462,cs),
(108,287,o),
(114,300,o),
(94,63,cs),
(92,50,o),
(98,44,o),
(107,44,cs)
);
},
{
closed = 1;
nodes = (
(291,283,o),
(316,297,o),
(346,331,cs),
(443,439,o),
(480,520,o),
(480,579,cs),
(480,678,o),
(376,715,o),
(275,715,cs),
(230,715,o),
(185,707,o),
(151,695,cs),
(127,687,o),
(36,530,o),
(65,541,cs),
(117,559,o),
(165,567,o),
(206,567,cs),
(294,567,o),
(350,529,o),
(350,470,cs),
(350,438,o),
(334,400,o),
(298,359,cs),
(273,332,o),
(263,311,o),
(263,297,cs),
(263,288,o),
(268,283,o),
(277,283,cs)
);
}
);
width = 537;
}
);
unicode = 588;
},
{
color = 1;
glyphname = Rtail;
lastChange = "2024-04-12 00:46:34 +0000";
layers = (
{
anchors = (
{
name = bottom;
pos = (257,0);
},
{
name = top;
pos = (257,711);
}
);
layerId = m01;
shapes = (
{
closed = 1;
nodes = (
(398,-1,o),
(401,0,o),
(404,0,c),
(421,6,o),
(467,128,o),
(467,161,cs),
(467,168,o),
(466,171,o),
(462,170,cs),
(458,168,o),
(453,167,o),
(449,167,cs),
(356,167,o),
(190,448,o),
(185,575,cs),
(185,581,o),
(184,583,o),
(181,583,cs),
(166,583,o),
(113,464,o),
(115,421,cs),
(120,274,o),
(317,-1,o),
(395,-1,cs)
);
},
{
closed = 1;
nodes = (
(-16,-245,o),
(106,-131,o),
(113,-98,cs),
(114,-89,o),
(115,-81,o),
(115,-73,cs),
(115,-3,o),
(56,57,o),
(-2,57,cs),
(-24,57,o),
(-145,-65,o),
(-116,-65,cs),
(-53,-65,o),
(-7,-124,o),
(-7,-185,cs),
(-7,-193,o),
(-7,-201,o),
(-9,-208,cs)
);
},
{
closed = 1;
nodes = (
(73,-150,o),
(114,-118,o),
(116,-89,cs),
(138,167,o),
(170,365,o),
(178,540,cs),
(180,573,o),
(171,587,o),
(158,587,cs),
(132,587,o),
(89,528,o),
(86,462,cs),
(78,295,o),
(58,103,o),
(38,-131,cs),
(36,-144,o),
(42,-150,o),
(51,-150,cs)
);
},
{
closed = 1;
nodes = (
(264,260,o),
(290,275,o),
(320,310,cs),
(413,417,o),
(449,500,o),
(449,563,cs),
(449,669,o),
(344,715,o),
(242,715,cs),
(198,715,o),
(155,706,o),
(120,691,cs),
(95,680,o),
(5,523,o),
(36,537,cs),
(86,559,o),
(132,569,o),
(171,569,cs),
(261,569,o),
(319,519,o),
(319,451,cs),
(319,416,o),
(303,375,o),
(268,334,cs),
(245,307,o),
(235,287,o),
(235,274,cs),
(235,265,o),
(240,260,o),
(249,260,cs)
);
}
);
width = 507;
}
);
unicode = 11364;
},
{
glyphname = S;
kernLeft = KO_S;
kernRight = KO_S;
lastChange = "2024-04-12 00:46:34 +0000";
layers = (
{
anchors = (
{
name = bottom;
pos = (167,-10);
},
{
name = top;
pos = (265,710);
}
);
background = {
anchors = (
{
name = bottom;
pos = (167,-10);
},
{
name = top;
pos = (265,710);
}
);
shapes = (
{
closed = 1;
nodes = (
(289,465,o),
(288,462,o),
(288,459,cs),
(288,457,o),
(289,456,o),
(291,456,cs),
(308,456,o),
(394,534,o),
(415,574,cs),
(420,586,o),
(423,599,o),
(423,613,cs),
(423,662,o),
(389,715,o),
(327,715,cs),
(293,715,o),
(251,700,o),
(203,660,cs),
(152,618,o),
(117,565,o),
(132,565,cs),
(137,565,o),
(149,572,o),
(169,588,cs),
(176,594,o),
(185,597,o),
(195,597,cs),
(238,597,o),
(299,551,o),
(299,500,cs),
(299,490,o),
(297,480,o),
(291,470,c)
);
},
{
closed = 1;
nodes = (
(189,629,o),
(188,631,o),
(185,631,cs),
(169,631,o),
(76,545,o),
(60,509,cs),
(51,489,o),
(47,470,o),
(47,453,cs),
(47,388,o),
(107,345,o),
(162,294,cs),
(214,246,o),
(272,207,o),
(272,142,cs),
(272,125,o),
(268,107,o),
(260,86,cs),
(245,49,o),
(370,163,o),
(386,202,cs),
(397,228,o),
(402,250,o),
(402,269,cs),
(402,340,o),
(335,368,o),
(284,416,cs),
(229,467,o),
(176,516,o),
(176,576,cs),
(176,591,o),
(179,606,o),
(186,623,cs)
);
},
{
closed = 1;
nodes = (
(139,235,o),
(138,238,o),
(135,238,cs),
(116,238,o),
(24,152,o),
(10,117,cs),
(7,109,o),
(5,99,o),
(5,90,cs),
(5,42,o),
(45,-16,o),
(112,-16,cs),
(146,-16,o),
(188,0,o),
(235,40,cs),
(285,82,o),
(317,132,o),
(303,132,cs),
(297,132,o),
(284,124,o),
(263,106,cs),
(259,103,o),
(254,102,o),
(247,102,cs),
(209,102,o),
(131,146,o),
(131,203,cs),
(131,211,o),
(133,219,o),
(136,227,cs)
);
}
);
};
layerId = m01;
shapes = (
{
closed = 1;
nodes = (
(146,-16,o),
(188,0,o),
(235,40,cs),
(257,59,o),
(276,79,o),
(289,96,c),
(323,124,o),
(376,178,o),
(386,202,cs),
(397,228,o),
(402,250,o),
(402,269,cs),
(402,340,o),
(335,368,o),
(284,416,cs),
(229,467,o),
(176,516,o),
(176,576,cs),
(176,582,o),
(176,587,o),
(177,593,c),
(183,596,o),
(189,597,o),
(195,597,cs),
(238,597,o),
(299,551,o),
(299,500,cs),
(299,490,o),
(297,480,o),
(291,470,c),
(289,465,o),
(288,462,o),
(288,459,cs),
(288,457,o),
(289,456,o),
(291,456,cs),
(308,456,o),
(394,534,o),
(415,574,cs),
(420,586,o),
(423,599,o),
(423,613,cs),
(423,662,o),
(389,715,o),
(327,715,cs),
(293,715,o),
(251,700,o),
(203,660,cs),
(184,644,o),
(167,627,o),
(155,612,c),
(121,584,o),
(71,534,o),
(60,509,cs),
(51,489,o),
(47,470,o),
(47,453,cs),
(47,388,o),
(107,345,o),
(162,294,cs),
(214,246,o),
(272,207,o),
(272,142,cs),
(272,132,o),
(271,121,o),
(268,110,c),
(263,106,ls),
(259,103,o),
(254,102,o),
(247,102,cs),
(209,102,o),
(131,146,o),
(131,203,cs),
(131,211,o),
(133,219,o),
(136,227,cs),
(139,235,o),
(138,238,o),
(135,238,cs),
(116,238,o),
(24,152,o),
(10,117,cs),
(7,109,o),
(5,99,o),
(5,90,cs),
(5,42,o),
(45,-16,o),
(112,-16,cs)
);
}
);
width = 452;
}
);
unicode = 83;
userData = {
KernOnName = S;
};
},
{
glyphname = Germandbls;
kernLeft = KO_Germandbls;
kernRight = KO_Germandbls;
lastChange = "2024-04-12 00:46:34 +0000";
layers = (
{
background = {
shapes = (
{
closed = 1;
nodes = (
(222,352,o),
(208,330,o),
(208,318,cs),
(208,314,o),
(210,311,o),
(215,311,cs),
(222,311,o),
(235,318,o),
(254,334,cs),
(274,352,o),
(301,361,o),
(327,361,cs),
(386,361,o),
(446,320,o),
(446,248,cs),
(446,226,o),
(440,201,o),
(427,173,cs),
(422,164,o),
(420,158,o),
(420,154,cs),
(420,152,o),
(421,151,o),
(423,151,cs),
(437,151,o),
(506,227,o),
(529,275,cs),
(545,307,o),
(552,338,o),
(552,365,cs),
(552,428,o),
(511,472,o),
(446,472,cs),
(394,472,o),
(325,444,o),
(248,376,cs)
);
},
{
closed = 1;
nodes = (
(502,229,o),
(509,256,o),
(499,256,cs),
(491,256,o),
(472,238,o),
(447,199,cs),
(422,160,o),
(384,142,o),
(352,142,cs),
(321,142,o),
(296,160,o),
(296,192,cs),
(296,202,o),
(299,214,o),
(304,227,cs),
(318,258,o),
(192,141,o),
(178,107,cs),
(176,103,o),
(175,97,o),
(175,90,cs),
(175,54,o),
(203,-3,o),
(260,-3,cs),
(309,-3,o),
(379,40,o),
(471,181,cs)
);
},
{
closed = 1;
nodes = (
(557,641,o),
(561,654,o),
(561,664,cs),
(561,680,o),
(551,688,o),
(536,688,cs),
(515,688,o),
(487,673,o),
(465,639,cs),
(413,558,o),
(236,364,o),
(229,357,c),
(227,354,o),
(225,352,o),
(225,350,cs),
(225,347,o),
(230,345,o),
(237,345,cs),
(262,345,o),
(324,365,o),
(341,383,cs),
(342,384,o),
(490,536,o),
(547,625,cs)
);
},
{
closed = 1;
nodes = (
(514,563,o),
(608,717,o),
(579,710,cs),
(552,702,o),
(518,700,o),
(480,700,cs),
(392,700,o),
(326,714,o),
(249,714,cs),
(210,714,o),
(179,710,o),
(162,699,cs),
(144,686,o),
(104,572,o),
(104,539,cs),
(104,531,o),
(106,527,o),
(112,531,cs),
(126,541,o),
(168,544,o),
(222,543,cs),
(318,542,ls),
(383,541,o),
(446,545,o),
(489,556,cs)
);
},
{
closed = 1;
nodes = (
(198,628,o),
(195,630,o),
(192,630,cs),
(174,630,o),
(117,577,o),
(113,554,cs),
(20,9,ls),
(19,3,o),
(22,1,o),
(25,1,cs),
(43,1,o),
(98,55,o),
(102,77,cs),
(197,622,ls)
);
}
);
};
layerId = m01;
shapes = (
{
closed = 1;
nodes = (
(309,-3,o),
(379,40,o),
(471,181,cs),
(481,196,o),
(488,210,o),
(494,221,c),
(508,239,o),
(521,259,o),
(529,275,cs),
(545,307,o),
(552,338,o),
(552,365,cs),
(552,428,o),
(511,472,o),
(446,472,cs),
(438,472,o),
(431,471,o),
(422,470,c),
(467,520,o),
(518,580,o),
(547,625,cs),
(554,638,ls),
(577,677,o),
(593,713,o),
(579,710,cs),
(552,702,o),
(518,700,o),
(480,700,cs),
(392,700,o),
(326,714,o),
(249,714,cs),
(210,714,o),
(179,710,o),
(162,699,cs),
(144,686,o),
(104,572,o),
(104,539,cs),
(104,533,o),
(105,529,o),
(109,530,c),
(20,9,ls),
(19,3,o),
(22,1,o),
(25,1,cs),
(43,1,o),
(98,55,o),
(102,77,cs),
(183,543,l),
(222,543,l),
(318,542,l),
(392,543,l),
(322,458,o),
(234,362,o),
(229,357,cs),
(226,353,ls),
(214,339,o),
(208,326,o),
(208,318,cs),
(208,314,o),
(210,311,o),
(215,311,cs),
(222,311,o),
(235,318,o),
(254,334,cs),
(274,352,o),
(301,361,o),
(327,361,cs),
(386,361,o),
(446,320,o),
(446,248,cs),
(446,227,o),
(440,203,o),
(428,176,c),
(405,153,o),
(377,142,o),
(352,142,cs),
(321,142,o),
(296,160,o),
(296,192,cs),
(296,202,o),
(299,214,o),
(304,227,cs),
(318,258,o),
(192,141,o),
(178,107,cs),
(176,103,o),
(175,97,o),
(175,90,cs),
(175,54,o),
(203,-3,o),
(260,-3,cs)
);
}
);
width = 614;
}
);
unicode = 7838;
},
{
glyphname = T;
kernLeft = KO_T;
kernRight = KO_T;
lastChange = "2024-04-12 00:46:34 +0000";
layers = (
{
anchors = (
{
name = bottom;
pos = (187,-19);
},
{
name = center;
pos = (174,350);
},
{
name = top;
pos = (255,713);
}
);
background = {
anchors = (
{
name = bottom;
pos = (182,0);
},
{
name = center;
pos = (174,350);
},
{
name = top;
pos = (255,713);
}
);
shapes = (
{
closed = 1;
nodes = (
(416,550,o),
(456,646,o),
(456,685,cs),
(456,699,o),
(451,706,o),
(439,700,cs),
(428,695,o),
(408,693,o),
(384,693,cs),
(334,693,o),
(263,700,o),
(202,700,cs),
(151,700,o),
(105,695,o),
(84,676,cs),
(65,660,o),
(35,551,o),
(35,515,cs),
(35,505,o),
(37,501,o),
(42,506,cs),
(60,522,o),
(103,526,o),
(152,526,cs),
(195,526,o),
(244,523,o),
(287,523,cs),
(329,523,o),
(366,526,o),
(387,536,cs)
);
},
{
closed = 1;
nodes = (
(319,593,o),
(323,603,o),
(323,610,cs),
(323,621,o),
(315,627,o),
(304,627,cs),
(291,627,o),
(275,620,o),
(262,602,cs),
(129,431,o),
(68,235,o),
(68,144,cs),
(68,53,o),
(119,-16,o),
(187,-16,cs),
(194,-16,o),
(201,-16,o),
(209,-14,cs),
(242,-7,o),
(373,106,o),
(335,98,cs),
(332,97,o),
(328,97,o),
(324,97,cs),
(266,97,o),
(199,175,o),
(199,265,cs),
(199,308,o),
(219,464,o),
(310,582,cs)
);
}
);
};
layerId = m01;
shapes = (
{
closed = 1;
nodes = (
(194,-16,o),
(201,-16,o),
(209,-14,cs),
(242,-7,o),
(373,106,o),
(335,98,cs),
(332,97,o),
(328,97,o),
(324,97,cs),
(266,97,o),
(199,175,o),
(199,265,cs),
(199,301,o),
(213,417,o),
(272,523,c),
(287,523,ls),
(329,523,o),
(366,526,o),
(387,536,cs),
(416,550,o),
(456,646,o),
(456,685,cs),
(456,699,o),
(451,706,o),
(439,700,cs),
(428,695,o),
(408,693,o),
(384,693,cs),
(334,693,o),
(263,700,o),
(202,700,cs),
(151,700,o),
(105,695,o),
(84,676,cs),
(65,660,o),
(35,551,o),
(35,515,cs),
(35,505,o),
(37,501,o),
(42,506,cs),
(60,522,o),
(103,526,o),
(152,526,cs),
(208,525,l),
(112,375,o),
(68,222,o),
(68,144,cs),
(68,53,o),
(119,-16,o),
(187,-16,cs)
);
}
);
width = 426;
}
);
unicode = 84;
userData = {
KernOnName = T;
};
},
{
color = 0;
glyphname = Thook;
lastChange = "2024-04-12 00:46:34 +0000";
layers = (
{
anchors = (
{
name = bottom;
pos = (343,0);
},
{
name = center;
pos = (334,350);
},
{
name = top;
pos = (487,715);
}
);
background = {
anchors = (
{
name = bottom;
pos = (343,0);
},
{
name = center;
pos = (334,350);
},
{
name = top;
pos = (487,715);
}
);
shapes = (
{
closed = 1;
nodes = (
(596,550,o),
(636,646,o),
(636,685,cs),
(636,699,o),
(631,706,o),
(619,700,cs),
(608,695,o),
(588,693,o),
(564,693,cs),
(514,693,o),
(443,699,o),
(382,704,cs),
(306,710,ls),
(278,712,o),
(254,704,o),
(252,703,cs),
(227,695,o),
(199,675,o),
(168,650,cs),
(117,608,o),
(82,555,o),
(97,555,cs),
(102,555,o),
(114,562,o),
(134,578,cs),
(141,584,o),
(150,587,o),
(160,587,cs),
(252,587,o),
(304,526,o),
(400,526,cs),
(443,526,o),
(424,523,o),
(467,523,cs),
(509,523,o),
(546,526,o),
(567,536,cs)
);
},
{
closed = 1;
nodes = (
(499,593,o),
(503,603,o),
(503,610,cs),
(503,621,o),
(495,627,o),
(484,627,cs),
(471,627,o),
(455,620,o),
(442,602,cs),
(309,431,o),
(248,235,o),
(248,144,cs),
(248,53,o),
(299,-16,o),
(367,-16,cs),
(374,-16,o),
(381,-16,o),
(389,-14,cs),
(422,-7,o),
(553,106,o),
(515,98,cs),
(512,97,o),
(508,97,o),
(504,97,cs),
(446,97,o),
(379,175,o),
(379,265,cs),
(379,308,o),
(399,464,o),
(490,582,cs)
);
},
{
closed = 1;
nodes = (
(154,619,o),
(153,621,o),
(150,621,cs),
(134,621,o),
(41,535,o),
(25,499,cs),
(10,466,o),
(0,427,o),
(0,391,cs),
(0,330,o),
(29,279,o),
(112,279,cs),
(126,279,o),
(141,281,o),
(158,284,cs),
(177,287,o),
(292,409,o),
(278,406,cs),
(261,403,o),
(247,402,o),
(234,402,cs),
(154,402,o),
(128,453,o),
(128,510,cs),
(128,545,o),
(138,583,o),
(151,613,cs)
);
}
);
};
guides = (
{
pos = (122,526);
}
);
layerId = m01;
shapes = (
{
closed = 1;
nodes = (
(374,-16,o),
(381,-16,o),
(389,-14,cs),
(422,-7,o),
(553,106,o),
(515,98,cs),
(512,97,o),
(508,97,o),
(504,97,cs),
(446,97,o),
(379,175,o),
(379,265,cs),
(379,301,o),
(393,417,o),
(452,523,c),
(467,523,ls),
(509,523,o),
(546,526,o),
(567,536,cs),
(596,550,o),
(636,646,o),
(636,685,cs),
(636,699,o),
(631,706,o),
(619,700,cs),
(608,695,o),
(588,693,o),
(564,693,cs),
(514,693,o),
(443,699,o),
(382,704,cs),
(306,710,ls),
(278,712,o),
(254,704,o),
(252,703,cs),
(227,695,o),
(199,675,o),
(168,650,cs),
(149,634,o),
(132,617,o),
(120,602,c),
(86,574,o),
(36,524,o),
(25,499,cs),
(10,466,o),
(0,427,o),
(0,391,cs),
(0,330,o),
(29,279,o),
(112,279,cs),
(126,279,o),
(141,281,o),
(158,284,cs),
(177,287,o),
(292,409,o),
(278,406,cs),
(261,403,o),
(247,402,o),
(234,402,cs),
(154,402,o),
(128,453,o),
(128,510,cs),
(128,534,o),
(133,559,o),
(140,582,c),
(146,585,o),
(153,587,o),
(160,587,cs),
(248,587,o),
(300,531,o),
(389,526,c),
(293,376,o),
(248,222,o),
(248,144,cs),
(248,53,o),
(299,-16,o),
(367,-16,cs)
);
}
);
width = 606;
}
);
unicode = 428;
},
{
color = 0;
glyphname = Tretroflexhook;
lastChange = "2024-04-12 00:46:34 +0000";
layers = (
{
anchors = (
{
name = bottom;
pos = (176,0);
},
{
name = center;
pos = (216,350);
},
{
name = top;
pos = (226,713);
}
);
background = {
anchors = (
{
name = bottom;
pos = (204,0);
},
{
name = center;
pos = (244,350);
},
{
name = top;
pos = (254,713);
}
);
shapes = (
{
closed = 1;
nodes = (
(445,550,o),
(485,646,o),
(485,685,cs),
(485,699,o),
(480,706,o),
(468,700,cs),
(457,695,o),
(437,693,o),
(413,693,cs),
(363,693,o),
(292,700,o),
(231,700,cs),
(180,700,o),
(134,695,o),
(113,676,cs),
(94,660,o),
(64,551,o),
(64,515,cs),
(64,505,o),
(66,501,o),
(71,506,cs),
(89,522,o),
(132,526,o),
(181,526,cs),
(224,526,o),
(273,523,o),
(316,523,cs),
(358,523,o),
(395,526,o),
(416,536,cs)
);
},
{
closed = 1;
nodes = (
(266,658,o),
(136,527,o),
(175,536,cs),
(182,538,o),
(192,523,o),
(192,481,cs),
(192,469,o),
(192,455,o),
(190,439,cs),
(133,43,ls),
(124,-20,o),
(124,-49,o),
(124,-62,cs),
(124,-77,o),
(126,-71,o),
(125,-72,cs),
(70,-115,o),
(13,-188,o),
(29,-188,cs),
(34,-188,o),
(44,-183,o),
(61,-170,cs),
(298,14,o),
(269,101,o),
(277,155,cs),
(334,551,l),
(336,561,o),
(336,571,o),
(336,581,cs),
(336,630,o),
(323,672,o),
(297,666,cs)
);
},
{
closed = 1;
nodes = (
(5,54,o),
(4,57,o),
(1,57,cs),
(-18,57,o),
(-110,-29,o),
(-124,-64,cs),
(-127,-72,o),
(-129,-82,o),
(-129,-91,cs),
(-129,-139,o),
(-89,-197,o),
(-22,-197,cs),
(12,-197,o),
(54,-181,o),
(101,-141,cs),
(151,-99,o),
(183,-49,o),
(169,-49,cs),
(163,-49,o),
(150,-57,o),
(129,-75,cs),
(125,-78,o),
(120,-79,o),
(113,-79,cs),
(75,-79,o),
(-3,-35,o),
(-3,22,cs),
(-3,30,o),
(-1,38,o),
(2,46,cs)
);
}
);
};
layerId = m01;
shapes = (
{
closed = 1;
nodes = (
(185,-215,o),
(204,-211,o),
(223,-201,cs),
(268,-180,o),
(364,-71,o),
(339,-71,cs),
(336,-71,o),
(332,-72,o),
(327,-75,cs),
(312,-82,o),
(298,-85,o),
(285,-85,cs),
(210,-85,o),
(151,12,o),
(151,121,cs),
(151,179,o),
(178,362,o),
(277,523,c),
(287,523,ls),
(329,523,o),
(366,526,o),
(387,536,cs),
(416,550,o),
(456,646,o),
(456,685,cs),
(456,699,o),
(451,706,o),
(439,700,cs),
(428,695,o),
(408,693,o),
(384,693,cs),
(334,693,o),
(263,700,o),
(202,700,cs),
(151,700,o),
(105,695,o),
(84,676,cs),
(65,660,o),
(35,551,o),
(35,515,cs),
(35,505,o),
(37,501,o),
(42,506,cs),
(60,522,o),
(103,526,o),
(152,526,cs),
(215,525,l),
(81,321,o),
(21,105,o),
(21,4,cs),
(21,-112,o),
(81,-215,o),
(167,-215,cs)
);
}
);
width = 426;
}
);
metricRight = T;
metricWidth = T;
unicode = 430;
},
{
glyphname = U;
kernLeft = KO_U;
kernRight = KO_U;
lastChange = "2024-04-12 00:46:34 +0000";
layers = (
{
anchors = (
{
name = bottom;
pos = (314,4);
},
{
name = ogonek;
pos = (417,0);
},
{
name = top;
pos = (313,718);
},
{
name = topright;
pos = (449,700);
}
);
background = {
anchors = (
{
name = bottom;
pos = (314,4);
},
{
name = ogonek;
pos = (417,0);
},
{
name = top;
pos = (313,718);
},
{
name = topright;
pos = (449,700);
}
);
shapes = (
{
closed = 1;
nodes = (
(403,365,o),
(392,373,o),
(381,373,cs),
(372,373,o),
(363,367,o),
(362,355,cs),
(335,114,o),
(263,124,o),
(251,124,cs),
(212,121,o),
(197,173,o),
(197,240,cs),
(197,257,o),
(198,275,o),
(199,293,cs),
(229,590,ls),
(235,650,o),
(211,703,o),
(170,703,cs),
(164,703,o),
(158,702,o),
(152,700,cs),
(124,690,o),
(30,593,o),
(30,574,cs),
(30,571,o),
(32,570,o),
(38,572,cs),
(44,574,o),
(50,575,o),
(54,575,cs),
(78,575,o),
(86,551,o),
(86,520,cs),
(85,496,l),
(55,199,ls),
(54,192,o),
(53,184,o),
(53,176,cs),
(53,82,o),
(110,-16,o),
(194,-16,cs),
(324,-16,o),
(387,217,o),
(402,351,cs)
);
},
{
closed = 1;
nodes = (
(425,-1,o),
(541,117,o),
(513,117,cs),
(485,117,o),
(477,152,o),
(477,203,cs),
(477,229,o),
(479,260,o),
(482,293,cs),
(513,590,l),
(514,608,ls),
(514,661,o),
(490,703,o),
(453,703,cs),
(447,703,o),
(441,702,o),
(435,700,cs),
(407,690,o),
(313,593,o),
(313,574,cs),
(313,571,o),
(315,570,o),
(321,572,cs),
(327,574,o),
(333,575,o),
(337,575,cs),
(362,575,o),
(370,551,o),
(370,519,cs),
(369,496,l),
(338,199,ls),
(336,180,o),
(335,162,o),
(335,144,cs),
(335,60,o),
(357,-1,o),
(401,-1,cs)
);
}
);
};
guides = (
{
pos = (-195,910);
},
{
pos = (306,725);
}
);
layerId = m01;
shapes = (
{
closed = 1;
nodes = (
(256,-16,o),
(303,37,o),
(337,107,c),
(342,43,o),
(364,-1,o),
(401,-1,cs),
(425,-1,o),
(541,117,o),
(513,117,cs),
(485,117,o),
(477,152,o),
(477,203,cs),
(477,229,o),
(479,260,o),
(482,293,cs),
(513,590,l),
(514,608,ls),
(514,661,o),
(490,703,o),
(453,703,cs),
(447,703,o),
(441,702,o),
(435,700,cs),
(407,690,o),
(313,593,o),
(313,574,cs),
(313,571,o),
(315,570,o),
(321,572,cs),
(327,574,o),
(333,575,o),
(337,575,cs),
(362,575,o),
(370,551,o),
(370,519,cs),
(369,496,l),
(343,244,l),
(310,117,o),
(261,124,o),
(251,124,cs),
(212,121,o),
(197,173,o),
(197,240,cs),
(199,293,l),
(229,590,ls),
(235,650,o),
(211,703,o),
(170,703,cs),
(164,703,o),
(158,702,o),
(152,700,cs),
(124,690,o),
(30,593,o),
(30,574,cs),
(30,571,o),
(32,570,o),
(38,572,cs),
(44,574,o),
(50,575,o),
(54,575,cs),
(78,575,o),
(86,551,o),
(86,520,cs),
(85,496,l),
(55,199,ls),
(54,192,o),
(53,184,o),
(53,176,cs),
(53,82,o),
(110,-16,o),
(194,-16,cs)
);
}
);
width = 567;
}
);
unicode = 85;
userData = {
KernOnName = U;
};
},
{
color = 0;
glyphname = Ubar;
lastChange = "2024-04-12 00:46:34 +0000";
layers = (
{
layerId = m01;
shapes = (
{
closed = 1;
nodes = (
(542,334,o),
(564,414,o),
(564,444,cs),
(564,452,o),
(562,456,o),
(558,456,cs),
(59,458,ls),
(43,458,o),
(21,378,o),
(21,347,cs),
(21,340,o),
(23,336,o),
(27,336,cs),
(526,334,ls)
);
},
{
pos = (10,0);
ref = U;
}
);
width = 614;
}
);
metricRight = U;
unicode = 580;
},
{
glyphname = Uhorn;
kernLeft = KO_Uhorn;
kernRight = KO_Uhorn;
lastChange = "2024-04-12 00:46:34 +0000";
layers = (
{
anchors = (
{
name = bottom;
pos = (313,0);
},
{
name = ogonek;
pos = (456.832,0);
},
{
name = top;
pos = (341,711);
},
{
name = topright;
pos = (675,844);
}
);
guides = (
{
pos = (-175,910);
},
{
pos = (326,725);
}
);
layerId = m01;
shapes = (
{
closed = 1;
nodes = (
(296,-16,o),
(343,37,o),
(377,107,c),
(382,43,o),
(404,-1,o),
(441,-1,cs),
(465,-1,o),
(581,117,o),
(553,117,cs),
(525,117,o),
(517,152,o),
(517,203,cs),
(517,229,o),
(519,260,o),
(522,293,cs),
(553,590,l),
(554,608,l),
(554,614,l),
(608,636,o),
(664,672,o),
(707,732,cs),
(721,751,o),
(731,772,o),
(731,800,cs),
(731,845,o),
(701,872,o),
(675,867,cs),
(649,862,o),
(538,748,o),
(573,755,cs),
(578,756,o),
(583,756,o),
(588,756,cs),
(622,756,o),
(656,736,o),
(654,716,c),
(647,709,o),
(635,702,o),
(611,702,cs),
(594,702,o),
(500,705,o),
(491,707,cs),
(458,716,o),
(366,611,o),
(361,590,c),
(356,583,o),
(353,577,o),
(353,574,cs),
(353,571,o),
(355,570,o),
(361,572,cs),
(367,574,o),
(373,575,o),
(377,575,cs),
(402,575,o),
(410,551,o),
(410,519,cs),
(409,496,l),
(383,244,l),
(350,117,o),
(301,124,o),
(291,124,cs),
(252,121,o),
(237,173,o),
(237,240,cs),
(239,293,l),
(269,590,ls),
(275,650,o),
(251,703,o),
(210,703,cs),
(204,703,o),
(198,702,o),
(192,700,cs),
(164,690,o),
(70,593,o),
(70,574,cs),
(70,571,o),
(72,570,o),
(78,572,cs),
(84,574,o),
(90,575,o),
(94,575,cs),
(118,575,o),
(126,551,o),
(126,520,cs),
(125,496,l),
(95,199,ls),
(94,192,o),
(93,184,o),
(93,176,cs),
(93,82,o),
(150,-16,o),
(234,-16,cs)
);
}
);
width = 588;
}
);
unicode = 431;
},
{
color = 0;
glyphname = "Upsilon-latin";
kernLeft = KO_D;
kernRight = "KO_Upsilon-latin";
lastChange = "2024-04-12 00:46:34 +0000";
layers = (
{
anchors = (
{
name = bottom;
pos = (204,0);
},
{
name = center;
pos = (275,350);
},
{
name = ogonek;
pos = (449,10);
},
{
name = top;
pos = (351,710);
},
{
name = topleft;
pos = (77,700);
},
{
name = topright;
pos = (376,700);
}
);
background = {
anchors = (
{
name = bottom;
pos = (204,0);
},
{
name = center;
pos = (275,350);
},
{
name = ogonek;
pos = (449,10);
},
{
name = top;
pos = (351,710);
},
{
name = topleft;
pos = (77,700);
},
{
name = topright;
pos = (376,700);
}
);
shapes = (
{
closed = 1;
nodes = (
(236,41,o),
(190,21,o),
(190,0,cs),
(190,-9,o),
(195,-14,o),
(205,-14,cs),
(218,-14,o),
(240,-5,o),
(270,17,cs),
(402,113,o),
(505,268,o),
(505,420,cs),
(505,516,o),
(474,610,o),
(407,687,cs),
(393,704,o),
(290,542,o),
(304,526,cs),
(367,453,o),
(385,366,o),
(385,307,cs),
(385,99,o),
(290,81,o),
(289,80,cs)
);
},
{
closed = 1;
nodes = (
(240,580,o),
(251,613,o),
(251,631,cs),
(251,641,o),
(247,647,o),
(241,647,cs),
(228,647,o),
(206,625,o),
(178,576,cs),
(94,425,o),
(32,270,o),
(32,157,cs),
(32,72,o),
(78,8,o),
(204,-15,cs),
(234,-21,o),
(338,59,o),
(338,90,cs),
(338,94,o),
(336,96,o),
(331,97,cs),
(193,123,o),
(137,212,o),
(137,298,cs),
(137,393,o),
(206,518,o),
(216,536,cs)
);
},
{
closed = 1;
nodes = (
(528,541,o),
(604,661,o),
(604,692,cs),
(604,698,o),
(601,701,o),
(592,696,cs),
(564,683,o),
(532,677,o),
(503,677,cs),
(466,677,o),
(433,686,o),
(420,700,cs),
(391,729,o),
(301,579,o),
(301,534,cs),
(301,531,o),
(302,528,o),
(304,526,cs),
(320,510,o),
(352,500,o),
(390,500,cs),
(422,500,o),
(459,507,o),
(494,524,cs)
);
},
{
closed = 1;
nodes = (
(227,541,o),
(303,661,o),
(303,692,cs),
(303,698,o),
(300,701,o),
(291,696,cs),
(263,683,o),
(231,677,o),
(202,677,cs),
(165,677,o),
(132,686,o),
(119,700,cs),
(101,718,o),
(0,574,o),
(0,534,cs),
(0,531,o),
(1,528,o),
(3,526,cs),
(19,510,o),
(51,500,o),
(89,500,cs),
(121,500,o),
(158,507,o),
(193,524,cs)
);
}
);
};
layerId = m01;
shapes = (
{
closed = 1;
nodes = (
(225,-19,o),
(284,20,o),
(316,54,c),
(425,150,o),
(505,286,o),
(505,420,cs),
(505,455,o),
(501,490,o),
(492,523,c),
(494,524,ls),
(528,541,o),
(604,661,o),
(604,692,cs),
(604,698,o),
(601,701,o),
(592,696,cs),
(564,683,o),
(532,677,o),
(503,677,cs),
(466,677,o),
(433,686,o),
(420,700,cs),
(391,729,o),
(301,579,o),
(301,534,cs),
(301,531,o),
(302,528,o),
(304,526,cs),
(367,453,o),
(385,366,o),
(385,307,cs),
(385,180,o),
(349,124,o),
(322,99,c),
(190,127,o),
(137,214,o),
(137,298,cs),
(137,393,o),
(206,518,o),
(216,536,cs),
(226,554,l),
(261,597,o),
(303,669,o),
(303,692,cs),
(303,698,o),
(300,701,o),
(291,696,cs),
(263,683,o),
(231,677,o),
(202,677,cs),
(165,677,o),
(132,686,o),
(119,700,cs),
(101,718,o),
(0,574,o),
(0,534,cs),
(0,531,o),
(1,528,o),
(3,526,cs),
(19,510,o),
(51,500,o),
(89,500,cs),
(105,500,o),
(123,502,o),
(141,506,c),
(76,378,o),
(32,253,o),
(32,157,cs),
(32,72,o),
(78,8,o),
(204,-15,cs)
);
}
);
width = 560;
}
);
unicode = 433;
},
{
glyphname = V;
kernLeft = KO_V;
kernRight = KO_V;
lastChange = "2024-04-12 00:46:34 +0000";
layers = (
{
anchors = (
{
name = bottom;
pos = (275,0);
},
{
name = top;
pos = (313,690);
}
);
background = {
anchors = (
{
name = bottom;
pos = (275,0);
},
{
name = top;
pos = (313,690);
}
);
shapes = (
{
closed = 1;
nodes = (
(511,619,o),
(503,622,o),
(492,622,cs),
(466,622,o),
(418,607,o),
(413,592,cs),
(354,391,o),
(263,122,o),
(249,30,cs),
(245,8,o),
(354,111,o),
(357,134,cs),
(367,194,o),
(456,433,o),
(509,612,cs)
);
},
{
closed = 1;
nodes = (
(537,554,o),
(575,662,o),
(575,693,cs),
(575,701,o),
(573,704,o),
(566,698,cs),
(548,682,o),
(518,672,o),
(489,672,cs),
(462,672,o),
(436,681,o),
(421,700,cs),
(408,716,o),
(355,583,o),
(355,542,cs),
(355,538,o),
(355,534,o),
(357,532,cs),
(373,512,o),
(400,502,o),
(430,502,cs),
(461,502,o),
(493,513,o),
(516,534,cs)
);
},
{
closed = 1;
nodes = (
(255,5,o),
(363,123,o),
(340,123,cs),
(338,123,o),
(335,123,o),
(331,121,cs),
(319,115,o),
(253,475,o),
(225,622,cs),
(217,669,o),
(180,700,o),
(147,700,cs),
(143,700,o),
(138,699,o),
(134,698,cs),
(102,688,o),
(-21,558,o),
(18,570,cs),
(23,572,o),
(29,572,o),
(33,572,cs),
(64,572,o),
(88,543,o),
(97,498,cs),
(123,357,o),
(173,-33,o),
(213,-15,cs)
);
}
);
};
layerId = m01;
shapes = (
{
closed = 1;
nodes = (
(241,-2,o),
(299,56,o),
(327,92,cs),
(343,110,o),
(356,126,o),
(357,134,cs),
(365,183,o),
(426,353,o),
(477,511,c),
(492,516,o),
(505,524,o),
(516,534,cs),
(537,554,o),
(575,662,o),
(575,693,cs),
(575,701,o),
(573,704,o),
(566,698,cs),
(548,682,o),
(518,672,o),
(489,672,cs),
(462,672,o),
(436,681,o),
(421,700,cs),
(408,716,o),
(355,583,o),
(355,542,cs),
(355,538,o),
(355,534,o),
(357,532,cs),
(365,522,o),
(376,515,o),
(388,510,c),
(302,229,l),
(277,346,o),
(243,528,o),
(225,622,cs),
(217,669,o),
(180,700,o),
(147,700,cs),
(143,700,o),
(138,699,o),
(134,698,cs),
(102,688,o),
(-21,558,o),
(18,570,cs),
(23,572,o),
(29,572,o),
(33,572,cs),
(64,572,o),
(88,543,o),
(97,498,cs),
(123,357,o),
(173,-33,o),
(213,-15,cs)
);
}
);
width = 550;
}
);
unicode = 86;
userData = {
KernOnName = V;
};
},
{
glyphname = "Gamma-latin";
kernRight = "KO_Gamma-latin";
lastChange = "2024-04-12 00:46:34 +0000";
layers = (
{
background = {
shapes = (
{
closed = 1;
nodes = (
(500,619,o),
(492,622,o),
(480,622,cs),
(454,622,o),
(408,608,o),
(402,593,cs),
(270,277,o),
(98,17,o),
(98,-117,cs),
(98,-166,o),
(120,-198,o),
(176,-209,cs),
(193,-213,o),
(278,-127,o),
(258,-123,cs),
(210,-113,o),
(190,-88,o),
(190,-51,cs),
(190,59,o),
(361,284,o),
(496,611,cs)
);
},
{
closed = 1;
nodes = (
(526,552,o),
(565,661,o),
(565,693,cs),
(565,701,o),
(562,704,o),
(555,698,cs),
(536,682,o),
(506,672,o),
(477,672,cs),
(450,672,o),
(424,681,o),
(410,700,cs),
(398,717,o),
(344,583,o),
(344,542,cs),
(344,538,o),
(345,534,o),
(346,532,cs),
(361,512,o),
(388,502,o),
(417,502,cs),
(448,502,o),
(481,513,o),
(505,534,cs)
);
},
{
closed = 1;
nodes = (
(196,-177,o),
(194,-187,o),
(202,-187,cs),
(213,-187,o),
(246,-164,o),
(274,-130,cs),
(353,-33,o),
(384,21,o),
(384,81,cs),
(384,178,o),
(303,290,o),
(211,622,cs),
(199,668,o),
(184,702,o),
(147,702,cs),
(140,702,o),
(132,701,o),
(124,698,cs),
(92,688,o),
(-31,558,o),
(8,570,cs),
(12,571,o),
(15,572,o),
(19,572,cs),
(44,572,o),
(70,545,o),
(83,498,cs),
(177,156,o),
(263,43,o),
(263,-45,cs),
(263,-80,o),
(249,-112,o),
(216,-152,cs)
);
}
);
};
layerId = m01;
shapes = (
{
closed = 1;
nodes = (
(183,-211,o),
(203,-196,o),
(221,-179,c),
(236,-169,o),
(256,-152,o),
(274,-130,cs),
(353,-33,o),
(384,21,o),
(384,81,cs),
(384,131,o),
(363,184,o),
(330,268,c),
(368,339,o),
(409,418,o),
(450,506,c),
(470,511,o),
(489,520,o),
(505,534,cs),
(526,552,o),
(565,661,o),
(565,693,cs),
(565,701,o),
(562,704,o),
(555,698,cs),
(536,682,o),
(506,672,o),
(477,672,cs),
(450,672,o),
(424,681,o),
(410,700,cs),
(398,717,o),
(344,583,o),
(344,542,cs),
(344,538,o),
(345,534,o),
(346,532,cs),
(352,524,o),
(359,518,o),
(368,514,c),
(344,460,o),
(319,409,o),
(295,360,c),
(270,429,o),
(241,514,o),
(211,622,cs),
(199,668,o),
(184,702,o),
(147,702,cs),
(140,702,o),
(132,701,o),
(124,698,cs),
(92,688,o),
(-31,558,o),
(8,570,cs),
(12,571,o),
(15,572,o),
(19,572,cs),
(44,572,o),
(70,545,o),
(83,498,cs),
(125,347,o),
(165,240,o),
(196,161,c),
(139,44,o),
(98,-52,o),
(98,-117,cs),
(98,-166,o),
(120,-198,o),
(176,-209,cs)
);
},
{
closed = 1;
nodes = (
(205,-106,o),
(190,-83,o),
(190,-51,cs),
(190,-18,o),
(205,25,o),
(230,77,c),
(251,26,o),
(263,-12,o),
(263,-45,cs),
(263,-70,o),
(256,-93,o),
(240,-118,c)
);
}
);
width = 535;
}
);
unicode = 404;
},
{
color = 2;
glyphname = Vhook;
kernRight = KO_Yhook;
lastChange = "2024-04-12 00:46:34 +0000";
layers = (
{
anchors = (
{
name = bottom;
pos = (345,0);
},
{
name = top;
pos = (345,690);
}
);
layerId = m01;
shapes = (
{
closed = 1;
nodes = (
(250,8,o),
(336,92,o),
(347,107,cs),
(445,237,o),
(532,415,o),
(532,505,cs),
(532,608,o),
(488,678,o),
(442,700,cs),
(418,711,o),
(273,541,o),
(300,528,cs),
(361,500,o),
(387,426,o),
(387,349,cs),
(387,284,o),
(368,216,o),
(335,172,cs),
(319,150,l),
(291,251,o),
(237,507,o),
(215,622,cs),
(207,669,o),
(170,700,o),
(137,700,cs),
(133,700,o),
(128,699,o),
(124,698,cs),
(92,688,o),
(-31,558,o),
(8,570,cs),
(13,572,o),
(19,572,o),
(23,572,cs),
(54,572,o),
(78,543,o),
(87,498,cs),
(113,357,o),
(172,-28,o),
(212,-10,cs)
);
}
);
width = 552;
}
);
unicode = 434;
},
{
glyphname = Vturned;
lastChange = "2024-04-12 00:46:34 +0000";
layers = (
{
anchors = (
{
name = bottom;
pos = (137,0);
},
{
name = top;
pos = (250,726);
}
);
background = {
shapes = (
{
closed = 1;
nodes = (
(-31,1,o),
(-27,-2,o),
(-20,-2,cs),
(1,-2,o),
(53,25,o),
(59,44,cs),
(118,245,o),
(233,571,o),
(247,661,cs),
(251,684,o),
(142,577,o),
(139,557,cs),
(129,495,o),
(24,187,o),
(-29,8,cs)
);
},
{
closed = 1;
nodes = (
(244,687,o),
(133,568,o),
(156,568,cs),
(158,568,o),
(161,569,o),
(165,570,c),
(177,576,o),
(243,216,o),
(271,69,cs),
(279,22,o),
(316,-9,o),
(349,-9,cs),
(353,-9,o),
(358,-8,o),
(362,-7,cs),
(392,2,o),
(486,100,o),
(486,119,cs),
(486,122,o),
(483,123,o),
(478,121,cs),
(473,119,o),
(467,119,o),
(463,119,cs),
(432,119,o),
(408,148,o),
(399,193,cs),
(373,334,o),
(323,724,o),
(283,706,cs)
);
}
);
};
layerId = m01;
shapes = (
{
closed = 1;
nodes = (
(353,-9,o),
(358,-8,o),
(362,-7,cs),
(392,2,o),
(486,100,o),
(486,119,cs),
(486,122,o),
(483,123,o),
(478,121,cs),
(473,119,o),
(467,119,o),
(463,119,cs),
(432,119,o),
(408,148,o),
(399,193,cs),
(373,334,o),
(323,724,o),
(283,706,cs),
(256,693,o),
(194,631,o),
(166,595,cs),
(151,578,o),
(140,563,o),
(139,557,cs),
(129,495,o),
(24,187,o),
(-29,8,cs),
(-31,1,o),
(-27,-2,o),
(-20,-2,cs),
(1,-2,o),
(53,25,o),
(59,44,cs),
(95,166,o),
(151,334,o),
(193,468,c),
(218,351,o),
(253,165,o),
(271,69,cs),
(279,22,o),
(316,-9,o),
(349,-9,cs)
);
}
);
width = 486;
}
);
unicode = 581;
},
{
glyphname = W;
kernLeft = KO_W;
kernRight = KO_W;
lastChange = "2024-04-12 00:46:34 +0000";
layers = (
{
anchors = (
{
name = bottom;
pos = (300,0);
},
{
name = top;
pos = (398,725);
}
);
background = {
anchors = (
{
name = bottom;
pos = (300,0);
},
{
name = top;
pos = (398,725);
}
);
shapes = (
{
closed = 1;
nodes = (
(383,-34,o),
(511,94,o),
(501,111,cs),
(443,216,o),
(457,644,o),
(399,696,cs),
(385,709,o),
(264,590,o),
(279,576,cs),
(331,528,o),
(313,94,o),
(373,-15,cs)
);
},
{
closed = 1;
nodes = (
(674,606,o),
(671,609,o),
(664,609,cs),
(641,609,o),
(575,576,o),
(568,556,cs),
(484,313,o),
(409,21,o),
(406,10,cs),
(398,-17,o),
(513,94,o),
(520,122,cs),
(523,132,o),
(589,358,o),
(672,600,cs)
);
},
{
closed = 1;
nodes = (
(421,608,o),
(418,611,o),
(410,611,cs),
(388,611,o),
(333,584,o),
(325,564,cs),
(284,456,o),
(182,54,o),
(181,54,c),
(168,37,o),
(162,28,o),
(162,24,cs),
(162,12,o),
(218,57,o),
(261,110,cs),
(296,155,o),
(391,529,o),
(419,602,cs)
);
},
{
closed = 1;
nodes = (
(129,-35,o),
(257,93,o),
(250,112,cs),
(197,259,o),
(238,698,o),
(138,698,cs),
(134,698,o),
(130,698,o),
(126,696,c),
(99,688,o),
(10,596,o),
(10,578,cs),
(10,575,o),
(13,574,o),
(18,576,cs),
(21,577,o),
(24,577,o),
(27,577,cs),
(111,577,o),
(58,161,o),
(122,-14,cs)
);
},
{
closed = 1;
nodes = (
(693,550,o),
(731,659,o),
(731,689,cs),
(731,698,o),
(729,700,o),
(722,694,cs),
(705,678,o),
(674,668,o),
(643,668,cs),
(615,668,o),
(587,677,o),
(573,696,cs),
(560,712,o),
(507,579,o),
(507,538,cs),
(507,534,o),
(507,530,o),
(509,528,cs),
(524,508,o),
(553,498,o),
(584,498,cs),
(616,498,o),
(650,509,o),
(672,530,cs)
);
}
);
};
guides = (
{
pos = (-215,910);
},
{
pos = (286,725);
}
);
layerId = m01;
shapes = (
{
closed = 1;
nodes = (
(377,-23,o),
(402,-5,o),
(428,19,cs),
(460,45,o),
(515,103,o),
(520,122,cs),
(523,131,o),
(573,305,o),
(642,510,c),
(653,515,o),
(663,522,o),
(672,530,cs),
(693,550,o),
(731,659,o),
(731,689,cs),
(731,698,o),
(729,700,o),
(722,694,cs),
(705,678,o),
(674,668,o),
(643,668,cs),
(615,668,o),
(587,677,o),
(573,696,cs),
(560,712,o),
(507,579,o),
(507,538,cs),
(507,534,o),
(507,530,o),
(509,528,cs),
(518,516,o),
(533,507,o),
(550,502,c),
(520,413,o),
(492,320,o),
(469,239,c),
(446,406,o),
(443,657,o),
(399,696,cs),
(385,709,o),
(264,590,o),
(279,576,cs),
(290,566,o),
(298,539,o),
(304,501,c),
(281,427,o),
(252,320,o),
(228,230,c),
(208,417,o),
(218,698,o),
(138,698,cs),
(134,698,o),
(130,698,o),
(126,696,c),
(99,688,o),
(10,596,o),
(10,578,cs),
(10,575,o),
(13,574,o),
(18,576,cs),
(21,577,o),
(24,577,o),
(27,577,cs),
(111,577,o),
(58,161,o),
(122,-14,cs),
(127,-28,o),
(188,26,o),
(224,69,c),
(236,81,o),
(249,95,o),
(261,110,cs),
(275,128,o),
(299,200,o),
(324,284,c),
(334,162,o),
(344,37,o),
(373,-15,cs)
);
}
);
width = 701;
}
);
unicode = 87;
userData = {
KernOnName = W;
};
},
{
color = 0;
glyphname = Whook;
lastChange = "2024-04-12 00:46:34 +0000";
layers = (
{
anchors = (
{
name = bottom;
pos = (350,0);
},
{
name = top;
pos = (380,710);
}
);
background = {
shapes = (
{
closed = 0;
nodes = (
(436,64,l,{
"Letterink-NibData" = {
MainAxisWidth = 150;
MinorAxisWidth = 15;
ValidForParentMainAxisWidth = 30;
ValidForParentMinorAxisWidth = 15;
};
}),
(377,171,o),
(394,593,o),
(339,643,c,{
"Letterink-NibData" = {
MainAxisWidth = 140;
MinorAxisWidth = 15;
ValidForParentMainAxisWidth = 30;
ValidForParentMinorAxisWidth = 15;
};
})
);
},
{
closed = 0;
nodes = (
(646,682,l,{
"Letterink-NibData" = {
AngleInDegrees = -18;
MainAxisWidth = 87;
MinorAxisWidth = 13;
ValidForParentMainAxisWidth = 30;
ValidForParentMinorAxisWidth = 15;
};
}),
(566,449,o),
(462,82,o),
(462,82,c,{
"Letterink-NibData" = {
AngleInDegrees = 1;
MainAxisWidth = 134;
MinorAxisWidth = 6;
ValidForParentMainAxisWidth = 30;
ValidForParentMinorAxisWidth = 15;
};
})
);
},
{
closed = 0;
nodes = (
(372,590,l,{
"Letterink-NibData" = {
AngleInDegrees = -18;
MainAxisWidth = 75;
MinorAxisWidth = 15;
ValidForParentMainAxisWidth = 30;
ValidForParentMinorAxisWidth = 15;
};
}),
(340,506,o),
(232,113,o),
(220,98,c,{
"Letterink-NibData" = {
AngleInDegrees = 1;
MainAxisWidth = 136;
MinorAxisWidth = 7;
ValidForParentMainAxisWidth = 30;
ValidForParentMinorAxisWidth = 15;
};
})
);
},
{
closed = 0;
nodes = (
(185,65,l,{
"Letterink-NibData" = {
MainAxisWidth = 150;
MinorAxisWidth = 15;
ValidForParentMainAxisWidth = 30;
ValidForParentMinorAxisWidth = 15;
};
}),
(127,224,o),
(174,680,o),
(72,649,c,{
"Letterink-NibData" = {
MainAxisWidth = 140;
MinorAxisWidth = 15;
ValidForParentMainAxisWidth = 30;
ValidForParentMinorAxisWidth = 15;
};
})
);
},
{
closed = 0;
nodes = (
(647,668,l,{
"Letterink-NibData" = {
AngleInDegrees = -5;
MainAxisWidth = 102;
MinorAxisWidth = 25;
ValidForParentMainAxisWidth = 30;
ValidForParentMinorAxisWidth = 15;
};
}),
(662,611,o),
(705,599,o),
(744,606,cs,{
"Letterink-NibData" = {
AngleInDegrees = -7;
MainAxisWidth = 94;
MinorAxisWidth = 13;
ValidForParentMainAxisWidth = 30;
ValidForParentMinorAxisWidth = 15;
};
})
);
}
);
};
layerId = m01;
shapes = (
{
closed = 1;
nodes = (
(387,-1,o),
(502,110,o),
(509,138,cs),
(509,139,o),
(591,426,o),
(671,659,cs),
(673,664,o),
(672,667,o),
(669,667,cs),
(651,667,o),
(570,599,o),
(558,565,cs),
(475,323,o),
(398,37,o),
(395,26,cs)
);
},
{
closed = 1;
nodes = (
(118,-19,o),
(246,109,o),
(239,128,cs),
(186,275,o),
(228,711,o),
(128,711,cs),
(124,711,o),
(120,711,o),
(116,709,c),
(89,701,o),
(0,609,o),
(0,591,cs),
(0,588,o),
(3,587,o),
(8,589,cs),
(11,590,o),
(14,590,o),
(17,590,cs),
(101,590,o),
(47,176,o),
(111,2,cs)
);
},
{
closed = 1;
nodes = (
(151,28,o),
(207,73,o),
(250,126,cs),
(285,171,o),
(381,535,o),
(409,609,cs),
(411,615,o),
(408,618,o),
(400,618,cs),
(378,618,o),
(323,591,o),
(315,571,cs),
(274,463,o),
(171,70,o),
(170,70,c),
(157,53,o),
(151,44,o),
(151,40,cs)
);
},
{
closed = 1;
nodes = (
(372,-18,o),
(500,110,o),
(490,127,cs),
(432,232,o),
(447,651,o),
(389,703,cs),
(375,716,o),
(254,597,o),
(269,583,cs),
(321,535,o),
(302,110,o),
(362,1,cs)
);
},
{
closed = 1;
nodes = (
(739,487,o),
(810,564,o),
(831,604,cs),
(836,616,o),
(839,629,o),
(839,643,cs),
(839,692,o),
(795,715,o),
(753,715,cs),
(719,715,o),
(663,700,o),
(615,660,cs),
(587,637,o),
(571,602,o),
(558,565,cs),
(557,561,o),
(575,572,o),
(595,588,cs),
(602,594,o),
(626,598,o),
(636,598,cs),
(679,598,o),
(730,582,o),
(730,531,cs),
(730,521,o),
(728,511,o),
(722,501,c),
(720,496,o),
(719,493,o),
(719,490,cs),
(719,488,o),
(720,487,o),
(722,487,cs)
);
}
);
width = 839;
}
);
unicode = 11378;
},
{
glyphname = X;
kernLeft = KO_X;
kernRight = KO_X;
lastChange = "2024-04-12 00:46:34 +0000";
layers = (
{
anchors = (
{
name = bottom;
pos = (261,0);
},
{
name = top;
pos = (293,690);
}
);
background = {
anchors = (
{
name = bottom;
pos = (261,0);
},
{
name = top;
pos = (293,690);
}
);
shapes = (
{
closed = 1;
nodes = (
(459,598,o),
(452,601,o),
(439,601,cs),
(411,601,o),
(357,586,o),
(346,570,cs),
(326,541,o),
(76,128,o),
(76,128,c),
(71,120,o),
(78,117,o),
(90,117,cs),
(118,117,o),
(175,133,o),
(184,149,cs),
(197,170,o),
(424,545,o),
(454,590,cs)
);
},
{
closed = 1;
nodes = (
(390,-4,o),
(496,140,o),
(460,127,cs),
(398,105,o),
(238,715,o),
(152,715,cs),
(149,715,o),
(147,714,o),
(144,713,c),
(117,699,o),
(39,595,o),
(39,575,cs),
(39,571,o),
(41,570,o),
(48,573,cs),
(109,604,o),
(282,-42,o),
(360,-15,cs)
);
},
{
closed = 1;
nodes = (
(85,-47,o),
(198,91,o),
(200,122,cs),
(202,170,o),
(143,241,o),
(106,250,cs),
(88,255,o),
(-24,113,o),
(-2,108,cs),
(21,101,o),
(88,26,o),
(86,-12,cs)
);
},
{
closed = 1;
nodes = (
(429,444,o),
(540,587,o),
(518,592,cs),
(489,600,o),
(428,673,o),
(430,712,cs),
(431,745,o),
(318,612,o),
(316,578,cs),
(314,530,o),
(378,458,o),
(410,450,cs)
);
}
);
};
layerId = m01;
shapes = (
{
closed = 1;
nodes = (
(390,-4,o),
(496,140,o),
(460,127,cs),
(431,117,o),
(381,244,o),
(327,383,c),
(379,469,l),
(390,459,o),
(401,452,o),
(410,450,cs),
(429,444,o),
(540,587,o),
(518,592,cs),
(489,600,o),
(428,673,o),
(430,712,cs),
(431,745,o),
(318,612,o),
(316,578,cs),
(315,566,o),
(319,552,o),
(326,538,c),
(289,478,l),
(239,604,o),
(189,715,o),
(152,715,cs),
(149,715,o),
(147,714,o),
(144,713,c),
(117,699,o),
(39,595,o),
(39,575,cs),
(39,571,o),
(41,570,o),
(48,573,cs),
(77,588,o),
(130,453,o),
(186,310,c),
(139,231,l),
(127,241,o),
(116,248,o),
(106,250,cs),
(88,255,o),
(-24,113,o),
(-2,108,cs),
(21,101,o),
(88,26,o),
(86,-12,cs),
(85,-47,o),
(198,91,o),
(200,122,cs),
(201,134,o),
(197,147,o),
(191,161,c),
(224,214,l),
(276,85,o),
(327,-27,o),
(360,-15,cs)
);
}
);
width = 521;
}
);
unicode = 88;
userData = {
KernOnName = X;
};
},
{
glyphname = Y;
kernLeft = KO_Y;
kernRight = KO_Y;
lastChange = "2024-04-12 00:46:34 +0000";
layers = (
{
anchors = (
{
name = bottom;
pos = (196,4);
},
{
name = top;
pos = (320,710);
},
{
name = topleft;
pos = (14,700);
}
);
background = {
anchors = (
{
name = bottom;
pos = (439,233);
},
{
name = top;
pos = (320,710);
},
{
name = topleft;
pos = (14,700);
}
);
shapes = (
{
closed = 1;
nodes = (
(509,623,o),
(510,628,o),
(510,633,cs),
(510,645,o),
(503,650,o),
(493,650,cs),
(464,650,o),
(407,609,o),
(393,564,cs),
(389,551,o),
(160,116,o),
(151,99,cs),
(144,87,o),
(142,77,o),
(142,70,cs),
(142,59,o),
(149,54,o),
(160,54,cs),
(185,54,o),
(230,82,o),
(253,125,cs),
(255,129,o),
(494,575,o),
(507,616,cs)
);
},
{
closed = 1;
nodes = (
(524,554,o),
(562,662,o),
(562,693,cs),
(562,701,o),
(560,704,o),
(553,698,cs),
(535,682,o),
(505,672,o),
(476,672,cs),
(449,672,o),
(423,681,o),
(408,700,cs),
(395,716,o),
(342,583,o),
(342,542,cs),
(342,538,o),
(342,534,o),
(344,532,cs),
(360,512,o),
(387,502,o),
(417,502,cs),
(448,502,o),
(480,513,o),
(503,534,cs)
);
},
{
closed = 1;
nodes = (
(267,333,o),
(359,437,o),
(338,437,cs),
(335,437,o),
(332,436,o),
(326,433,cs),
(272,405,o),
(225,701,o),
(155,701,cs),
(152,701,o),
(149,700,o),
(146,699,cs),
(115,687,o),
(25,592,o),
(25,574,cs),
(25,571,o),
(28,570,o),
(34,573,cs),
(88,594,o),
(126,306,o),
(206,306,cs),
(212,306,o),
(218,308,o),
(224,311,cs)
);
},
{
closed = 1;
nodes = (
(118,148,o),
(79,38,o),
(79,7,cs),
(79,-1,o),
(82,-4,o),
(88,2,cs),
(106,18,o),
(136,28,o),
(165,28,cs),
(192,28,o),
(218,19,o),
(233,0,cs),
(247,-17,o),
(299,120,o),
(299,159,cs),
(299,163,o),
(298,166,o),
(297,168,c),
(281,188,o),
(254,198,o),
(224,198,cs),
(193,198,o),
(161,187,o),
(138,166,cs)
);
}
);
};
layerId = m01;
shapes = (
{
closed = 1;
nodes = (
(247,-17,o),
(299,120,o),
(299,159,cs),
(299,163,o),
(298,166,o),
(297,168,cs),
(293,173,o),
(288,177,o),
(283,181,c),
(325,260,o),
(402,406,o),
(454,507,c),
(472,512,o),
(489,521,o),
(503,534,cs),
(524,554,o),
(562,662,o),
(562,693,cs),
(562,701,o),
(560,704,o),
(553,698,cs),
(535,682,o),
(505,672,o),
(476,672,cs),
(449,672,o),
(423,681,o),
(408,700,cs),
(395,716,o),
(342,583,o),
(342,542,cs),
(342,538,o),
(342,534,o),
(344,532,cs),
(350,524,o),
(358,518,o),
(368,513,c),
(326,433,l),
(272,405,o),
(225,701,o),
(155,701,cs),
(152,701,o),
(149,700,o),
(146,699,cs),
(115,687,o),
(25,592,o),
(25,574,cs),
(25,571,o),
(28,570,o),
(34,573,cs),
(88,594,o),
(126,306,o),
(206,306,cs),
(212,306,o),
(218,308,o),
(224,311,cs),
(242,320,o),
(269,344,o),
(293,369,c),
(202,196,l),
(178,192,o),
(156,182,o),
(138,166,cs),
(118,148,o),
(79,38,o),
(79,7,cs),
(79,-1,o),
(82,-4,o),
(88,2,cs),
(106,18,o),
(136,28,o),
(165,28,cs),
(192,28,o),
(218,19,o),
(233,0,cs)
);
}
);
width = 541;
}
);
unicode = 89;
userData = {
KernOnName = Y;
};
},
{
color = 0;
glyphname = Yhook;
kernRight = KO_Yhook;
lastChange = "2024-04-12 00:46:34 +0000";
layers = (
{
anchors = (
{
name = bottom;
pos = (142,6);
},
{
name = top;
pos = (295,710);
},
{
name = topleft;
pos = (-11,700);
}
);
layerId = m01;
shapes = (
{
closed = 1;
nodes = (
(160,54,o),
(209,85,o),
(230,128,cs),
(233,135,o),
(488,658,o),
(494,675,cs),
(496,683,o),
(492,686,o),
(483,686,cs),
(456,686,o),
(360,583,o),
(352,560,cs),
(343,530,o),
(128,104,o),
(124,96,cs),
(119,85,o),
(117,76,o),
(117,70,cs),
(117,59,o),
(123,54,o),
(134,54,cs)
);
},
{
closed = 1;
nodes = (
(222,-17,o),
(274,120,o),
(274,159,cs),
(274,163,o),
(273,166,o),
(272,168,c),
(256,188,o),
(229,198,o),
(199,198,cs),
(168,198,o),
(136,187,o),
(113,166,cs),
(93,148,o),
(54,38,o),
(54,7,cs),
(54,-1,o),
(57,-4,o),
(63,2,cs),
(81,18,o),
(111,28,o),
(140,28,cs),
(167,28,o),
(193,19,o),
(208,0,cs)
);
},
{
closed = 1;
nodes = (
(187,306,o),
(193,308,o),
(199,311,cs),
(242,333,o),
(334,437,o),
(313,437,cs),
(310,437,o),
(307,436,o),
(301,433,cs),
(247,405,o),
(200,711,o),
(130,711,cs),
(127,711,o),
(124,710,o),
(121,709,cs),
(90,697,o),
(0,602,o),
(0,584,cs),
(0,581,o),
(3,580,o),
(9,583,cs),
(63,604,o),
(102,306,o),
(181,306,cs)
);
},
{
closed = 1;
nodes = (
(533,482,o),
(604,559,o),
(625,599,cs),
(630,611,o),
(633,624,o),
(633,638,cs),
(633,687,o),
(589,710,o),
(547,710,cs),
(513,710,o),
(457,695,o),
(409,655,cs),
(381,632,o),
(365,597,o),
(352,560,cs),
(351,556,o),
(369,567,o),
(389,583,cs),
(396,589,o),
(420,593,o),
(430,593,cs),
(473,593,o),
(524,577,o),
(524,526,cs),
(524,516,o),
(522,506,o),
(516,496,c),
(514,491,o),
(513,488,o),
(513,485,cs),
(513,483,o),
(514,482,o),
(516,482,cs)
);
}
);
width = 646;
}
);
unicode = 435;
},
{
glyphname = Z;
kernLeft = KO_Z;
kernRight = KO_Z;
lastChange = "2024-04-12 00:46:34 +0000";
layers = (
{
anchors = (
{
name = bottom;
pos = (222,-16);
},
{
name = center;
pos = (222,350);
},
{
name = top;
pos = (282,716);
}
);
background = {
anchors = (
{
name = bottom;
pos = (222,-16);
},
{
name = center;
pos = (222,350);
},
{
name = top;
pos = (282,716);
}
);
shapes = (
{
closed = 1;
nodes = (
(39,123,o),
(5,36,o),
(5,-1,cs),
(5,-12,o),
(8,-18,o),
(14,-18,cs),
(18,-18,o),
(22,-16,o),
(28,-11,cs),
(46,3,o),
(67,7,o),
(91,7,cs),
(146,7,o),
(213,-19,o),
(273,-19,cs),
(302,-19,o),
(330,-13,o),
(354,6,cs),
(372,19,o),
(404,129,o),
(404,166,cs),
(404,176,o),
(402,181,o),
(396,176,cs),
(375,161,o),
(353,155,o),
(329,155,cs),
(279,155,o),
(223,178,o),
(167,178,cs),
(134,178,o),
(101,170,o),
(68,145,cs)
);
},
{
closed = 1;
nodes = (
(95,670,o),
(54,556,o),
(54,525,cs),
(54,517,o),
(56,514,o),
(62,519,cs),
(77,531,o),
(102,535,o),
(132,535,cs),
(182,535,o),
(246,525,o),
(308,525,cs),
(335,525,o),
(362,527,o),
(387,532,cs),
(404,536,o),
(451,657,o),
(451,692,cs),
(451,699,o),
(449,702,o),
(445,702,c),
(422,697,o),
(398,695,o),
(373,695,cs),
(313,695,o),
(250,705,o),
(198,705,cs),
(163,705,o),
(134,701,o),
(114,685,cs)
);
},
{
closed = 1;
nodes = (
(415,590,o),
(405,593,o),
(389,593,cs),
(362,593,o),
(320,582,o),
(314,568,cs),
(256,426,o),
(69,211,o),
(34,100,cs),
(32,92,o),
(42,89,o),
(56,89,cs),
(84,89,o),
(128,101,o),
(132,114,cs),
(165,219,o),
(352,434,o),
(412,582,cs)
);
},
{
closed = 1;
nodes = (
(127,447,o),
(85,331,o),
(85,299,cs),
(85,292,o),
(87,289,o),
(92,292,cs),
(98,296,o),
(104,298,o),
(112,298,cs),
(156,298,o),
(231,248,o),
(280,248,cs),
(287,248,o),
(294,249,o),
(300,252,cs),
(318,259,o),
(363,377,o),
(363,412,cs),
(363,419,o),
(361,422,o),
(356,420,cs),
(352,418,o),
(346,418,o),
(341,418,cs),
(297,418,o),
(224,467,o),
(174,467,cs),
(163,467,o),
(154,465,o),
(146,460,cs)
);
}
);
};
layerId = m01;
shapes = (
{
closed = 1;
nodes = (
(302,-19,o),
(330,-13,o),
(354,6,cs),
(372,19,o),
(404,129,o),
(404,166,cs),
(404,176,o),
(402,181,o),
(396,176,cs),
(375,161,o),
(353,155,o),
(329,155,cs),
(279,155,o),
(223,178,o),
(167,178,cs),
(162,178,l),
(177,204,o),
(195,233,o),
(216,264,c),
(239,255,o),
(261,248,o),
(280,248,cs),
(287,248,o),
(294,249,o),
(300,252,cs),
(318,259,o),
(363,377,o),
(363,412,cs),
(363,419,o),
(361,422,o),
(356,420,cs),
(352,418,o),
(346,418,o),
(341,418,cs),
(335,418,o),
(328,419,o),
(322,420,c),
(347,459,o),
(370,497,o),
(389,533,c),
(407,545,o),
(451,658,o),
(451,692,cs),
(451,699,o),
(449,702,o),
(445,702,c),
(422,697,o),
(398,695,o),
(373,695,cs),
(313,695,o),
(250,705,o),
(198,705,cs),
(163,705,o),
(134,701,o),
(114,685,cs),
(95,670,o),
(54,556,o),
(54,525,cs),
(54,517,o),
(56,514,o),
(62,519,cs),
(77,531,o),
(102,535,o),
(132,535,cs),
(178,535,o),
(236,526,o),
(294,525,c),
(281,500,o),
(266,474,o),
(248,447,c),
(222,458,o),
(196,467,o),
(174,467,cs),
(163,467,o),
(154,465,o),
(146,460,cs),
(127,447,o),
(85,331,o),
(85,299,cs),
(85,292,o),
(87,289,o),
(92,292,cs),
(98,296,o),
(104,298,o),
(112,298,cs),
(122,298,o),
(133,296,o),
(145,292,c),
(94,218,o),
(49,149,o),
(34,100,c),
(34,96,l),
(18,63,o),
(5,22,o),
(5,-1,cs),
(5,-12,o),
(8,-18,o),
(14,-18,cs),
(18,-18,o),
(22,-16,o),
(28,-11,cs),
(46,3,o),
(67,7,o),
(91,7,cs),
(146,7,o),
(213,-19,o),
(273,-19,cs)
);
}
);
width = 456;
}
);
unicode = 90;
userData = {
KernOnName = Z;
};
},
{
glyphname = Saltillo;
lastChange = "2024-04-12 00:46:34 +0000";
layers = (
{
layerId = m01;
shapes = (
{
closed = 1;
nodes = (
(110,252,o),
(236,385,o),
(200,378,cs),
(196,377,o),
(195,388,o),
(195,400,cs),
(196,424,ls),
(200,497,o),
(206,571,o),
(211,645,cs),
(212,665,o),
(210,711,o),
(189,711,cs),
(166,711,o),
(32,581,o),
(61,581,cs),
(66,581,o),
(68,575,o),
(68,567,cs),
(68,558,o),
(66,545,o),
(65,533,cs),
(50,312,ls),
(50,297,o),
(55,241,o),
(78,246,cs)
);
}
);
width = 251;
}
);
unicode = 42891;
},
{
color = 0;
glyphname = Eng.loclNSM;
kernRight = KO_N;
lastChange = "2024-04-12 00:46:34 +0000";
layers = (
{
anchors = (
{
name = bottom;
pos = (346,0);
},
{
name = top;
pos = (406,709);
}
);
background = {
anchors = (
{
name = bottom;
pos = (346,0);
},
{
name = top;
pos = (406,709);
}
);
shapes = (
{
closed = 1;
nodes = (
(200,728,o),
(79,609,o),
(89,591,cs),
(180,428,o),
(280,129,o),
(383,2,cs),
(395,-13,o),
(516,107,o),
(503,122,cs),
(402,247,o),
(302,546,o),
(211,709,cs)
);
},
{
closed = 1;
nodes = (
(19,150,o),
(-20,40,o),
(-20,9,cs),
(-20,1,o),
(-17,-2,o),
(-11,4,cs),
(7,20,o),
(37,30,o),
(66,30,cs),
(93,30,o),
(119,21,o),
(134,2,cs),
(148,-15,o),
(200,122,o),
(200,161,cs),
(200,165,o),
(199,168,o),
(198,170,c),
(182,190,o),
(155,200,o),
(125,200,cs),
(94,200,o),
(62,189,o),
(39,168,cs)
);
},
{
closed = 1;
nodes = (
(549,565,o),
(587,673,o),
(587,704,cs),
(587,712,o),
(585,715,o),
(578,709,cs),
(560,693,o),
(530,683,o),
(501,683,cs),
(474,683,o),
(448,692,o),
(433,711,cs),
(420,727,o),
(367,594,o),
(367,553,cs),
(367,549,o),
(367,545,o),
(369,543,cs),
(385,523,o),
(412,513,o),
(442,513,cs),
(473,513,o),
(505,524,o),
(528,545,cs)
);
},
{
closed = 1;
nodes = (
(55,41,o),
(60,35,o),
(69,35,cs),
(92,35,o),
(141,75,o),
(147,107,cs),
(158,167,o),
(198,635,o),
(198,636,cs),
(199,648,o),
(194,653,o),
(186,653,cs),
(162,653,o),
(111,610,o),
(108,578,cs),
(106,562,o),
(69,116,o),
(57,55,cs)
);
},
{
closed = 1;
nodes = (
(380,41,o),
(385,35,o),
(394,35,cs),
(417,35,o),
(466,75,o),
(472,107,cs),
(483,167,o),
(523,635,o),
(523,636,cs),
(524,648,o),
(519,653,o),
(511,653,cs),
(487,653,o),
(436,610,o),
(433,578,cs),
(431,562,o),
(394,116,o),
(382,55,cs)
);
},
{
closed = 1;
nodes = (
(279,-114,o),
(408,1,o),
(399,13,cs),
(379,40,o),
(350,56,o),
(314,56,cs),
(289,56,o),
(261,48,o),
(229,32,cs),
(192,12,o),
(96,-99,o),
(117,-99,cs),
(119,-99,o),
(122,-98,o),
(127,-96,cs),
(157,-80,o),
(185,-71,o),
(209,-71,cs),
(233,-71,o),
(254,-80,o),
(271,-103,cs)
);
}
);
};
layerId = m01;
shapes = (
{
closed = 1;
nodes = (
(278,-113,o),
(378,-25,o),
(397,4,c),
(431,24,o),
(514,109,o),
(503,122,cs),
(478,156,l),
(488,245,o),
(504,422,o),
(514,534,c),
(519,537,o),
(524,541,o),
(528,545,cs),
(549,565,o),
(587,673,o),
(587,704,cs),
(587,712,o),
(585,715,o),
(578,709,cs),
(560,693,o),
(530,683,o),
(501,683,cs),
(474,683,o),
(448,692,o),
(433,711,cs),
(420,727,o),
(367,594,o),
(367,553,cs),
(367,549,o),
(367,545,o),
(369,543,cs),
(382,526,o),
(403,517,o),
(427,514,c),
(407,285,l),
(339,424,o),
(273,598,o),
(211,709,cs),
(200,728,o),
(79,609,o),
(89,591,cs),
(106,559,l),
(101,500,o),
(86,319,o),
(73,189,c),
(60,184,o),
(49,177,o),
(39,168,cs),
(19,150,o),
(-20,40,o),
(-20,9,cs),
(-20,1,o),
(-17,-2,o),
(-11,4,cs),
(7,20,o),
(37,30,o),
(66,30,cs),
(93,30,o),
(119,21,o),
(134,2,cs),
(148,-15,o),
(200,122,o),
(200,161,cs),
(200,165,o),
(199,168,o),
(198,170,c),
(188,182,o),
(174,191,o),
(158,196,c),
(178,406,l),
(233,281,o),
(290,143,o),
(349,51,c),
(338,54,o),
(326,56,o),
(314,56,cs),
(289,56,o),
(261,48,o),
(229,32,cs),
(192,12,o),
(96,-99,o),
(117,-99,cs),
(119,-99,o),
(122,-98,o),
(127,-96,cs),
(157,-80,o),
(185,-71,o),
(209,-71,cs),
(233,-71,o),
(254,-80,o),
(271,-103,cs)
);
}
);
width = 567;
}
);
},
{
color = 2;
glyphname = C.ss01;
kernLeft = KO_C.ss01;
kernRight = KO_C.ss01;
lastChange = "2024-04-12 00:46:34 +0000";
layers = (
{
anchors = (
{
name = bottom;
pos = (178,0);
},
{
name = top;
pos = (350,711);
}
);
background = {
anchors = (
{
name = bottom;
pos = (178,0);
},
{
name = top;
pos = (350,711);
}
);
shapes = (
{
closed = 1;
nodes = (
(361,616,o),
(364,622,o),
(364,625,cs),
(364,627,o),
(363,628,o),
(360,628,cs),
(341,628,o),
(261,582,o),
(224,543,cs),
(67,380,o),
(10,251,o),
(10,159,cs),
(10,43,o),
(99,-16,o),
(190,-16,cs),
(238,-16,o),
(287,1,o),
(323,35,cs),
(353,63,o),
(419,218,o),
(402,218,cs),
(401,218,o),
(398,216,o),
(395,213,cs),
(357,177,o),
(308,159,o),
(263,159,cs),
(202,159,o),
(150,193,o),
(150,266,cs),
(150,339,o),
(202,452,o),
(352,607,cs)
);
},
{
closed = 1;
nodes = (
(393,556,o),
(436,672,o),
(436,706,cs),
(436,714,o),
(434,718,o),
(429,715,cs),
(408,705,o),
(371,698,o),
(334,698,cs),
(299,698,o),
(264,704,o),
(240,717,cs),
(225,726,o),
(174,598,o),
(174,559,cs),
(174,554,o),
(176,550,o),
(178,549,cs),
(203,534,o),
(239,528,o),
(274,528,cs),
(312,528,o),
(350,535,o),
(373,547,cs)
);
}
);
};
guides = (
{
pos = (683,541);
}
);
layerId = m01;
shapes = (
{
closed = 1;
nodes = (
(238,-16,o),
(287,1,o),
(323,35,cs),
(353,63,o),
(419,218,o),
(402,218,cs),
(401,218,o),
(398,216,o),
(395,213,cs),
(357,177,o),
(308,159,o),
(263,159,cs),
(202,159,o),
(150,193,o),
(150,266,cs),
(150,326,o),
(185,413,o),
(281,528,c),
(317,529,o),
(351,536,o),
(373,547,cs),
(393,556,o),
(436,672,o),
(436,706,cs),
(436,714,o),
(434,718,o),
(429,715,cs),
(408,705,o),
(371,698,o),
(334,698,cs),
(299,698,o),
(264,704,o),
(240,717,cs),
(225,726,o),
(174,598,o),
(174,559,cs),
(174,554,o),
(176,550,o),
(178,549,cs),
(189,543,o),
(202,538,o),
(216,534,c),
(65,375,o),
(10,249,o),
(10,159,cs),
(10,43,o),
(99,-16,o),
(190,-16,cs)
);
}
);
width = 456;
}
);
},
{
glyphname = a;
kernLeft = KO_a;
kernRight = KO_a;
lastChange = "2024-04-12 00:46:34 +0000";
layers = (
{
anchors = (
{
name = bottom;
pos = (218,1);
},
{
name = ogonek;
pos = (309,0);
},
{
name = top;
pos = (321,721);
}
);
background = {
shapes = (
{
closed = 1;
nodes = (
);
}
);
};
guides = (
{
pos = (253,0);
},
{
pos = (310,715);
}
);
layerId = m01;
shapes = (
{
closed = 1;
nodes = (
(309,-7,o),
(450,139,o),
(422,145,cs),
(412,148,o),
(407,166,o),
(407,202,cs),
(407,246,o),
(414,319,o),
(421,421,cs),
(425,476,o),
(429,499,o),
(435,569,cs),
(439,620,o),
(419,700,o),
(357,700,cs),
(317,700,o),
(258,665,o),
(177,561,cs),
(153,531,o),
(143,511,o),
(143,501,cs),
(143,496,o),
(146,493,o),
(150,493,cs),
(162,493,o),
(189,513,o),
(221,555,c),
(222,555,o),
(226,556,o),
(231,556,cs),
(250,556,o),
(291,544,o),
(291,461,c),
(289,435,l),
(277,285,ls),
(269,181,o),
(262,110,o),
(262,64,cs),
(262,23,o),
(268,3,o),
(286,-1,cs)
);
},
{
closed = 1;
nodes = (
(90,-2,o),
(142,44,o),
(146,77,cs),
(165,221,o),
(182,378,o),
(197,480,cs),
(204,527,o),
(230,579,o),
(232,583,cs),
(239,595,o),
(242,603,o),
(242,608,cs),
(242,611,o),
(240,613,o),
(237,613,cs),
(221,613,o),
(167,562,o),
(142,515,cs),
(128,489,o),
(110,442,o),
(103,398,cs),
(88,302,o),
(73,151,o),
(56,17,cs),
(54,3,o),
(59,-2,o),
(67,-2,cs)
);
},
{
closed = 1;
nodes = (
(421,223,ls),
(438,223,o),
(485,347,o),
(485,383,cs),
(485,389,o),
(484,393,o),
(481,393,cs),
(84,392,ls),
(67,392,o),
(20,267,o),
(20,232,cs),
(20,226,o),
(21,222,o),
(24,222,cs)
);
}
);
width = 530;
}
);
unicode = 97;
userData = {
KernOnName = a;
};
},
{
glyphname = "alpha-latin";
kernLeft = "KO_alpha-latin";
kernRight = "KO_alpha-latin";
lastChange = "2024-04-12 00:46:34 +0000";
layers = (
{
anchors = (
{
name = bottom;
pos = (279,0);
},
{
name = top;
pos = (390,690);
}
);
background = {
anchors = (
{
name = bottom;
pos = (242,0);
},
{
name = center;
pos = (110,310);
},
{
name = top;
pos = (242,500);
},
{
name = topright;
pos = (478,714);
}
);
};
layerId = m01;
shapes = (
{
closed = 1;
nodes = (
(237,-31,o),
(416,179,o),
(432,246,cs),
(436,262,o),
(400,297,o),
(384,297,cs),
(381,297,o),
(379,296,o),
(378,292,cs),
(334,111,o),
(263,128,o),
(262,128,cs),
(185,139,o),
(161,199,o),
(161,269,cs),
(161,380,o),
(223,524,o),
(224,525,cs),
(243,540,o),
(314,556,o),
(357,556,cs),
(377,556,o),
(391,553,o),
(391,544,cs),
(391,532,o),
(357,442,o),
(342,320,cs),
(333,248,o),
(331,177,o),
(324,106,cs),
(322,92,o),
(321,77,o),
(321,64,cs),
(321,27,o),
(331,-3,o),
(381,-3,cs),
(390,-3,o),
(399,-2,o),
(410,0,cs),
(440,5,o),
(567,138,o),
(532,132,cs),
(519,130,o),
(508,129,o),
(499,129,cs),
(471,129,o),
(463,140,o),
(463,162,cs),
(463,176,o),
(466,195,o),
(468,218,cs),
(475,283,o),
(488,348,o),
(496,412,cs),
(511,535,o),
(526,629,o),
(531,654,cs),
(536,683,o),
(486,698,o),
(429,698,cs),
(374,698,o),
(313,685,o),
(284,661,cs),
(170,568,o),
(10,288,o),
(10,120,cs),
(10,48,o),
(39,-4,o),
(114,-14,cs)
);
}
);
width = 558;
}
);
unicode = 593;
},
{
color = 3;
glyphname = aturned;
kernLeft = KO_aturned;
kernRight = KO_aturned;
lastChange = "2024-04-12 00:46:34 +0000";
layers = (
{
anchors = (
{
name = bottom;
pos = (209,-34);
},
{
name = ogonek;
pos = (220.688,687);
},
{
name = top;
pos = (311.889,686);
}
);
layerId = m01;
shapes = (
{
closed = 1;
nodes = (
(213,-13,o),
(272,22,o),
(353,126,cs),
(377,156,o),
(387,176,o),
(387,186,cs),
(387,191,o),
(384,194,o),
(380,194,cs),
(368,194,o),
(341,174,o),
(309,132,c),
(308,132,o),
(304,131,o),
(299,131,cs),
(280,131,o),
(239,143,o),
(239,226,c),
(241,252,l),
(253,402,ls),
(261,506,o),
(268,577,o),
(268,623,cs),
(268,664,o),
(262,684,o),
(244,688,cs),
(221,694,o),
(80,548,o),
(108,542,cs),
(118,539,o),
(123,521,o),
(123,485,cs),
(123,441,o),
(116,368,o),
(109,266,cs),
(105,211,o),
(101,188,o),
(95,118,cs),
(91,67,o),
(111,-13,o),
(173,-13,cs)
);
},
{
closed = 1;
nodes = (
(446,295,ls),
(463,295,o),
(510,420,o),
(510,455,cs),
(510,461,o),
(509,465,o),
(506,465,cs),
(109,464,ls),
(92,464,o),
(45,340,o),
(45,304,cs),
(45,298,o),
(46,294,o),
(49,294,cs)
);
},
{
closed = 1;
nodes = (
(309,74,o),
(363,125,o),
(388,172,cs),
(402,198,o),
(420,245,o),
(427,289,cs),
(442,385,o),
(457,536,o),
(474,670,cs),
(476,684,o),
(471,689,o),
(463,689,cs),
(440,689,o),
(388,643,o),
(384,610,cs),
(365,466,o),
(348,309,o),
(333,207,cs),
(326,160,o),
(300,108,o),
(298,104,cs),
(291,92,o),
(288,84,o),
(288,79,cs),
(288,76,o),
(290,74,o),
(293,74,cs)
);
}
);
width = 530;
}
);
metricLeft = "=|a";
metricRight = "=|a";
unicode = 592;
},
{
glyphname = ae;
kernLeft = KO_ae;
kernRight = KO_ae;
lastChange = "2024-04-12 00:46:34 +0000";
layers = (
{
anchors = (
{
name = bottom;
pos = (357,0);
},
{
name = top;
pos = (466,732);
}
);
layerId = m01;
shapes = (
{
closed = 1;
nodes = (
(559,-4,o),
(590,3,o),
(618,26,cs),
(646,49,o),
(674,132,o),
(674,171,cs),
(674,184,o),
(671,192,o),
(664,192,cs),
(660,192,o),
(656,190,o),
(650,186,c),
(640,177,o),
(613,174,o),
(583,174,cs),
(546,174,o),
(503,178,o),
(472,184,cs),
(449,188,o),
(429,191,o),
(408,191,cs),
(389,191,o),
(370,188,o),
(348,180,c),
(359,139,l),
(408,391,o),
(424,538,o),
(458,554,cs),
(466,558,o),
(473,561,o),
(481,561,cs),
(499,561,o),
(519,544,o),
(544,476,cs),
(552,455,o),
(679,583,o),
(672,602,cs),
(643,681,o),
(591,714,o),
(546,714,cs),
(532,714,o),
(520,711,o),
(508,706,cs),
(296,606,o),
(294,144,o),
(275,45,cs),
(273,33,o),
(272,24,o),
(272,18,cs),
(272,-6,o),
(285,3,o),
(286,4,c),
(314,14,o),
(338,19,o),
(365,19,cs),
(379,19,o),
(395,17,o),
(412,14,cs),
(446,8,o),
(487,-4,o),
(527,-4,cs)
);
},
{
closed = 1;
nodes = (
(80,-2,o),
(132,45,o),
(137,78,cs),
(155,224,o),
(172,385,o),
(187,489,cs),
(194,536,o),
(221,592,o),
(222,594,cs),
(229,606,o),
(232,614,o),
(232,619,cs),
(232,622,o),
(230,624,o),
(227,624,cs),
(211,624,o),
(157,573,o),
(132,526,cs),
(117,498,o),
(100,454,o),
(93,407,cs),
(78,308,o),
(63,154,o),
(45,16,cs),
(44,3,o),
(48,-2,o),
(56,-2,cs)
);
},
{
closed = 1;
nodes = (
(357,228,ls),
(374,228,o),
(421,351,o),
(421,388,cs),
(421,394,o),
(420,398,o),
(417,398,cs),
(74,397,ls),
(56,397,o),
(10,273,o),
(10,237,cs),
(10,231,o),
(11,227,o),
(14,227,cs)
);
},
{
closed = 1;
nodes = (
(299,-6,o),
(440,140,o),
(412,146,cs),
(402,149,o),
(397,168,o),
(397,204,cs),
(397,250,o),
(404,323,o),
(411,428,cs),
(415,484,o),
(419,508,o),
(425,579,cs),
(429,631,o),
(409,714,o),
(347,714,cs),
(306,714,o),
(247,677,o),
(165,571,cs),
(142,542,o),
(133,522,o),
(133,512,cs),
(133,507,o),
(135,505,o),
(139,505,cs),
(152,505,o),
(180,526,o),
(213,569,cs),
(215,571,o),
(281,581,o),
(281,472,c),
(279,445,l),
(267,292,ls),
(259,186,o),
(252,113,o),
(252,66,cs),
(252,24,o),
(258,4,o),
(276,0,cs)
);
},
{
closed = 1;
nodes = (
(554,261,ls),
(571,261,o),
(618,384,o),
(618,421,cs),
(618,427,o),
(617,431,o),
(614,431,cs),
(318,430,ls),
(300,430,o),
(254,306,o),
(254,270,cs),
(254,264,o),
(255,260,o),
(258,260,cs)
);
}
);
width = 714;
}
);
unicode = 230;
},
{
glyphname = b;
kernLeft = KO_b;
kernRight = KO_b;
lastChange = "2024-04-12 00:46:34 +0000";
layers = (
{
anchors = (
{
name = bottom;
pos = (179,0);
},
{
name = center;
pos = (251,250);
},
{
name = left;
pos = (210,557);
},
{
name = top;
pos = (251,500);
}
);
guides = (
{
pos = (310,715);
}
);
layerId = m01;
shapes = (
{
closed = 1;
nodes = (
(288,-14,o),
(402,54,o),
(467,237,cs),
(479,270,o),
(484,294,o),
(484,308,cs),
(484,316,o),
(482,321,o),
(479,321,cs),
(472,321,o),
(458,301,o),
(443,257,cs),
(416,184,o),
(337,150,o),
(265,150,cs),
(196,150,o),
(134,182,o),
(134,240,cs),
(134,256,o),
(139,274,o),
(150,295,cs),
(156,307,o),
(159,314,o),
(159,318,cs),
(159,321,o),
(158,322,o),
(156,322,cs),
(142,322,o),
(81,258,o),
(52,203,cs),
(38,177,o),
(32,151,o),
(32,127,cs),
(32,46,o),
(104,-14,o),
(193,-14,cs)
);
},
{
closed = 1;
nodes = (
(73,107,o),
(143,162,o),
(142,193,cs),
(142,194,o),
(148,459,o),
(203,582,cs),
(205,588,o),
(207,593,o),
(207,596,cs),
(207,603,o),
(203,605,o),
(197,605,cs),
(171,605,o),
(101,557,o),
(83,518,cs),
(37,415,o),
(30,274,o),
(30,191,cs),
(30,149,o),
(32,122,o),
(32,119,cs),
(32,110,o),
(37,107,o),
(44,107,cs)
);
},
{
closed = 1;
nodes = (
(383,118,o),
(459,205,o),
(475,249,cs),
(485,275,o),
(490,299,o),
(490,320,cs),
(490,413,o),
(405,462,o),
(311,462,cs),
(208,462,o),
(93,403,o),
(63,278,cs),
(57,255,o),
(55,228,o),
(55,205,cs),
(55,176,o),
(59,154,o),
(65,154,cs),
(69,154,o),
(74,163,o),
(79,184,cs),
(96,257,o),
(185,302,o),
(262,302,cs),
(326,302,o),
(381,272,o),
(381,202,cs),
(381,182,o),
(376,159,o),
(367,133,cs),
(365,128,o),
(364,124,o),
(364,122,cs),
(364,119,o),
(365,118,o),
(367,118,cs)
);
},
{
closed = 1;
nodes = (
(197,326,o),
(210,331,o),
(227,342,cs),
(380,448,o),
(436,540,o),
(436,605,cs),
(436,665,o),
(387,701,o),
(324,701,cs),
(237,701,o),
(123,634,o),
(67,471,cs),
(60,450,o),
(58,433,o),
(58,419,cs),
(58,390,o),
(69,375,o),
(85,375,cs),
(104,375,o),
(128,397,o),
(145,447,cs),
(165,507,o),
(239,539,o),
(283,539,cs),
(303,539,o),
(317,533,o),
(317,519,cs),
(317,502,o),
(295,474,o),
(237,434,cs),
(197,406,o),
(174,365,o),
(174,342,cs),
(174,332,o),
(178,326,o),
(188,326,cs)
);
}
);
width = 531;
}
);
unicode = 98;
},
{
color = 1;
glyphname = bhook;
kernLeft = KO_dhook;
kernRight = KO_b;
lastChange = "2024-04-12 00:46:34 +0000";
layers = (
{
anchors = (
{
name = bottom;
pos = (414,0);
},
{
name = center;
pos = (454,250);
},
{
name = left;
pos = (413,557);
},
{
name = top;
pos = (454,500);
}
);
background = {
shapes = (
{
closed = 0;
nodes = (
(364,606,ls,{
"Letterink-NibData" = {
MainAxisWidth = "140";
MinorAxisWidth = "15";
ValidForParentMainAxisWidth = "30";
ValidForParentMinorAxisWidth = "15";
};
}),
(379,680,o),
(321,755,o),
(253,755,cs,{
"Letterink-NibData" = {
MainAxisWidth = "140";
MinorAxisWidth = "15";
ValidForParentMainAxisWidth = "30";
ValidForParentMinorAxisWidth = "15";
};
})
);
},
{
closed = 0;
nodes = (
(346,550,l,{
"Letterink-NibData" = {
AngleInDegrees = "-5";
MainAxisWidth = "129";
MinorAxisWidth = "35";
ValidForParentMainAxisWidth = "30";
ValidForParentMinorAxisWidth = "15";
};
}),
(286,415,o),
(290,156,o),
(290,156,c,{
"Letterink-NibData" = {
AngleInDegrees = "-5";
MainAxisWidth = "108";
MinorAxisWidth = "35";
ValidForParentMainAxisWidth = "30";
ValidForParentMinorAxisWidth = "15";
};
})
);
},
{
closed = 0;
nodes = (
(274,231,l,{
"Letterink-NibData" = {
AngleInDegrees = "40";
MainAxisWidth = "123";
MinorAxisWidth = "15";
ValidForParentMainAxisWidth = "30";
ValidForParentMinorAxisWidth = "15";
};
}),
(324,440,o),
(717,437,o),
(624,191,c,{
"Letterink-NibData" = {
AngleInDegrees = "7";
MainAxisWidth = "150";
MinorAxisWidth = "15";
ValidForParentMainAxisWidth = "30";
ValidForParentMinorAxisWidth = "15";
};
})
);
},
{
closed = 0;
nodes = (
(435,388,l,{
"Letterink-NibData" = {
AngleInDegrees = "1";
MainAxisWidth = "130";
MinorAxisWidth = "48";
ValidForParentMainAxisWidth = "30";
ValidForParentMinorAxisWidth = "15";
};
}),
(784,645,o),
(400,751,o),
(309,464,c,{
"Letterink-NibData" = {
AngleInDegrees = "26";
MainAxisWidth = "150";
MinorAxisWidth = "66";
ValidForParentMainAxisWidth = "30";
ValidForParentMinorAxisWidth = "15";
};
})
);
},
{
closed = 0;
nodes = (
(658,247,l,{
"Letterink-NibData" = {
AngleInDegrees = "26";
MainAxisWidth = "130";
MinorAxisWidth = "15";
ValidForParentMainAxisWidth = "30";
ValidForParentMinorAxisWidth = "15";
};
}),
(556,-37,o),
(203,58,o),
(304,249,c,{
"Letterink-NibData" = {
AngleInDegrees = "7";
MainAxisWidth = "150";
MinorAxisWidth = "15";
ValidForParentMainAxisWidth = "30";
ValidForParentMinorAxisWidth = "15";
};
})
);
}
);
};
layerId = m01;
shapes = (
{
closed = 1;
nodes = (
(491,-14,o),
(605,54,o),
(670,237,cs),
(682,270,o),
(687,294,o),
(687,308,cs),
(687,316,o),
(685,321,o),
(682,321,cs),
(675,321,o),
(661,301,o),
(646,257,cs),
(619,184,o),
(540,150,o),
(468,150,cs),
(399,150,o),
(337,182,o),
(337,240,cs),
(337,256,o),
(342,274,o),
(353,295,cs),
(359,307,o),
(362,314,o),
(362,318,cs),
(362,321,o),
(361,322,o),
(359,322,cs),
(345,322,o),
(284,258,o),
(255,203,cs),
(241,177,o),
(235,151,o),
(235,127,cs),
(235,46,o),
(307,-14,o),
(396,-14,cs)
);
},
{
closed = 1;
nodes = (
(112,327,o),
(233,419,o),
(233,487,cs),
(233,492,o),
(231,495,o),
(227,495,cs),
(222,495,o),
(213,490,o),
(203,480,cs),
(188,467,o),
(166,461,o),
(147,461,cs),
(114,461,o),
(85,478,o),
(85,523,cs),
(85,533,o),
(86,555,o),
(103,570,cs),
(108,574,o),
(111,588,o),
(111,591,cs),
(111,595,o),
(92,588,o),
(91,585,c),
(72,565,o),
(27,513,o),
(11,459,cs),
(4,435,o),
(0,414,o),
(0,395,cs),
(0,349,o),
(23,327,o),
(56,327,cs)
);
},
{
closed = 1;
nodes = (
(276,107,o),
(346,162,o),
(345,193,cs),
(345,194,o),
(351,459,o),
(406,582,cs),
(408,588,o),
(410,593,o),
(410,596,cs),
(410,603,o),
(406,605,o),
(400,605,cs),
(374,605,o),
(304,557,o),
(286,518,cs),
(240,415,o),
(233,274,o),
(233,191,cs),
(233,149,o),
(235,122,o),
(235,119,cs),
(235,110,o),
(240,107,o),
(247,107,cs)
);
},
{
closed = 1;
nodes = (
(586,118,o),
(662,205,o),
(678,249,cs),
(688,275,o),
(693,299,o),
(693,320,cs),
(693,413,o),
(608,462,o),
(514,462,cs),
(411,462,o),
(296,403,o),
(266,278,cs),
(260,255,o),
(258,228,o),
(258,205,cs),
(258,176,o),
(262,154,o),
(268,154,cs),
(272,154,o),
(277,163,o),
(282,184,cs),
(299,257,o),
(388,302,o),
(465,302,cs),
(529,302,o),
(584,272,o),
(584,202,cs),
(584,182,o),
(579,159,o),
(570,133,cs),
(568,128,o),
(567,124,o),
(567,122,cs),
(567,119,o),
(568,118,o),
(570,118,cs)
);
},
{
closed = 1;
nodes = (
(316,515,o),
(436,654,o),
(415,662,cs),
(367,680,o),
(320,679,o),
(292,679,cs),
(253,679,o),
(180,674,o),
(91,585,cs),
(61,555,o),
(118,569,o),
(170,569,cs),
(275,569,o),
(279,536,o),
(298,525,cs)
);
},
{
closed = 1;
nodes = (
(401,326,o),
(415,331,o),
(434,345,cs),
(585,456,o),
(640,552,o),
(640,618,cs),
(640,680,o),
(592,716,o),
(529,716,cs),
(441,716,o),
(324,645,o),
(269,473,cs),
(263,454,o),
(260,438,o),
(260,424,cs),
(260,396,o),
(272,380,o),
(288,380,cs),
(307,380,o),
(332,403,o),
(349,455,cs),
(370,524,o),
(436,556,o),
(479,556,cs),
(502,556,o),
(518,547,o),
(518,529,cs),
(518,508,o),
(496,475,o),
(436,431,cs),
(398,403,o),
(377,365,o),
(377,343,cs),
(377,333,o),
(382,326,o),
(392,326,cs)
);
}
);
width = 733;
}
);
unicode = 595;
},
{
glyphname = bstroke;
kernRight = KO_b;
lastChange = "2024-04-12 00:46:34 +0000";
layers = (
{
anchors = (
{
name = bottom;
pos = (233,0);
},
{
name = top;
pos = (371,690);
}
);
layerId = m01;
shapes = (
{
closed = 1;
nodes = (
(342,-14,o),
(456,54,o),
(521,237,cs),
(533,270,o),
(538,294,o),
(538,308,cs),
(538,316,o),
(536,321,o),
(533,321,cs),
(526,321,o),
(512,301,o),
(497,257,cs),
(470,184,o),
(391,150,o),
(319,150,cs),
(250,150,o),
(188,182,o),
(188,240,cs),
(188,256,o),
(193,274,o),
(204,295,cs),
(210,307,o),
(213,314,o),
(213,318,cs),
(213,321,o),
(212,322,o),
(210,322,cs),
(196,322,o),
(135,258,o),
(106,203,cs),
(92,177,o),
(86,151,o),
(86,127,cs),
(86,46,o),
(158,-14,o),
(247,-14,cs)
);
},
{
closed = 1;
nodes = (
(127,107,o),
(197,162,o),
(196,193,cs),
(196,194,o),
(202,459,o),
(257,582,cs),
(259,588,o),
(261,593,o),
(261,596,cs),
(261,603,o),
(257,605,o),
(251,605,cs),
(225,605,o),
(155,557,o),
(137,518,cs),
(91,415,o),
(84,274,o),
(84,191,cs),
(84,149,o),
(86,122,o),
(86,119,cs),
(86,110,o),
(91,107,o),
(98,107,cs)
);
},
{
closed = 1;
nodes = (
(168,380,ls),
(185,380,o),
(232,492,o),
(232,526,cs),
(232,531,o),
(231,535,o),
(228,535,cs),
(44,533,ls),
(26,533,o),
(-20,420,o),
(-20,387,cs),
(-20,382,o),
(-19,378,o),
(-16,378,cs)
);
},
{
closed = 1;
nodes = (
(437,118,o),
(513,205,o),
(529,249,cs),
(539,275,o),
(544,299,o),
(544,320,cs),
(544,413,o),
(459,462,o),
(365,462,cs),
(262,462,o),
(147,403,o),
(117,278,cs),
(111,255,o),
(109,228,o),
(109,205,cs),
(109,176,o),
(113,154,o),
(119,154,cs),
(123,154,o),
(128,163,o),
(133,184,cs),
(150,257,o),
(239,302,o),
(316,302,cs),
(380,302,o),
(435,272,o),
(435,202,cs),
(435,182,o),
(430,159,o),
(421,133,cs),
(419,128,o),
(418,124,o),
(418,122,cs),
(418,119,o),
(419,118,o),
(421,118,cs)
);
},
{
closed = 1;
nodes = (
(251,326,o),
(264,331,o),
(281,342,cs),
(434,448,o),
(490,540,o),
(490,605,cs),
(490,665,o),
(441,701,o),
(378,701,cs),
(291,701,o),
(177,634,o),
(121,471,cs),
(114,450,o),
(112,433,o),
(112,419,cs),
(112,390,o),
(123,375,o),
(139,375,cs),
(158,375,o),
(182,397,o),
(199,447,cs),
(219,507,o),
(293,539,o),
(337,539,cs),
(357,539,o),
(371,533,o),
(371,519,cs),
(371,502,o),
(349,474,o),
(291,434,cs),
(251,406,o),
(228,365,o),
(228,342,cs),
(228,332,o),
(232,326,o),
(242,326,cs)
);
}
);
width = 585;
}
);
metricRight = b;
unicode = 384;
},
{
glyphname = c;
kernLeft = KO_c;
kernRight = KO_c;
lastChange = "2024-04-12 00:46:34 +0000";
layers = (
{
anchors = (
{
name = bottom;
pos = (242,0);
},
{
name = top;
pos = (335,711);
}
);
guides = (
{
pos = (-197,910);
},
{
pos = (304,725);
}
);
layerId = m01;
shapes = (
{
closed = 1;
nodes = (
(240,-16,o),
(302,16,o),
(366,91,cs),
(405,137,o),
(426,186,o),
(426,210,cs),
(426,219,o),
(423,224,o),
(417,224,cs),
(408,224,o),
(392,213,o),
(368,185,cs),
(343,156,o),
(316,144,o),
(291,144,cs),
(220,144,o),
(157,243,o),
(157,360,cs),
(157,423,o),
(175,491,o),
(219,551,cs),
(239,577,o),
(247,595,o),
(247,606,cs),
(247,613,o),
(243,616,o),
(237,616,cs),
(220,616,o),
(185,592,o),
(151,545,cs),
(65,430,o),
(30,311,o),
(30,213,cs),
(30,80,o),
(95,-16,o),
(187,-16,cs)
);
},
{
closed = 1;
nodes = (
(343,468,o),
(470,595,o),
(461,613,cs),
(448,638,o),
(419,700,o),
(361,700,cs),
(331,700,o),
(294,683,o),
(249,637,cs),
(197,585,o),
(163,517,o),
(180,517,cs),
(186,517,o),
(198,525,o),
(217,545,cs),
(225,552,o),
(234,556,o),
(245,556,cs),
(274,556,o),
(312,528,o),
(333,487,cs)
);
}
);
width = 481;
}
);
unicode = 99;
userData = {
KernOnName = c;
};
},
{
color = 0;
glyphname = chook;
lastChange = "2024-04-12 00:46:34 +0000";
layers = (
{
anchors = (
{
name = bottom;
pos = (212,0);
},
{
name = top;
pos = (305,711);
}
);
background = {
shapes = (
{
closed = 0;
nodes = (
(373,613,ls,{
"Letterink-NibData" = {
MainAxisWidth = "140";
MinorAxisWidth = "15";
ValidForParentMainAxisWidth = "30";
ValidForParentMinorAxisWidth = "15";
};
}),
(388,687,o),
(330,762,o),
(262,762,cs,{
"Letterink-NibData" = {
MainAxisWidth = "140";
MinorAxisWidth = "15";
ValidForParentMainAxisWidth = "30";
ValidForParentMinorAxisWidth = "15";
};
})
);
}
);
};
layerId = m01;
shapes = (
{
closed = 1;
nodes = (
(210,-16,o),
(272,16,o),
(336,91,cs),
(375,137,o),
(396,186,o),
(396,210,cs),
(396,219,o),
(393,224,o),
(387,224,cs),
(378,224,o),
(362,213,o),
(338,185,cs),
(313,156,o),
(286,144,o),
(261,144,cs),
(190,144,o),
(127,243,o),
(127,360,cs),
(127,423,o),
(145,491,o),
(189,551,cs),
(209,577,o),
(217,595,o),
(217,606,cs),
(217,613,o),
(213,616,o),
(207,616,cs),
(190,616,o),
(155,592,o),
(121,545,cs),
(35,430,o),
(0,311,o),
(0,213,cs),
(0,80,o),
(65,-16,o),
(157,-16,cs)
);
},
{
closed = 1;
nodes = (
(299,448,o),
(426,575,o),
(417,593,cs),
(404,618,o),
(375,680,o),
(317,680,cs),
(287,680,o),
(250,663,o),
(205,617,cs),
(153,565,o),
(119,497,o),
(136,497,cs),
(142,497,o),
(154,505,o),
(173,525,cs),
(181,532,o),
(190,536,o),
(201,536,cs),
(230,536,o),
(268,508,o),
(289,467,cs)
);
},
{
closed = 1;
nodes = (
(301,595,l),
(290,657,o),
(310,719,o),
(378,779,cs),
(395,793,o),
(412,807,o),
(412,816,cs),
(412,823,o),
(407,827,o),
(398,827,cs),
(387,827,o),
(369,820,o),
(350,802,cs),
(214,682,o),
(249,607,o),
(247,555,c)
);
},
{
closed = 1;
nodes = (
(452,639,o),
(579,759,o),
(568,777,cs),
(553,802,o),
(523,860,o),
(464,860,cs),
(436,860,o),
(417,867,o),
(374,830,cs),
(325,789,o),
(258,683,o),
(278,683,cs),
(282,683,o),
(290,687,o),
(302,698,cs),
(324,716,o),
(343,724,o),
(360,724,cs),
(397,724,o),
(423,688,o),
(442,657,cs)
);
}
);
width = 431;
}
);
unicode = 392;
},
{
glyphname = d;
kernLeft = KO_d;
kernRight = KO_d;
lastChange = "2024-04-12 00:46:34 +0000";
layers = (
{
anchors = (
{
name = bottom;
pos = (164,0);
},
{
name = center;
pos = (103,310);
},
{
name = top;
pos = (300,664);
},
{
name = topright;
pos = (471,715);
}
);
guides = (
{
pos = (295,715);
}
);
layerId = m01;
shapes = (
{
closed = 1;
nodes = (
(369,141,o),
(402,170,o),
(428,223,cs),
(451,271,o),
(462,314,o),
(462,354,cs),
(462,490,o),
(339,593,o),
(141,701,cs),
(124,711,o),
(47,548,o),
(65,539,cs),
(319,399,o),
(357,259,o),
(357,221,cs),
(357,217,o),
(357,214,o),
(356,213,c),
(344,188,o),
(339,170,o),
(339,159,cs),
(339,147,o),
(344,141,o),
(352,141,cs)
);
},
{
closed = 1;
nodes = (
(218,-15,o),
(300,27,o),
(385,152,cs),
(405,180,o),
(413,204,o),
(413,220,cs),
(413,233,o),
(407,241,o),
(398,241,cs),
(386,241,o),
(367,229,o),
(347,198,cs),
(329,172,o),
(293,153,o),
(245,153,cs),
(196,153,o),
(135,172,o),
(65,221,cs),
(50,232,o),
(0,90,o),
(0,48,cs),
(0,42,o),
(1,38,o),
(3,37,cs),
(45,7,o),
(93,-15,o),
(146,-15,cs)
);
},
{
closed = 1;
nodes = (
(83,81,o),
(128,99,o),
(129,114,cs),
(169,570,ls),
(170,576,o),
(164,579,o),
(155,579,cs),
(132,579,o),
(88,561,o),
(87,546,cs),
(47,90,ls),
(46,84,o),
(52,81,o),
(60,81,cs)
);
}
);
width = 512;
}
);
unicode = 100;
userData = {
KernOnName = d;
};
},
{
color = 0;
glyphname = dcaron;
kernLeft = KO_dcaron;
kernRight = KO_dcaron;
lastChange = "2024-04-12 00:46:34 +0000";
layers = (
{
anchors = (
{
name = bottom;
pos = (144,0);
},
{
name = top;
pos = (320,895);
}
);
layerId = m01;
shapes = (
{
closed = 1;
nodes = (
(198,-15,o),
(280,27,o),
(365,152,cs),
(372,162,o),
(378,171,o),
(382,180,c),
(391,192,o),
(400,206,o),
(408,223,cs),
(431,271,o),
(442,314,o),
(442,354,cs),
(442,490,o),
(319,593,o),
(121,701,cs),
(104,711,o),
(27,548,o),
(45,539,cs),
(65,528,l),
(38,219,l),
(19,200,o),
(-20,85,o),
(-20,48,cs),
(-20,42,o),
(-19,38,o),
(-17,37,cs),
(25,7,o),
(73,-15,o),
(126,-15,cs)
);
},
{
closed = 1;
nodes = (
(193,153,o),
(156,161,o),
(115,180,c),
(141,479,l),
(309,361,o),
(337,254,o),
(337,221,cs),
(337,217,o),
(337,214,o),
(336,213,c),
(333,207,l),
(327,198,ls),
(309,172,o),
(273,153,o),
(225,153,cs)
);
},
{
closed = 1;
nodes = (
(280,676,o),
(314,694,o),
(336,715,c),
(341,718,o),
(345,722,o),
(349,727,cs),
(434,835,ls),
(440,842,o),
(442,848,o),
(442,853,cs),
(442,860,o),
(436,863,o),
(427,863,cs),
(412,863,o),
(387,852,o),
(372,833,cs),
(331,781,l),
(258,859,l),
(254,862,o),
(249,864,o),
(243,864,cs),
(210,864,o),
(145,819,o),
(145,793,cs),
(145,789,o),
(146,786,o),
(148,783,c),
(244,681,l),
(248,678,o),
(253,676,o),
(259,676,cs)
);
}
);
width = 492;
}
);
unicode = 271;
},
{
color = 1;
glyphname = dhook;
kernLeft = KO_dhook;
kernRight = KO_dhook;
lastChange = "2024-04-12 00:46:34 +0000";
layers = (
{
anchors = (
{
name = bottom;
pos = (447,0);
},
{
name = center;
pos = (315,310);
},
{
name = top;
pos = (447,500);
},
{
name = topright;
pos = (683,714);
}
);
background = {
shapes = (
{
closed = 0;
nodes = (
(350,613,ls,{
"Letterink-NibData" = {
MainAxisWidth = "140";
MinorAxisWidth = "15";
ValidForParentMainAxisWidth = "30";
ValidForParentMinorAxisWidth = "15";
};
}),
(365,687,o),
(307,762,o),
(239,762,cs,{
"Letterink-NibData" = {
MainAxisWidth = "140";
MinorAxisWidth = "15";
ValidForParentMainAxisWidth = "30";
ValidForParentMinorAxisWidth = "15";
};
})
);
}
);
};
layerId = m01;
shapes = (
{
closed = 1;
nodes = (
(581,141,o),
(614,170,o),
(640,223,cs),
(664,272,o),
(674,320,o),
(674,366,cs),
(674,516,o),
(562,646,o),
(416,699,cs),
(398,705,o),
(326,561,o),
(345,554,cs),
(536,485,o),
(570,281,o),
(570,227,cs),
(570,220,o),
(569,215,o),
(568,213,cs),
(556,188,o),
(551,170,o),
(551,159,cs),
(551,147,o),
(556,141,o),
(564,141,cs)
);
},
{
closed = 1;
nodes = (
(430,-15,o),
(512,27,o),
(597,152,cs),
(617,180,o),
(625,204,o),
(625,220,cs),
(625,233,o),
(619,241,o),
(610,241,cs),
(598,241,o),
(579,229,o),
(559,198,cs),
(541,172,o),
(505,153,o),
(457,153,cs),
(408,153,o),
(347,172,o),
(277,221,cs),
(262,232,o),
(212,90,o),
(212,48,cs),
(212,42,o),
(213,38,o),
(215,37,cs),
(257,7,o),
(305,-15,o),
(358,-15,cs)
);
},
{
closed = 1;
nodes = (
(112,327,o),
(233,419,o),
(233,487,cs),
(233,492,o),
(231,495,o),
(227,495,cs),
(222,495,o),
(213,490,o),
(203,480,cs),
(188,467,o),
(166,461,o),
(147,461,cs),
(114,461,o),
(85,478,o),
(85,523,cs),
(85,533,o),
(86,555,o),
(103,570,cs),
(108,574,o),
(111,588,o),
(111,591,cs),
(111,595,o),
(92,588,o),
(91,585,c),
(72,565,o),
(27,513,o),
(11,459,cs),
(4,435,o),
(0,414,o),
(0,395,cs),
(0,349,o),
(23,327,o),
(56,327,cs)
);
},
{
closed = 1;
nodes = (
(295,81,o),
(340,99,o),
(341,114,cs),
(387,643,ls),
(388,649,o),
(382,652,o),
(373,652,cs),
(350,652,o),
(306,634,o),
(305,619,cs),
(259,90,ls),
(258,84,o),
(264,81,o),
(272,81,cs)
);
},
{
closed = 1;
nodes = (
(329,545,o),
(437,691,o),
(416,699,cs),
(368,717,o),
(321,715,o),
(293,715,cs),
(254,715,o),
(180,674,o),
(91,585,cs),
(61,555,o),
(118,569,o),
(170,569,cs),
(275,569,o),
(292,566,o),
(311,555,cs)
);
}
);
width = 714;
}
);
unicode = 599;
},
{
glyphname = e;
kernLeft = KO_e;
kernRight = KO_e;
lastChange = "2024-04-12 00:46:34 +0000";
layers = (
{
anchors = (
{
name = bottom;
pos = (191,0);
},
{
name = ogonek;
pos = (429,0);
},
{
name = top;
pos = (337,718);
}
);
background = {
shapes = (
{
closed = 1;
nodes = (
(306,444,o),
(433,572,o),
(426,591,cs),
(396,669,o),
(345,701,o),
(300,701,cs),
(287,701,o),
(274,698,o),
(262,693,cs),
(56,600,o),
(46,132,o),
(28,41,cs),
(26,29,o),
(25,20,o),
(25,14,cs),
(25,-10,o),
(38,-1,o),
(39,0,c),
(71,11,o),
(96,18,o),
(127,18,cs),
(139,18,o),
(151,17,o),
(166,14,cs),
(200,8,o),
(241,-4,o),
(281,-4,cs),
(313,-4,o),
(344,3,o),
(372,26,cs),
(400,49,o),
(428,132,o),
(428,171,cs),
(428,184,o),
(425,192,o),
(418,192,cs),
(414,192,o),
(410,190,o),
(404,186,c),
(394,177,o),
(367,174,o),
(337,174,cs),
(300,174,o),
(257,178,o),
(226,184,cs),
(207,187,o),
(189,189,o),
(172,189,cs),
(149,189,o),
(126,186,o),
(101,176,c),
(112,135,l),
(161,382,o),
(177,525,o),
(212,541,cs),
(219,544,o),
(227,548,o),
(235,548,cs),
(253,548,o),
(273,531,o),
(298,465,cs)
);
},
{
closed = 1;
nodes = (
(61,438,o),
(15,314,o),
(15,278,cs),
(15,272,o),
(16,268,o),
(19,268,cs),
(342,269,ls),
(359,269,o),
(406,392,o),
(406,429,cs),
(406,435,o),
(405,439,o),
(402,439,cs),
(79,438,ls)
);
}
);
};
guides = (
{
pos = (-220,910);
},
{
pos = (281,725);
}
);
layerId = m01;
shapes = (
{
closed = 1;
nodes = (
(313,-4,o),
(344,3,o),
(372,26,cs),
(400,49,o),
(428,132,o),
(428,171,cs),
(428,184,o),
(425,192,o),
(418,192,cs),
(414,192,o),
(410,190,o),
(404,186,c),
(394,177,o),
(367,174,o),
(337,174,cs),
(300,174,o),
(257,178,o),
(226,184,cs),
(207,187,o),
(189,189,o),
(172,189,cs),
(149,189,o),
(126,186,o),
(101,176,c),
(112,135,l),
(161,382,o),
(177,525,o),
(212,541,cs),
(219,544,o),
(227,548,o),
(235,548,cs),
(267,548,o),
(287,531,o),
(312,465,cs),
(320,444,o),
(447,572,o),
(440,591,cs),
(410,669,o),
(359,701,o),
(300,701,cs),
(287,701,o),
(274,698,o),
(262,693,cs),
(56,600,o),
(46,132,o),
(28,41,cs),
(26,29,o),
(25,20,o),
(25,14,cs),
(25,-10,o),
(38,-1,o),
(39,0,c),
(71,11,o),
(96,18,o),
(127,18,cs),
(139,18,o),
(151,17,o),
(166,14,cs),
(200,8,o),
(241,-4,o),
(281,-4,cs)
);
},
{
closed = 1;
nodes = (
(337,259,ls),
(354,259,o),
(401,382,o),
(401,419,cs),
(401,425,o),
(400,429,o),
(397,429,cs),
(74,428,ls),
(56,428,o),
(10,304,o),
(10,268,cs),
(10,262,o),
(11,258,o),
(14,258,cs)
);
}
);
width = 478;
}
);
unicode = 101;
userData = {
KernOnName = e;
};
},
{
glyphname = eopen;
kernLeft = KO_eopen;
kernRight = KO_eopen;
lastChange = "2024-04-12 00:46:34 +0000";
layers = (
{
anchors = (
{
name = bottom;
pos = (190,0);
},
{
name = top;
pos = (283,719);
}
);
guides = (
{
pos = (370,290);
},
{
pos = (349,410);
}
);
layerId = m01;
shapes = (
{
closed = 1;
nodes = (
(129,246,o),
(152,253,o),
(174,268,cs),
(216,297,o),
(303,447,o),
(279,447,cs),
(277,447,o),
(273,446,o),
(268,442,cs),
(243,425,o),
(222,418,o),
(205,418,cs),
(159,418,o),
(142,470,o),
(142,512,cs),
(142,532,o),
(146,550,o),
(153,557,cs),
(181,591,o),
(193,615,o),
(193,627,cs),
(193,633,o),
(190,636,o),
(185,636,cs),
(173,636,o),
(147,618,o),
(113,579,cs),
(36,488,o),
(8,412,o),
(8,356,cs),
(8,285,o),
(54,246,o),
(107,246,cs)
);
},
{
closed = 1;
nodes = (
(178,-6,o),
(246,24,o),
(294,92,cs),
(325,137,o),
(346,202,o),
(346,230,cs),
(346,240,o),
(344,245,o),
(339,245,cs),
(333,245,o),
(324,237,o),
(310,218,cs),
(280,174,o),
(223,146,o),
(183,146,cs),
(158,146,o),
(139,158,o),
(139,183,cs),
(139,208,o),
(158,249,o),
(208,306,cs),
(211,310,o),
(213,313,o),
(213,315,cs),
(213,317,o),
(211,318,o),
(208,318,cs),
(185,318,o),
(94,273,o),
(72,248,cs),
(21,188,o),
(0,137,o),
(0,97,cs),
(0,32,o),
(54,-6,o),
(119,-6,cs)
);
},
{
closed = 1;
nodes = (
(256,471,o),
(382,599,o),
(379,624,cs),
(376,656,o),
(340,701,o),
(283,701,cs),
(253,701,o),
(218,689,o),
(178,656,cs),
(131,616,o),
(72,520,o),
(92,520,cs),
(96,520,o),
(103,524,o),
(116,534,cs),
(134,550,o),
(156,556,o),
(176,556,cs),
(214,556,o),
(249,533,o),
(253,498,cs)
);
}
);
width = 379;
}
);
unicode = 603;
},
